<svg xmlns="http://www.w3.org/2000/svg" viewBox="0 0 1414.2135623730949 707.1067811865474"><g transform="translate(0, 353.5533905932737) scale(1.6666666666666665, 0.8333333333333333) rotate(-45)"><g transform="translate(0.000000,600.000000) scale(0.100000,-0.100000)" fill="#157615" stroke="none">
<path d="M0 3000 l0 -3000 3000 0 3000 0 0 3000 0 3000 -3000 0 -3000 0 0 -3000z m2100 2535 l0 -15 30 0 30 0 0 -45 0 -45 15 0 15 0 0 -45 0 -45 195 0 195 0 0 -15 0 -15 45 0 45 0 0 -15 0 -15 15 0 15 0 0 -15 0 -15 30 0 30 0 0 -135 0 -135 30 0 30 0 0 -15 0 -15 210 0 210 0 0 45 0 45 15 0 15 0 0 15 0 15 30 0 30 0 0 30 0 30 15 0 15 0 0 60 0 60 15 0 15 0 0 45 0 45 195 0 195 0 0 -15 0 -15 75 0 75 0 0 -15 0 -15 15 0 15 0 0 15 0 15 75 0 75 0 0 15 0 15 255 0 255 0 0 -15 0 -15 60 0 60 0 0 -45 0 -45 30 0 30 0 0 -15 0 -15 45 0 45 0 0 -15 0 -15 30 0 30 0 0 -225 0 -225 -15 0 -15 0 0 -165 0 -165 30 0 30 0 0 -270 0 -270 165 0 165 0 0 -15 0 -15 105 0 105 0 0 -15 0 -15 15 0 15 0 0 -60 0 -60 15 0 15 0 0 -15 0 -15 15 0 15 0 0 -90 0 -90 30 0 30 0 0 -105 0 -105 15 0 15 0 0 -15 0 -15 15 0 15 0 0 -15 0 -15 15 0 15 0 0 -330 0 -330 -15 0 -15 0 0 -45 0 -45 -60 0 -60 0 0 -60 0 -60 -15 0 -15 0 0 -30 0 -30 -60 0 -60 0 0 -15 0 -15 -225 0 -225 0 0 15 0 15 -15 0 -15 0 0 -165 0 -165 -15 0 -15 0 0 -15 0 -15 -15 0 -15 0 0 -15 0 -15 -15 0 -15 0 0 -15 0 -15 -15 0 -15 0 0 -15 0 -15 -15 0 -15 0 0 -15 0 -15 -15 0 -15 0 0 -15 0 -15 -15 0 -15 0 0 -15 0 -15 -15 0 -15 0 0 -15 0 -15 -15 0 -15 0 0 -15 0 -15 -15 0 -15 0 0 -270 0 -270 -15 0 -15 0 0 -120 0 -120 -15 0 -15 0 0 -90 0 -90 -30 0 -30 0 0 -75 0 -75 -90 0 -90 0 0 -30 0 -30 -15 0 -15 0 0 -45 0 -45 -120 0 -120 0 0 -15 0 -15 -195 0 -195 0 0 15 0 15 -30 0 -30 0 0 15 0 15 -75 0 -75 0 0 30 0 30 -90 0 -90 0 0 45 0 45 -30 0 -30 0 0 15 0 15 -30 0 -30 0 0 15 0 15 -15 0 -15 0 0 15 0 15 -30 0 -30 0 0 15 0 15 -15 0 -15 0 0 165 0 165 -120 0 -120 0 0 -60 0 -60 -15 0 -15 0 0 -90 0 -90 -15 0 -15 0 0 -15 0 -15 -15 0 -15 0 0 -15 0 -15 -15 0 -15 0 0 -45 0 -45 -15 0 -15 0 0 -15 0 -15 -30 0 -30 0 0 -15 0 -15 -15 0 -15 0 0 -15 0 -15 -150 0 -150 0 0 -15 0 -15 -75 0 -75 0 0 -15 0 -15 -225 0 -225 0 0 30 0 30 -15 0 -15 0 0 15 0 15 -15 0 -15 0 0 15 0 15 -60 0 -60 0 0 30 0 30 -15 0 -15 0 0 15 0 15 -30 0 -30 0 0 15 0 15 -30 0 -30 0 0 60 0 60 -30 0 -30 0 0 330 0 330 -15 0 -15 0 0 135 0 135 -15 0 -15 0 0 15 0 15 -15 0 -15 0 0 15 0 15 -15 0 -15 0 0 15 0 15 -15 0 -15 0 0 15 0 15 -15 0 -15 0 0 15 0 15 -15 0 -15 0 0 15 0 15 -15 0 -15 0 0 15 0 15 -15 0 -15 0 0 120 0 120 -30 0 -30 0 0 -15 0 -15 -195 0 -195 0 0 30 0 30 -15 0 -15 0 0 15 0 15 -60 0 -60 0 0 15 0 15 -15 0 -15 0 0 15 0 15 -15 0 -15 0 0 75 0 75 -30 0 -30 0 0 180 0 180 -15 0 -15 0 0 105 0 105 -15 0 -15 0 0 30 0 30 -15 0 -15 0 0 240 0 240 90 0 90 0 0 30 0 30 15 0 15 0 0 30 0 30 60 0 60 0 0 45 0 45 225 0 225 0 0 -30 0 -30 15 0 15 0 0 180 0 180 15 0 15 0 0 15 0 15 15 0 15 0 0 15 0 15 15 0 15 0 0 15 0 15 15 0 15 0 0 15 0 15 15 0 15 0 0 15 0 15 15 0 15 0 0 15 0 15 15 0 15 0 0 120 0 120 -15 0 -15 0 0 210 0 210 15 0 15 0 0 180 0 180 30 0 30 0 0 30 0 30 45 0 45 0 0 75 0 75 45 0 45 0 0 15 0 15 30 0 30 0 0 15 0 15 90 0 90 0 0 15 0 15 180 0 180 0 0 -15z" stroke="#157615" stroke-width="10" />
<path d="M3060 4590 l0 -120 -15 0 -15 0 0 -60 0 -60 -15 0 -15 0 0 -15 0 -15 -15 0 -15 0 0 -15 0 -15 -15 0 -15 0 0 -45 0 -45 -60 0 -60 0 0 -15 0 -15 -15 0 -15 0 0 -15 0 -15 -15 0 -15 0 0 -15 0 -15 -30 0 -30 0 0 -30 0 -30 -45 0 -45 0 0 -15 0 -15 -15 0 -15 0 0 -15 0 -15 -150 0 -150 0 0 -15 0 -15 -105 0 -105 0 0 -15 0 -15 -120 0 -120 0 0 15 0 15 -165 0 -165 0 0 15 0 15 -15 0 -15 0 0 -15 0 -15 -15 0 -15 0 0 -15 0 -15 -15 0 -15 0 0 -15 0 -15 -15 0 -15 0 0 -15 0 -15 -15 0 -15 0 0 -15 0 -15 -15 0 -15 0 0 -15 0 -15 -15 0 -15 0 0 -30 0 -30 135 0 135 0 0 -15 0 -15 45 0 45 0 0 -15 0 -15 45 0 45 0 0 -105 0 -105 15 0 15 0 0 -30 0 -30 15 0 15 0 0 -45 0 -45 15 0 15 0 0 -45 0 -45 15 0 15 0 0 -15 0 -15 15 0 15 0 0 -30 0 -30 15 0 15 0 0 -15 0 -15 30 0 30 0 0 -105 0 -105 -30 0 -30 0 0 -30 0 -30 -30 0 -30 0 0 -60 0 -60 -30 0 -30 0 0 -30 0 -30 15 0 15 0 0 -105 0 -105 -15 0 -15 0 0 -60 0 -60 -75 0 -75 0 0 -15 0 -15 -45 0 -45 0 0 -30 0 -30 -30 0 -30 0 0 -15 0 -15 -45 0 -45 0 0 -15 0 -15 -60 0 -60 0 0 -15 0 -15 15 0 15 0 0 -15 0 -15 15 0 15 0 0 -15 0 -15 15 0 15 0 0 -15 0 -15 15 0 15 0 0 -15 0 -15 15 0 15 0 0 -15 0 -15 15 0 15 0 0 -15 0 -15 15 0 15 0 0 15 0 15 225 0 225 0 0 -15 0 -15 45 0 45 0 0 60 0 60 30 0 30 0 0 15 0 15 210 0 210 0 0 -15 0 -15 45 0 45 0 0 -30 0 -30 60 0 60 0 0 -30 0 -30 15 0 15 0 0 -30 0 -30 15 0 15 0 0 -15 0 -15 15 0 15 0 0 -135 0 -135 15 0 15 0 0 -135 0 -135 -15 0 -15 0 0 -45 0 -45 180 0 180 0 0 120 0 120 -15 0 -15 0 0 105 0 105 15 0 15 0 0 75 0 75 45 0 45 0 0 30 0 30 15 0 15 0 0 30 0 30 180 0 180 0 0 -15 0 -15 105 0 105 0 0 15 0 15 30 0 30 0 0 15 0 15 30 0 30 0 0 15 0 15 105 0 105 0 0 -15 0 -15 15 0 15 0 0 -15 0 -15 90 0 90 0 0 -15 0 -15 60 0 60 0 0 15 0 15 15 0 15 0 0 15 0 15 15 0 15 0 0 15 0 15 15 0 15 0 0 15 0 15 15 0 15 0 0 15 0 15 15 0 15 0 0 15 0 15 15 0 15 0 0 15 0 15 -60 0 -60 0 0 15 0 15 -15 0 -15 0 0 15 0 15 -30 0 -30 0 0 45 0 45 -60 0 -60 0 0 15 0 15 -30 0 -30 0 0 15 0 15 -15 0 -15 0 0 45 0 45 -15 0 -15 0 0 15 0 15 -15 0 -15 0 0 120 0 120 -15 0 -15 0 0 15 0 15 -15 0 -15 0 0 15 0 15 -15 0 -15 0 0 75 0 75 -15 0 -15 0 0 105 0 105 15 0 15 0 0 15 0 15 30 0 30 0 0 15 0 15 15 0 15 0 0 30 0 30 15 0 15 0 0 15 0 15 -15 0 -15 0 0 30 0 30 -15 0 -15 0 0 105 0 105 60 0 60 0 0 45 0 45 105 0 105 0 0 15 0 15 75 0 75 0 0 15 0 15 30 0 30 0 0 45 0 45 -15 0 -15 0 0 15 0 15 -15 0 -15 0 0 15 0 15 -120 0 -120 0 0 -15 0 -15 -180 0 -180 0 0 15 0 15 -60 0 -60 0 0 -15 0 -15 -15 0 -15 0 0 -15 0 -15 -15 0 -15 0 0 -30 0 -30 -105 0 -105 0 0 15 0 15 -30 0 -30 0 0 45 0 45 -45 0 -45 0 0 75 0 75 -15 0 -15 0 0 15 0 15 -15 0 -15 0 0 15 0 15 -15 0 -15 0 0 150 0 150 -15 0 -15 0 0 15 0 15 -15 0 -15 0 0 60 0 60 -15 0 -15 0 0 15 0 15 -15 0 -15 0 0 15 0 15 -15 0 -15 0 0 60 0 60 -120 0 -120 0 0 -120z" stroke="#157615" stroke-width="10" />
</g>
<g transform="translate(0.000000,600.000000) scale(0.100000,-0.100000)" fill="#e4a252" stroke="none">
<path d="M1740 5535 l0 -15 -90 0 -90 0 0 -15 0 -15 -30 0 -30 0 0 -15 0 -15 -45 0 -45 0 0 -75 0 -75 -45 0 -45 0 0 -30 0 -30 -30 0 -30 0 0 -180 0 -180 -15 0 -15 0 0 -210 0 -210 15 0 15 0 0 -120 0 -120 -15 0 -15 0 0 -15 0 -15 -15 0 -15 0 0 -15 0 -15 -15 0 -15 0 0 -15 0 -15 -15 0 -15 0 0 -15 0 -15 -15 0 -15 0 0 -15 0 -15 -15 0 -15 0 0 -15 0 -15 -15 0 -15 0 0 -180 0 -180 -15 0 -15 0 0 30 0 30 -225 0 -225 0 0 -45 0 -45 -60 0 -60 0 0 -30 0 -30 -15 0 -15 0 0 -30 0 -30 -90 0 -90 0 0 -240 0 -240 15 0 15 0 0 -30 0 -30 15 0 15 0 0 -105 0 -105 15 0 15 0 0 -180 0 -180 30 0 30 0 0 -75 0 -75 15 0 15 0 0 -15 0 -15 15 0 15 0 0 -15 0 -15 60 0 60 0 0 -15 0 -15 15 0 15 0 0 -30 0 -30 195 0 195 0 0 15 0 15 30 0 30 0 0 -120 0 -120 15 0 15 0 0 -15 0 -15 15 0 15 0 0 -15 0 -15 15 0 15 0 0 -15 0 -15 15 0 15 0 0 -15 0 -15 15 0 15 0 0 -15 0 -15 15 0 15 0 0 -15 0 -15 15 0 15 0 0 -15 0 -15 15 0 15 0 0 -135 0 -135 15 0 15 0 0 -330 0 -330 30 0 30 0 0 -60 0 -60 30 0 30 0 0 -15 0 -15 30 0 30 0 0 -15 0 -15 15 0 15 0 0 -30 0 -30 60 0 60 0 0 -15 0 -15 15 0 15 0 0 -15 0 -15 15 0 15 0 0 -30 0 -30 225 0 225 0 0 15 0 15 75 0 75 0 0 15 0 15 150 0 150 0 0 15 0 15 15 0 15 0 0 15 0 15 30 0 30 0 0 15 0 15 15 0 15 0 0 45 0 45 15 0 15 0 0 15 0 15 15 0 15 0 0 15 0 15 15 0 15 0 0 90 0 90 15 0 15 0 0 60 0 60 120 0 120 0 0 -165 0 -165 15 0 15 0 0 -15 0 -15 30 0 30 0 0 -15 0 -15 15 0 15 0 0 -15 0 -15 30 0 30 0 0 -15 0 -15 30 0 30 0 0 -45 0 -45 90 0 90 0 0 -30 0 -30 75 0 75 0 0 -15 0 -15 30 0 30 0 0 -15 0 -15 195 0 195 0 0 15 0 15 120 0 120 0 0 45 0 45 15 0 15 0 0 30 0 30 90 0 90 0 0 75 0 75 30 0 30 0 0 90 0 90 15 0 15 0 0 120 0 120 15 0 15 0 0 270 0 270 15 0 15 0 0 15 0 15 15 0 15 0 0 15 0 15 15 0 15 0 0 15 0 15 15 0 15 0 0 15 0 15 15 0 15 0 0 15 0 15 15 0 15 0 0 15 0 15 15 0 15 0 0 15 0 15 15 0 15 0 0 15 0 15 15 0 15 0 0 15 0 15 15 0 15 0 0 165 0 165 15 0 15 0 0 -15 0 -15 225 0 225 0 0 15 0 15 60 0 60 0 0 30 0 30 15 0 15 0 0 60 0 60 60 0 60 0 0 45 0 45 15 0 15 0 0 330 0 330 -15 0 -15 0 0 15 0 15 -15 0 -15 0 0 15 0 15 -15 0 -15 0 0 105 0 105 -30 0 -30 0 0 90 0 90 -15 0 -15 0 0 15 0 15 -15 0 -15 0 0 60 0 60 -15 0 -15 0 0 15 0 15 -105 0 -105 0 0 15 0 15 -165 0 -165 0 0 270 0 270 -30 0 -30 0 0 165 0 165 15 0 15 0 0 225 0 225 -30 0 -30 0 0 15 0 15 -45 0 -45 0 0 15 0 15 -30 0 -30 0 0 45 0 45 -60 0 -60 0 0 15 0 15 -255 0 -255 0 0 -15 0 -15 -75 0 -75 0 0 -15 0 -15 -15 0 -15 0 0 15 0 15 -75 0 -75 0 0 15 0 15 -195 0 -195 0 0 -45 0 -45 -15 0 -15 0 0 -60 0 -60 -15 0 -15 0 0 -30 0 -30 -30 0 -30 0 0 -15 0 -15 -15 0 -15 0 0 -45 0 -45 -210 0 -210 0 0 15 0 15 -30 0 -30 0 0 135 0 135 -30 0 -30 0 0 15 0 15 -15 0 -15 0 0 15 0 15 -45 0 -45 0 0 15 0 15 -195 0 -195 0 0 45 0 45 -15 0 -15 0 0 45 0 45 -30 0 -30 0 0 15 0 15 -180 0 -180 0 0 -15z m150 -345 l0 -30 15 0 15 0 0 -45 0 -45 15 0 15 0 0 -15 0 -15 45 0 45 0 0 -60 0 -60 -15 0 -15 0 0 -15 0 -15 -60 0 -60 0 0 105 0 105 -15 0 -15 0 0 15 0 15 -60 0 -60 0 0 15 0 15 -15 0 -15 0 0 15 0 15 30 0 30 0 0 15 0 15 60 0 60 0 0 -30z m2580 -165 l0 -15 -45 0 -45 0 0 15 0 15 45 0 45 0 0 -15z m-2730 -30 l0 -15 15 0 15 0 0 -45 0 -45 -15 0 -15 0 0 15 0 15 -15 0 -15 0 0 15 0 15 -15 0 -15 0 0 15 0 15 15 0 15 0 0 15 0 15 15 0 15 0 0 -15z m690 0 l0 -15 30 0 30 0 0 -90 0 -90 -45 0 -45 0 0 105 0 105 15 0 15 0 0 -15z m-180 -30 l0 -15 15 0 15 0 0 -15 0 -15 -30 0 -30 0 0 -30 0 -30 -15 0 -15 0 0 15 0 15 -15 0 -15 0 0 15 0 15 15 0 15 0 0 15 0 15 15 0 15 0 0 15 0 15 15 0 15 0 0 -15z m1470 0 l0 -15 15 0 15 0 0 -15 0 -15 -15 0 -15 0 0 -15 0 -15 -15 0 -15 0 0 -15 0 -15 -15 0 -15 0 0 45 0 45 15 0 15 0 0 15 0 15 15 0 15 0 0 -15z m300 0 l0 -15 -75 0 -75 0 0 15 0 15 75 0 75 0 0 -15z m210 0 l0 -15 15 0 15 0 0 -15 0 -15 -15 0 -15 0 0 -15 0 -15 -15 0 -15 0 0 15 0 15 -30 0 -30 0 0 15 0 15 30 0 30 0 0 15 0 15 15 0 15 0 0 -15z m330 -90 l0 -15 15 0 15 0 0 -15 0 -15 -60 0 -60 0 0 30 0 30 45 0 45 0 0 -15z m-2340 -60 l0 -15 15 0 15 0 0 -15 0 -15 -15 0 -15 0 0 -15 0 -15 -15 0 -15 0 0 15 0 15 -30 0 -30 0 0 15 0 15 30 0 30 0 0 15 0 15 15 0 15 0 0 -15z m1800 0 l0 -15 15 0 15 0 0 -15 0 -15 -15 0 -15 0 0 -15 0 -15 -15 0 -15 0 0 15 0 15 -30 0 -30 0 0 15 0 15 15 0 15 0 0 15 0 15 30 0 30 0 0 -15z m-390 -45 l0 -30 -30 0 -30 0 0 30 0 30 30 0 30 0 0 -30z m-1830 -15 l0 -15 -15 0 -15 0 0 -30 0 -30 -15 0 -15 0 0 -15 0 -15 -15 0 -15 0 0 -15 0 -15 -60 0 -60 0 0 45 0 45 15 0 15 0 0 30 0 30 90 0 90 0 0 -15z m240 0 l0 -15 15 0 15 0 0 -15 0 -15 -45 0 -45 0 0 15 0 15 15 0 15 0 0 15 0 15 15 0 15 0 0 -15z m2250 -15 l0 -30 -15 0 -15 0 0 -15 0 -15 15 0 15 0 0 -60 0 -60 15 0 15 0 0 -15 0 -15 15 0 15 0 0 -15 0 -15 45 0 45 0 0 15 0 15 15 0 15 0 0 -15 0 -15 30 0 30 0 0 15 0 15 45 0 45 0 0 -15 0 -15 -15 0 -15 0 0 -15 0 -15 15 0 15 0 0 -45 0 -45 -15 0 -15 0 0 15 0 15 -60 0 -60 0 0 -15 0 -15 -15 0 -15 0 0 -15 0 -15 -15 0 -15 0 0 -15 0 -15 -15 0 -15 0 0 -30 0 -30 30 0 30 0 0 -15 0 -15 15 0 15 0 0 -15 0 -15 -15 0 -15 0 0 -45 0 -45 -75 0 -75 0 0 -15 0 -15 -15 0 -15 0 0 45 0 45 -120 0 -120 0 0 45 0 45 60 0 60 0 0 30 0 30 45 0 45 0 0 -15 0 -15 60 0 60 0 0 30 0 30 -30 0 -30 0 0 15 0 15 -15 0 -15 0 0 45 0 45 -30 0 -30 0 0 -15 0 -15 -15 0 -15 0 0 15 0 15 -15 0 -15 0 0 30 0 30 -15 0 -15 0 0 15 0 15 -60 0 -60 0 0 30 0 30 75 0 75 0 0 15 0 15 15 0 15 0 0 45 0 45 30 0 30 0 0 15 0 15 30 0 30 0 0 -30z m210 -15 l0 -15 15 0 15 0 0 -15 0 -15 -15 0 -15 0 0 -15 0 -15 -30 0 -30 0 0 15 0 15 -15 0 -15 0 0 15 0 15 30 0 30 0 0 15 0 15 15 0 15 0 0 -15z m-1200 -75 l0 -60 15 0 15 0 0 -15 0 -15 15 0 15 0 0 -15 0 -15 15 0 15 0 0 -60 0 -60 15 0 15 0 0 -15 0 -15 15 0 15 0 0 -150 0 -150 15 0 15 0 0 -15 0 -15 15 0 15 0 0 -15 0 -15 15 0 15 0 0 -75 0 -75 45 0 45 0 0 -45 0 -45 30 0 30 0 0 -15 0 -15 105 0 105 0 0 30 0 30 15 0 15 0 0 15 0 15 15 0 15 0 0 15 0 15 60 0 60 0 0 -15 0 -15 180 0 180 0 0 15 0 15 120 0 120 0 0 -15 0 -15 15 0 15 0 0 -15 0 -15 15 0 15 0 0 -45 0 -45 -30 0 -30 0 0 -15 0 -15 -75 0 -75 0 0 -15 0 -15 -105 0 -105 0 0 -45 0 -45 -60 0 -60 0 0 -105 0 -105 15 0 15 0 0 -30 0 -30 15 0 15 0 0 -15 0 -15 -15 0 -15 0 0 -30 0 -30 -15 0 -15 0 0 -15 0 -15 -30 0 -30 0 0 -15 0 -15 -15 0 -15 0 0 -105 0 -105 15 0 15 0 0 -75 0 -75 15 0 15 0 0 -15 0 -15 15 0 15 0 0 -15 0 -15 15 0 15 0 0 -120 0 -120 15 0 15 0 0 -15 0 -15 15 0 15 0 0 -45 0 -45 15 0 15 0 0 -15 0 -15 30 0 30 0 0 -15 0 -15 60 0 60 0 0 -45 0 -45 30 0 30 0 0 -15 0 -15 15 0 15 0 0 -15 0 -15 60 0 60 0 0 -15 0 -15 -15 0 -15 0 0 -15 0 -15 -15 0 -15 0 0 -15 0 -15 -15 0 -15 0 0 -15 0 -15 -15 0 -15 0 0 -15 0 -15 -15 0 -15 0 0 -15 0 -15 -15 0 -15 0 0 -15 0 -15 -60 0 -60 0 0 15 0 15 -90 0 -90 0 0 15 0 15 -15 0 -15 0 0 15 0 15 -105 0 -105 0 0 -15 0 -15 -30 0 -30 0 0 -15 0 -15 -30 0 -30 0 0 -15 0 -15 -105 0 -105 0 0 15 0 15 -180 0 -180 0 0 -30 0 -30 -15 0 -15 0 0 -30 0 -30 -45 0 -45 0 0 -75 0 -75 -15 0 -15 0 0 -105 0 -105 15 0 15 0 0 -120 0 -120 -180 0 -180 0 0 45 0 45 15 0 15 0 0 135 0 135 -15 0 -15 0 0 135 0 135 -15 0 -15 0 0 15 0 15 -15 0 -15 0 0 30 0 30 -15 0 -15 0 0 30 0 30 -60 0 -60 0 0 30 0 30 -45 0 -45 0 0 15 0 15 -210 0 -210 0 0 -15 0 -15 -30 0 -30 0 0 -60 0 -60 -45 0 -45 0 0 15 0 15 -225 0 -225 0 0 -15 0 -15 -15 0 -15 0 0 15 0 15 -15 0 -15 0 0 15 0 15 -15 0 -15 0 0 15 0 15 -15 0 -15 0 0 15 0 15 -15 0 -15 0 0 15 0 15 -15 0 -15 0 0 15 0 15 -15 0 -15 0 0 15 0 15 60 0 60 0 0 15 0 15 45 0 45 0 0 15 0 15 30 0 30 0 0 30 0 30 45 0 45 0 0 15 0 15 75 0 75 0 0 60 0 60 15 0 15 0 0 105 0 105 -15 0 -15 0 0 30 0 30 30 0 30 0 0 60 0 60 30 0 30 0 0 30 0 30 30 0 30 0 0 105 0 105 -30 0 -30 0 0 15 0 15 -15 0 -15 0 0 30 0 30 -15 0 -15 0 0 15 0 15 -15 0 -15 0 0 45 0 45 -15 0 -15 0 0 45 0 45 -15 0 -15 0 0 30 0 30 -15 0 -15 0 0 105 0 105 -45 0 -45 0 0 15 0 15 -45 0 -45 0 0 15 0 15 -135 0 -135 0 0 30 0 30 15 0 15 0 0 15 0 15 15 0 15 0 0 15 0 15 15 0 15 0 0 15 0 15 15 0 15 0 0 15 0 15 15 0 15 0 0 15 0 15 15 0 15 0 0 15 0 15 15 0 15 0 0 -15 0 -15 165 0 165 0 0 -15 0 -15 120 0 120 0 0 15 0 15 105 0 105 0 0 15 0 15 150 0 150 0 0 15 0 15 15 0 15 0 0 15 0 15 45 0 45 0 0 30 0 30 30 0 30 0 0 15 0 15 15 0 15 0 0 15 0 15 15 0 15 0 0 15 0 15 60 0 60 0 0 45 0 45 15 0 15 0 0 15 0 15 15 0 15 0 0 15 0 15 15 0 15 0 0 60 0 60 15 0 15 0 0 120 0 120 120 0 120 0 0 -60z m-900 15 l0 -15 15 0 15 0 0 -15 0 -15 -15 0 -15 0 0 -15 0 -15 -45 0 -45 0 0 30 0 30 30 0 30 0 0 15 0 15 15 0 15 0 0 -15z m1260 -60 l0 -15 -15 0 -15 0 0 15 0 15 15 0 15 0 0 -15z m180 0 l0 -15 15 0 15 0 0 -15 0 -15 -15 0 -15 0 0 -15 0 -15 15 0 15 0 0 -15 0 -15 -15 0 -15 0 0 -60 0 -60 -30 0 -30 0 0 15 0 15 15 0 15 0 0 60 0 60 -15 0 -15 0 0 30 0 30 15 0 15 0 0 15 0 15 15 0 15 0 0 -15z m-1950 -60 l0 -15 15 0 15 0 0 -15 0 -15 -15 0 -15 0 0 -15 0 -15 -30 0 -30 0 0 30 0 30 15 0 15 0 0 15 0 15 15 0 15 0 0 -15z m870 0 l0 -15 -15 0 -15 0 0 -60 0 -60 -75 0 -75 0 0 -15 0 -15 -15 0 -15 0 0 15 0 15 -30 0 -30 0 0 15 0 15 30 0 30 0 0 30 0 30 15 0 15 0 0 15 0 15 15 0 15 0 0 15 0 15 75 0 75 0 0 -15z m-570 -45 l0 -30 30 0 30 0 0 -15 0 -15 15 0 15 0 0 -15 0 -15 15 0 15 0 0 -45 0 -45 -15 0 -15 0 0 -15 0 -15 -45 0 -45 0 0 30 0 30 -45 0 -45 0 0 -30 0 -30 -30 0 -30 0 0 -15 0 -15 -90 0 -90 0 0 45 0 45 75 0 75 0 0 15 0 15 45 0 45 0 0 15 0 15 -15 0 -15 0 0 15 0 15 15 0 15 0 0 15 0 15 15 0 15 0 0 30 0 30 30 0 30 0 0 -30z m-450 -45 l0 -45 -15 0 -15 0 0 15 0 15 -15 0 -15 0 0 15 0 15 -15 0 -15 0 0 15 0 15 45 0 45 0 0 -45z m2250 -30 l0 -15 15 0 15 0 0 -15 0 -15 -45 0 -45 0 0 15 0 15 -15 0 -15 0 0 15 0 15 45 0 45 0 0 -15z m-2250 -135 l0 -30 -45 0 -45 0 0 15 0 15 15 0 15 0 0 15 0 15 30 0 30 0 0 -30z m2130 -15 l0 -15 15 0 15 0 0 -15 0 -15 -15 0 -15 0 0 -15 0 -15 -30 0 -30 0 0 30 0 30 15 0 15 0 0 15 0 15 15 0 15 0 0 -15z m1380 -750 l0 -15 15 0 15 0 0 -45 0 -45 -60 0 -60 0 0 30 0 30 15 0 15 0 0 30 0 30 30 0 30 0 0 -15z m-3780 -75 l0 -30 -60 0 -60 0 0 15 0 15 15 0 15 0 0 15 0 15 45 0 45 0 0 -30z m3390 -30 l0 -30 -15 0 -15 0 0 -15 0 -15 -15 0 -15 0 0 15 0 15 -15 0 -15 0 0 15 0 15 15 0 15 0 0 15 0 15 30 0 30 0 0 -30z m180 15 l0 -15 -15 0 -15 0 0 -15 0 -15 -15 0 -15 0 0 15 0 15 -30 0 -30 0 0 15 0 15 60 0 60 0 0 -15z m-390 -30 l0 -15 15 0 15 0 0 -15 0 -15 -15 0 -15 0 0 -15 0 -15 -15 0 -15 0 0 15 0 15 -30 0 -30 0 0 15 0 15 30 0 30 0 0 15 0 15 15 0 15 0 0 -15z m-3690 -30 l0 -15 60 0 60 0 0 15 0 15 15 0 15 0 0 -15 0 -15 30 0 30 0 0 -15 0 -15 15 0 15 0 0 -75 0 -75 -90 0 -90 0 0 -30 0 -30 -30 0 -30 0 0 -15 0 -15 -15 0 -15 0 0 -30 0 -30 -30 0 -30 0 0 -15 0 -15 -15 0 -15 0 0 90 0 90 30 0 30 0 0 15 0 15 15 0 15 0 0 15 0 15 30 0 30 0 0 15 0 15 -60 0 -60 0 0 -15 0 -15 -75 0 -75 0 0 30 0 30 15 0 15 0 0 15 0 15 15 0 15 0 0 15 0 15 45 0 45 0 0 15 0 15 45 0 45 0 0 -15z m450 -90 l0 -15 15 0 15 0 0 -15 0 -15 -15 0 -15 0 0 -15 0 -15 -15 0 -15 0 0 15 0 15 -15 0 -15 0 0 15 0 15 -15 0 -15 0 0 15 0 15 45 0 45 0 0 -15z m3840 0 l0 -15 -15 0 -15 0 0 -15 0 -15 -15 0 -15 0 0 -15 0 -15 -15 0 -15 0 0 15 0 15 -15 0 -15 0 0 15 0 15 15 0 15 0 0 15 0 15 45 0 45 0 0 -15z m-240 -60 l0 -45 -120 0 -120 0 0 -15 0 -15 -30 0 -30 0 0 30 0 30 30 0 30 0 0 15 0 15 90 0 90 0 0 15 0 15 30 0 30 0 0 -45z m-450 -30 l0 -15 15 0 15 0 0 -15 0 -15 -15 0 -15 0 0 -15 0 -15 -45 0 -45 0 0 15 0 15 15 0 15 0 0 15 0 15 15 0 15 0 0 15 0 15 15 0 15 0 0 -15z m-3870 -90 l0 -15 15 0 15 0 0 -30 0 -30 -30 0 -30 0 0 45 0 45 15 0 15 0 0 -15z m870 0 l0 -15 15 0 15 0 0 -15 0 -15 -15 0 -15 0 0 -15 0 -15 -15 0 -15 0 0 -15 0 -15 -15 0 -15 0 0 45 0 45 15 0 15 0 0 15 0 15 15 0 15 0 0 -15z m-180 -30 l0 -15 -15 0 -15 0 0 15 0 15 15 0 15 0 0 -15z m3780 -45 l0 -60 -30 0 -30 0 0 60 0 60 30 0 30 0 0 -60z m180 15 l0 -15 15 0 15 0 0 -15 0 -15 -15 0 -15 0 0 -15 0 -15 -30 0 -30 0 0 30 0 30 15 0 15 0 0 15 0 15 15 0 15 0 0 -15z m-4140 -30 l0 -15 15 0 15 0 0 -15 0 -15 -15 0 -15 0 0 -15 0 -15 -15 0 -15 0 0 15 0 15 -15 0 -15 0 0 30 0 30 30 0 30 0 0 -15z m3570 0 l0 -15 15 0 15 0 0 -15 0 -15 -15 0 -15 0 0 -15 0 -15 -15 0 -15 0 0 15 0 15 -30 0 -30 0 0 15 0 15 30 0 30 0 0 15 0 15 15 0 15 0 0 -15z m-210 -225 l0 -210 -15 0 -15 0 0 30 0 30 -15 0 -15 0 0 15 0 15 -15 0 -15 0 0 105 0 105 -15 0 -15 0 0 30 0 30 -15 0 -15 0 0 30 0 30 75 0 75 0 0 -210z m-3120 135 l0 -15 15 0 15 0 0 -15 0 -15 -15 0 -15 0 0 -15 0 -15 -15 0 -15 0 0 15 0 15 -30 0 -30 0 0 15 0 15 30 0 30 0 0 15 0 15 15 0 15 0 0 -15z m-630 -60 l0 -15 45 0 45 0 0 -15 0 -15 -45 0 -45 0 0 -15 0 -15 -15 0 -15 0 0 15 0 15 -15 0 -15 0 0 15 0 15 15 0 15 0 0 15 0 15 15 0 15 0 0 -15z m4290 -60 l0 -45 -15 0 -15 0 0 15 0 15 -15 0 -15 0 0 15 0 15 -30 0 -30 0 0 15 0 15 60 0 60 0 0 -45z m360 -30 l0 -75 -30 0 -30 0 0 75 0 75 30 0 30 0 0 -75z m-4230 15 l0 -30 30 0 30 0 0 -15 0 -15 120 0 120 0 0 -60 0 -60 -15 0 -15 0 0 -15 0 -15 -15 0 -15 0 0 -15 0 -15 -15 0 -15 0 0 -15 0 -15 -45 0 -45 0 0 15 0 15 -60 0 -60 0 0 90 0 90 -15 0 -15 0 0 15 0 15 -45 0 -45 0 0 15 0 15 -30 0 -30 0 0 15 0 15 90 0 90 0 0 -30z m4020 -15 l0 -15 15 0 15 0 0 -15 0 -15 -15 0 -15 0 0 -15 0 -15 -30 0 -30 0 0 15 0 15 -15 0 -15 0 0 15 0 15 30 0 30 0 0 15 0 15 15 0 15 0 0 -15z m-480 -30 l0 -15 15 0 15 0 0 -15 0 -15 -15 0 -15 0 0 -15 0 -15 -15 0 -15 0 0 15 0 15 -30 0 -30 0 0 15 0 15 30 0 30 0 0 15 0 15 15 0 15 0 0 -15z m-3840 -60 l0 -15 30 0 30 0 0 -15 0 -15 -30 0 -30 0 0 -15 0 -15 -15 0 -15 0 0 15 0 15 -15 0 -15 0 0 15 0 15 15 0 15 0 0 15 0 15 15 0 15 0 0 -15z m-180 -90 l0 -75 -30 0 -30 0 0 15 0 15 -15 0 -15 0 0 60 0 60 45 0 45 0 0 -75z m4200 60 l0 -15 45 0 45 0 0 -15 0 -15 15 0 15 0 0 -15 0 -15 120 0 120 0 0 -30 0 -30 -30 0 -30 0 0 15 0 15 -120 0 -120 0 0 15 0 15 -45 0 -45 0 0 45 0 45 15 0 15 0 0 -15z m-3870 -30 l0 -15 15 0 15 0 0 -15 0 -15 -15 0 -15 0 0 -15 0 -15 -15 0 -15 0 0 15 0 15 -15 0 -15 0 0 30 0 30 30 0 30 0 0 -15z m1470 -900 l0 -15 -30 0 -30 0 0 -15 0 -15 -60 0 -60 0 0 30 0 30 90 0 90 0 0 -15z m1710 0 l0 -15 45 0 45 0 0 -15 0 -15 -165 0 -165 0 0 15 0 15 30 0 30 0 0 15 0 15 90 0 90 0 0 -15z m-2370 -60 l0 -15 -15 0 -15 0 0 15 0 15 15 0 15 0 0 -15z m330 0 l0 -15 15 0 15 0 0 -15 0 -15 -15 0 -15 0 0 -15 0 -15 -30 0 -30 0 0 45 0 45 30 0 30 0 0 -15z m1260 -45 l0 -30 -30 0 -30 0 0 30 0 30 30 0 30 0 0 -30z m390 -15 l0 -45 -15 0 -15 0 0 15 0 15 -15 0 -15 0 0 15 0 15 -15 0 -15 0 0 15 0 15 45 0 45 0 0 -45z m-2160 0 l0 -15 15 0 15 0 0 -30 0 -30 -15 0 -15 0 0 -15 0 -15 -15 0 -15 0 0 60 0 60 15 0 15 0 0 -15z m360 0 l0 -15 15 0 15 0 0 -15 0 -15 -15 0 -15 0 0 -15 0 -15 -15 0 -15 0 0 15 0 15 -15 0 -15 0 0 30 0 30 30 0 30 0 0 -15z m360 -75 l0 -30 -15 0 -15 0 0 -15 0 -15 -15 0 -15 0 0 15 0 15 -30 0 -30 0 0 15 0 15 30 0 30 0 0 15 0 15 30 0 30 0 0 -30z m1230 15 l0 -15 15 0 15 0 0 -15 0 -15 -15 0 -15 0 0 -15 0 -15 -15 0 -15 0 0 15 0 15 -15 0 -15 0 0 30 0 30 30 0 30 0 0 -15z m360 0 l0 -15 15 0 15 0 0 -15 0 -15 -30 0 -30 0 0 -15 0 -15 -30 0 -30 0 0 30 0 30 30 0 30 0 0 15 0 15 15 0 15 0 0 -15z m270 -30 l0 -45 -15 0 -15 0 0 15 0 15 -30 0 -30 0 0 15 0 15 30 0 30 0 0 15 0 15 15 0 15 0 0 -45z m-2400 0 l0 -15 15 0 15 0 0 -15 0 -15 -15 0 -15 0 0 -15 0 -15 -15 0 -15 0 0 15 0 15 -45 0 -45 0 0 15 0 15 45 0 45 0 0 15 0 15 15 0 15 0 0 -15z m1590 -30 l0 -15 15 0 15 0 0 -45 0 -45 -15 0 -15 0 0 15 0 15 -15 0 -15 0 0 45 0 45 15 0 15 0 0 -15z m-1260 -45 l0 -30 15 0 15 0 0 -15 0 -15 -15 0 -15 0 0 -15 0 -15 -15 0 -15 0 0 15 0 15 -15 0 -15 0 0 15 0 15 15 0 15 0 0 30 0 30 15 0 15 0 0 -30z m1920 -60 l0 -30 -15 0 -15 0 0 -15 0 -15 -30 0 -30 0 0 30 0 30 15 0 15 0 0 15 0 15 30 0 30 0 0 -30z m-2430 -165 l0 -135 30 0 30 0 0 -90 0 -90 -30 0 -30 0 0 15 0 15 -15 0 -15 0 0 60 0 60 -15 0 -15 0 0 135 0 135 15 0 15 0 0 15 0 15 15 0 15 0 0 -135z m2220 120 l0 -15 -45 0 -45 0 0 -15 0 -15 -30 0 -30 0 0 -135 0 -135 30 0 30 0 0 -45 0 -45 -45 0 -45 0 0 120 0 120 -15 0 -15 0 0 15 0 15 -15 0 -15 0 0 15 0 15 -90 0 -90 0 0 15 0 15 60 0 60 0 0 45 0 45 150 0 150 0 0 -15z m360 -15 l0 -30 -15 0 -15 0 0 30 0 30 15 0 15 0 0 -30z m-2370 -75 l0 -15 15 0 15 0 0 -15 0 -15 -15 0 -15 0 0 -15 0 -15 -15 0 -15 0 0 15 0 15 -30 0 -30 0 0 15 0 15 15 0 15 0 0 15 0 15 30 0 30 0 0 -15z m390 0 l0 -15 -15 0 -15 0 0 -15 0 -15 -60 0 -60 0 0 15 0 15 30 0 30 0 0 15 0 15 45 0 45 0 0 -15z m180 -30 l0 -45 -30 0 -30 0 0 30 0 30 15 0 15 0 0 15 0 15 15 0 15 0 0 -45z m1500 -30 l0 -15 15 0 15 0 0 -15 0 -15 -15 0 -15 0 0 -15 0 -15 -15 0 -15 0 0 15 0 15 -30 0 -30 0 0 15 0 15 30 0 30 0 0 15 0 15 15 0 15 0 0 -15z m240 -30 l0 -15 -15 0 -15 0 0 -15 0 -15 -30 0 -30 0 0 -15 0 -15 -15 0 -15 0 0 45 0 45 60 0 60 0 0 -15z m-2100 -60 l0 -15 15 0 15 0 0 -15 0 -15 -15 0 -15 0 0 -15 0 -15 -30 0 -30 0 0 30 0 30 15 0 15 0 0 15 0 15 15 0 15 0 0 -15z m210 0 l0 -15 15 0 15 0 0 -15 0 -15 -15 0 -15 0 0 -15 0 -15 -15 0 -15 0 0 15 0 15 -15 0 -15 0 0 30 0 30 30 0 30 0 0 -15z m1230 0 l0 -15 15 0 15 0 0 -15 0 -15 15 0 15 0 0 -15 0 -15 -15 0 -15 0 0 -15 0 -15 -15 0 -15 0 0 15 0 15 -15 0 -15 0 0 45 0 45 15 0 15 0 0 -15z m720 0 l0 -15 15 0 15 0 0 -15 0 -15 -15 0 -15 0 0 -15 0 -15 -45 0 -45 0 0 15 0 15 15 0 15 0 0 15 0 15 15 0 15 0 0 15 0 15 15 0 15 0 0 -15z m-2310 -90 l0 -45 -45 0 -45 0 0 30 0 30 30 0 30 0 0 15 0 15 15 0 15 0 0 -45z m2070 -30 l0 -15 15 0 15 0 0 -15 0 -15 -15 0 -15 0 0 -15 0 -15 -15 0 -15 0 0 15 0 15 -30 0 -30 0 0 15 0 15 30 0 30 0 0 15 0 15 15 0 15 0 0 -15z m-1590 -105 l0 -30 -15 0 -15 0 0 15 0 15 -150 0 -150 0 0 15 0 15 165 0 165 0 0 -30z m1800 0 l0 -30 -30 0 -30 0 0 30 0 30 30 0 30 0 0 -30z m-690 -15 l0 -15 -15 0 -15 0 0 15 0 15 15 0 15 0 0 -15z m-1590 -45 l0 -30 15 0 15 0 0 -15 0 -15 -30 0 -30 0 0 30 0 30 -15 0 -15 0 0 15 0 15 30 0 30 0 0 -30z m1860 -15 l0 -15 -15 0 -15 0 0 -15 0 -15 -30 0 -30 0 0 30 0 30 45 0 45 0 0 -15z m120 0 l0 -15 15 0 15 0 0 -15 0 -15 15 0 15 0 0 -15 0 -15 -45 0 -45 0 0 45 0 45 15 0 15 0 0 -15z" stroke="#e4a252" stroke-width="10" />
</g>
<g transform="translate(0.000000,600.000000) scale(0.100000,-0.100000)" fill="#339727" stroke="none">
<path d="M1770 5205 l0 -15 -30 0 -30 0 0 -15 0 -15 15 0 15 0 0 -15 0 -15 60 0 60 0 0 -15 0 -15 15 0 15 0 0 -105 0 -105 60 0 60 0 0 15 0 15 15 0 15 0 0 60 0 60 -45 0 -45 0 0 15 0 15 -15 0 -15 0 0 45 0 45 -15 0 -15 0 0 30 0 30 -60 0 -60 0 0 -15z" stroke="#339727" stroke-width="10" />
<path d="M4380 5025 l0 -15 45 0 45 0 0 15 0 15 -45 0 -45 0 0 -15z" stroke="#339727" stroke-width="10" />
<path d="M2400 4905 l0 -105 45 0 45 0 0 90 0 90 -30 0 -30 0 0 15 0 15 -15 0 -15 0 0 -105z" stroke="#339727" stroke-width="10" />
<path d="M3870 4965 l0 -15 75 0 75 0 0 15 0 15 -75 0 -75 0 0 -15z" stroke="#339727" stroke-width="10" />
<path d="M1620 4740 l0 -30 -15 0 -15 0 0 -45 0 -45 60 0 60 0 0 15 0 15 15 0 15 0 0 15 0 15 15 0 15 0 0 30 0 30 15 0 15 0 0 15 0 15 -90 0 -90 0 0 -30z" stroke="#339727" stroke-width="10" />
<path d="M4230 4755 l0 -15 -30 0 -30 0 0 -45 0 -45 -15 0 -15 0 0 -15 0 -15 -75 0 -75 0 0 -30 0 -30 60 0 60 0 0 -15 0 -15 15 0 15 0 0 -30 0 -30 15 0 15 0 0 -15 0 -15 15 0 15 0 0 15 0 15 30 0 30 0 0 -45 0 -45 15 0 15 0 0 -15 0 -15 30 0 30 0 0 -30 0 -30 -60 0 -60 0 0 15 0 15 -45 0 -45 0 0 -30 0 -30 -60 0 -60 0 0 -45 0 -45 120 0 120 0 0 -45 0 -45 15 0 15 0 0 15 0 15 75 0 75 0 0 45 0 45 15 0 15 0 0 15 0 15 -15 0 -15 0 0 15 0 15 -30 0 -30 0 0 30 0 30 15 0 15 0 0 15 0 15 15 0 15 0 0 15 0 15 15 0 15 0 0 15 0 15 60 0 60 0 0 -15 0 -15 15 0 15 0 0 45 0 45 -15 0 -15 0 0 15 0 15 15 0 15 0 0 15 0 15 -45 0 -45 0 0 -15 0 -15 -30 0 -30 0 0 15 0 15 -15 0 -15 0 0 -15 0 -15 -45 0 -45 0 0 15 0 15 -15 0 -15 0 0 15 0 15 -15 0 -15 0 0 60 0 60 -15 0 -15 0 0 15 0 15 15 0 15 0 0 30 0 30 -30 0 -30 0 0 -15z" stroke="#339727" stroke-width="10" />
<path d="M3630 4605 l0 -15 15 0 15 0 0 15 0 15 -15 0 -15 0 0 -15z" stroke="#339727" stroke-width="10" />
<path d="M2610 4545 l0 -15 -15 0 -15 0 0 -15 0 -15 -15 0 -15 0 0 -30 0 -30 -30 0 -30 0 0 -15 0 -15 30 0 30 0 0 -15 0 -15 15 0 15 0 0 15 0 15 75 0 75 0 0 60 0 60 15 0 15 0 0 15 0 15 -75 0 -75 0 0 -15z" stroke="#339727" stroke-width="10" />
<path d="M2130 4500 l0 -30 -15 0 -15 0 0 -15 0 -15 -15 0 -15 0 0 -15 0 -15 15 0 15 0 0 -15 0 -15 -45 0 -45 0 0 -15 0 -15 -75 0 -75 0 0 -45 0 -45 90 0 90 0 0 15 0 15 30 0 30 0 0 30 0 30 45 0 45 0 0 -30 0 -30 45 0 45 0 0 15 0 15 15 0 15 0 0 45 0 45 -15 0 -15 0 0 15 0 15 -15 0 -15 0 0 15 0 15 -30 0 -30 0 0 30 0 30 -30 0 -30 0 0 -30z" stroke="#339727" stroke-width="10" />
<path d="M5190 3510 l0 -30 -15 0 -15 0 0 -30 0 -30 60 0 60 0 0 45 0 45 -15 0 -15 0 0 15 0 15 -30 0 -30 0 0 -30z" stroke="#339727" stroke-width="10" />
<path d="M1380 3465 l0 -15 -15 0 -15 0 0 -15 0 -15 60 0 60 0 0 30 0 30 -45 0 -45 0 0 -15z" stroke="#339727" stroke-width="10" />
<path d="M870 3375 l0 -15 -45 0 -45 0 0 -15 0 -15 -15 0 -15 0 0 -15 0 -15 -15 0 -15 0 0 -30 0 -30 75 0 75 0 0 15 0 15 60 0 60 0 0 -15 0 -15 -30 0 -30 0 0 -15 0 -15 -15 0 -15 0 0 -15 0 -15 -30 0 -30 0 0 -90 0 -90 15 0 15 0 0 15 0 15 30 0 30 0 0 30 0 30 15 0 15 0 0 15 0 15 30 0 30 0 0 30 0 30 90 0 90 0 0 75 0 75 -15 0 -15 0 0 15 0 15 -30 0 -30 0 0 15 0 15 -15 0 -15 0 0 -15 0 -15 -60 0 -60 0 0 15 0 15 -45 0 -45 0 0 -15z" stroke="#339727" stroke-width="10" />
<path d="M4950 3255 l0 -15 -90 0 -90 0 0 -15 0 -15 -30 0 -30 0 0 -30 0 -30 30 0 30 0 0 15 0 15 120 0 120 0 0 45 0 45 -30 0 -30 0 0 -15z" stroke="#339727" stroke-width="10" />
<path d="M1350 3075 l0 -15 15 0 15 0 0 15 0 15 -15 0 -15 0 0 -15z" stroke="#339727" stroke-width="10" />
<path d="M5100 3030 l0 -60 30 0 30 0 0 60 0 60 -30 0 -30 0 0 -60z" stroke="#339727" stroke-width="10" />
<path d="M4410 2970 l0 -30 15 0 15 0 0 -30 0 -30 15 0 15 0 0 -105 0 -105 15 0 15 0 0 -15 0 -15 15 0 15 0 0 -30 0 -30 15 0 15 0 0 210 0 210 -75 0 -75 0 0 -30z" stroke="#339727" stroke-width="10" />
<path d="M5400 2775 l0 -75 30 0 30 0 0 75 0 75 -30 0 -30 0 0 -75z" stroke="#339727" stroke-width="10" />
<path d="M1050 2805 l0 -15 30 0 30 0 0 -15 0 -15 45 0 45 0 0 -15 0 -15 15 0 15 0 0 -90 0 -90 60 0 60 0 0 -15 0 -15 45 0 45 0 0 15 0 15 15 0 15 0 0 15 0 15 15 0 15 0 0 15 0 15 15 0 15 0 0 60 0 60 -120 0 -120 0 0 15 0 15 -30 0 -30 0 0 30 0 30 -90 0 -90 0 0 -15z" stroke="#339727" stroke-width="10" />
<path d="M660 2610 l0 -60 15 0 15 0 0 -15 0 -15 30 0 30 0 0 75 0 75 -45 0 -45 0 0 -60z" stroke="#339727" stroke-width="10" />
<path d="M4920 2625 l0 -45 45 0 45 0 0 -15 0 -15 120 0 120 0 0 -15 0 -15 30 0 30 0 0 30 0 30 -120 0 -120 0 0 15 0 15 -15 0 -15 0 0 15 0 15 -45 0 -45 0 0 15 0 15 -15 0 -15 0 0 -45z" stroke="#339727" stroke-width="10" />
<path d="M2370 1710 l0 -30 60 0 60 0 0 15 0 15 30 0 30 0 0 15 0 15 -90 0 -90 0 0 -30z" stroke="#339727" stroke-width="10" />
<path d="M4080 1725 l0 -15 -30 0 -30 0 0 -15 0 -15 165 0 165 0 0 15 0 15 -45 0 -45 0 0 15 0 15 -90 0 -90 0 0 -15z" stroke="#339727" stroke-width="10" />
<path d="M1860 1665 l0 -15 15 0 15 0 0 15 0 15 -15 0 -15 0 0 -15z" stroke="#339727" stroke-width="10" />
<path d="M1680 1335 l0 -15 -15 0 -15 0 0 -135 0 -135 15 0 15 0 0 -60 0 -60 15 0 15 0 0 -15 0 -15 30 0 30 0 0 90 0 90 -30 0 -30 0 0 135 0 135 -15 0 -15 0 0 -15z" stroke="#339727" stroke-width="10" />
<path d="M3630 1305 l0 -45 -60 0 -60 0 0 -15 0 -15 90 0 90 0 0 -15 0 -15 15 0 15 0 0 -15 0 -15 15 0 15 0 0 -120 0 -120 45 0 45 0 0 45 0 45 -30 0 -30 0 0 135 0 135 30 0 30 0 0 15 0 15 45 0 45 0 0 15 0 15 -150 0 -150 0 0 -45z" stroke="#339727" stroke-width="10" />
<path d="M4260 1320 l0 -30 15 0 15 0 0 30 0 30 -15 0 -15 0 0 -30z" stroke="#339727" stroke-width="10" />
<path d="M2130 885 l0 -15 150 0 150 0 0 -15 0 -15 15 0 15 0 0 30 0 30 -165 0 -165 0 0 -15z" stroke="#339727" stroke-width="10" />
<path d="M4200 870 l0 -30 30 0 30 0 0 30 0 30 -30 0 -30 0 0 -30z" stroke="#339727" stroke-width="10" />
<path d="M3540 855 l0 -15 15 0 15 0 0 15 0 15 -15 0 -15 0 0 -15z" stroke="#339727" stroke-width="10" />
</g>
<g transform="translate(0.000000,600.000000) scale(0.100000,-0.100000)" fill="#82884d" stroke="none">
<path d="M1710 4995 l0 -15 -15 0 -15 0 0 -15 0 -15 15 0 15 0 0 -15 0 -15 15 0 15 0 0 -15 0 -15 15 0 15 0 0 45 0 45 -15 0 -15 0 0 15 0 15 -15 0 -15 0 0 -15z" stroke="#82884d" stroke-width="10" />
<path d="M2220 4965 l0 -15 -15 0 -15 0 0 -15 0 -15 -15 0 -15 0 0 -15 0 -15 15 0 15 0 0 -15 0 -15 15 0 15 0 0 30 0 30 30 0 30 0 0 15 0 15 -15 0 -15 0 0 15 0 15 -15 0 -15 0 0 -15z" stroke="#82884d" stroke-width="10" />
<path d="M3690 4965 l0 -15 -15 0 -15 0 0 -45 0 -45 15 0 15 0 0 15 0 15 15 0 15 0 0 15 0 15 15 0 15 0 0 15 0 15 -15 0 -15 0 0 15 0 15 -15 0 -15 0 0 -15z" stroke="#82884d" stroke-width="10" />
<path d="M4200 4965 l0 -15 -30 0 -30 0 0 -15 0 -15 30 0 30 0 0 -15 0 -15 15 0 15 0 0 15 0 15 15 0 15 0 0 15 0 15 -15 0 -15 0 0 15 0 15 -15 0 -15 0 0 -15z" stroke="#82884d" stroke-width="10" />
<path d="M4470 4860 l0 -30 60 0 60 0 0 15 0 15 -15 0 -15 0 0 15 0 15 -45 0 -45 0 0 -30z" stroke="#82884d" stroke-width="10" />
<path d="M2190 4815 l0 -15 -30 0 -30 0 0 -15 0 -15 30 0 30 0 0 -15 0 -15 15 0 15 0 0 15 0 15 15 0 15 0 0 15 0 15 -15 0 -15 0 0 15 0 15 -15 0 -15 0 0 -15z" stroke="#82884d" stroke-width="10" />
<path d="M3960 4815 l0 -15 -15 0 -15 0 0 -15 0 -15 30 0 30 0 0 -15 0 -15 15 0 15 0 0 15 0 15 15 0 15 0 0 15 0 15 -15 0 -15 0 0 15 0 15 -30 0 -30 0 0 -15z" stroke="#82884d" stroke-width="10" />
<path d="M3570 4770 l0 -30 30 0 30 0 0 30 0 30 -30 0 -30 0 0 -30z" stroke="#82884d" stroke-width="10" />
<path d="M2010 4755 l0 -15 -15 0 -15 0 0 -15 0 -15 45 0 45 0 0 15 0 15 -15 0 -15 0 0 15 0 15 -15 0 -15 0 0 -15z" stroke="#82884d" stroke-width="10" />
<path d="M4470 4725 l0 -15 -30 0 -30 0 0 -15 0 -15 15 0 15 0 0 -15 0 -15 30 0 30 0 0 15 0 15 15 0 15 0 0 15 0 15 -15 0 -15 0 0 15 0 15 -15 0 -15 0 0 -15z" stroke="#82884d" stroke-width="10" />
<path d="M2370 4665 l0 -15 -30 0 -30 0 0 -30 0 -30 45 0 45 0 0 15 0 15 15 0 15 0 0 15 0 15 -15 0 -15 0 0 15 0 15 -15 0 -15 0 0 -15z" stroke="#82884d" stroke-width="10" />
<path d="M3810 4605 l0 -15 -15 0 -15 0 0 -30 0 -30 15 0 15 0 0 -60 0 -60 -15 0 -15 0 0 -15 0 -15 30 0 30 0 0 60 0 60 15 0 15 0 0 15 0 15 -15 0 -15 0 0 15 0 15 15 0 15 0 0 15 0 15 -15 0 -15 0 0 15 0 15 -15 0 -15 0 0 -15z" stroke="#82884d" stroke-width="10" />
<path d="M1860 4545 l0 -15 -15 0 -15 0 0 -30 0 -30 30 0 30 0 0 15 0 15 15 0 15 0 0 15 0 15 -15 0 -15 0 0 15 0 15 -15 0 -15 0 0 -15z" stroke="#82884d" stroke-width="10" />
<path d="M1650 4485 l0 -15 15 0 15 0 0 -15 0 -15 15 0 15 0 0 -15 0 -15 15 0 15 0 0 45 0 45 -45 0 -45 0 0 -15z" stroke="#82884d" stroke-width="10" />
<path d="M3900 4425 l0 -15 15 0 15 0 0 -15 0 -15 45 0 45 0 0 15 0 15 -15 0 -15 0 0 15 0 15 -45 0 -45 0 0 -15z" stroke="#82884d" stroke-width="10" />
<path d="M1680 4305 l0 -15 -15 0 -15 0 0 -15 0 -15 45 0 45 0 0 30 0 30 -30 0 -30 0 0 -15z" stroke="#82884d" stroke-width="10" />
<path d="M3840 4275 l0 -15 -15 0 -15 0 0 -30 0 -30 30 0 30 0 0 15 0 15 15 0 15 0 0 15 0 15 -15 0 -15 0 0 15 0 15 -15 0 -15 0 0 -15z" stroke="#82884d" stroke-width="10" />
<path d="M4800 3435 l0 -15 -15 0 -15 0 0 -15 0 -15 15 0 15 0 0 -15 0 -15 15 0 15 0 0 15 0 15 15 0 15 0 0 30 0 30 -30 0 -30 0 0 -15z" stroke="#82884d" stroke-width="10" />
<path d="M4920 3435 l0 -15 30 0 30 0 0 -15 0 -15 15 0 15 0 0 15 0 15 15 0 15 0 0 15 0 15 -60 0 -60 0 0 -15z" stroke="#82884d" stroke-width="10" />
<path d="M4620 3405 l0 -15 -30 0 -30 0 0 -15 0 -15 30 0 30 0 0 -15 0 -15 15 0 15 0 0 15 0 15 15 0 15 0 0 15 0 15 -15 0 -15 0 0 15 0 15 -15 0 -15 0 0 -15z" stroke="#82884d" stroke-width="10" />
<path d="M1320 3285 l0 -15 15 0 15 0 0 -15 0 -15 15 0 15 0 0 -15 0 -15 15 0 15 0 0 15 0 15 15 0 15 0 0 15 0 15 -15 0 -15 0 0 15 0 15 -45 0 -45 0 0 -15z" stroke="#82884d" stroke-width="10" />
<path d="M5160 3285 l0 -15 -15 0 -15 0 0 -15 0 -15 15 0 15 0 0 -15 0 -15 15 0 15 0 0 15 0 15 15 0 15 0 0 15 0 15 15 0 15 0 0 15 0 15 -45 0 -45 0 0 -15z" stroke="#82884d" stroke-width="10" />
<path d="M4530 3195 l0 -15 -15 0 -15 0 0 -15 0 -15 -15 0 -15 0 0 -15 0 -15 45 0 45 0 0 15 0 15 15 0 15 0 0 15 0 15 -15 0 -15 0 0 15 0 15 -15 0 -15 0 0 -15z" stroke="#82884d" stroke-width="10" />
<path d="M660 3075 l0 -45 30 0 30 0 0 30 0 30 -15 0 -15 0 0 15 0 15 -15 0 -15 0 0 -45z" stroke="#82884d" stroke-width="10" />
<path d="M1530 3105 l0 -15 -15 0 -15 0 0 -45 0 -45 15 0 15 0 0 15 0 15 15 0 15 0 0 15 0 15 15 0 15 0 0 15 0 15 -15 0 -15 0 0 15 0 15 -15 0 -15 0 0 -15z" stroke="#82884d" stroke-width="10" />
<path d="M5310 3045 l0 -15 -15 0 -15 0 0 -30 0 -30 30 0 30 0 0 15 0 15 15 0 15 0 0 15 0 15 -15 0 -15 0 0 15 0 15 -15 0 -15 0 0 -15z" stroke="#82884d" stroke-width="10" />
<path d="M1140 3000 l0 -30 15 0 15 0 0 -15 0 -15 15 0 15 0 0 15 0 15 15 0 15 0 0 15 0 15 -15 0 -15 0 0 15 0 15 -30 0 -30 0 0 -30z" stroke="#82884d" stroke-width="10" />
<path d="M4740 3015 l0 -15 -30 0 -30 0 0 -15 0 -15 30 0 30 0 0 -15 0 -15 15 0 15 0 0 15 0 15 15 0 15 0 0 15 0 15 -15 0 -15 0 0 15 0 15 -15 0 -15 0 0 -15z" stroke="#82884d" stroke-width="10" />
<path d="M1410 2925 l0 -15 -30 0 -30 0 0 -15 0 -15 30 0 30 0 0 -15 0 -15 15 0 15 0 0 15 0 15 15 0 15 0 0 15 0 15 -15 0 -15 0 0 15 0 15 -15 0 -15 0 0 -15z" stroke="#82884d" stroke-width="10" />
<path d="M780 2865 l0 -15 -15 0 -15 0 0 -15 0 -15 15 0 15 0 0 -15 0 -15 15 0 15 0 0 15 0 15 45 0 45 0 0 15 0 15 -45 0 -45 0 0 15 0 15 -15 0 -15 0 0 -15z" stroke="#82884d" stroke-width="10" />
<path d="M4980 2835 l0 -15 30 0 30 0 0 -15 0 -15 15 0 15 0 0 -15 0 -15 15 0 15 0 0 45 0 45 -60 0 -60 0 0 -15z" stroke="#82884d" stroke-width="10" />
<path d="M5220 2775 l0 -15 -30 0 -30 0 0 -15 0 -15 15 0 15 0 0 -15 0 -15 30 0 30 0 0 15 0 15 15 0 15 0 0 15 0 15 -15 0 -15 0 0 15 0 15 -15 0 -15 0 0 -15z" stroke="#82884d" stroke-width="10" />
<path d="M4740 2745 l0 -15 -30 0 -30 0 0 -15 0 -15 30 0 30 0 0 -15 0 -15 15 0 15 0 0 15 0 15 15 0 15 0 0 15 0 15 -15 0 -15 0 0 15 0 15 -15 0 -15 0 0 -15z" stroke="#82884d" stroke-width="10" />
<path d="M900 2685 l0 -15 -15 0 -15 0 0 -15 0 -15 15 0 15 0 0 -15 0 -15 15 0 15 0 0 15 0 15 30 0 30 0 0 15 0 15 -30 0 -30 0 0 15 0 15 -15 0 -15 0 0 -15z" stroke="#82884d" stroke-width="10" />
<path d="M1020 2610 l0 -30 15 0 15 0 0 -15 0 -15 15 0 15 0 0 15 0 15 15 0 15 0 0 15 0 15 -15 0 -15 0 0 15 0 15 -30 0 -30 0 0 -30z" stroke="#82884d" stroke-width="10" />
<path d="M2160 1635 l0 -45 30 0 30 0 0 15 0 15 15 0 15 0 0 15 0 15 -15 0 -15 0 0 15 0 15 -30 0 -30 0 0 -45z" stroke="#82884d" stroke-width="10" />
<path d="M3420 1620 l0 -30 30 0 30 0 0 30 0 30 -30 0 -30 0 0 -30z" stroke="#82884d" stroke-width="10" />
<path d="M3780 1635 l0 -15 15 0 15 0 0 -15 0 -15 15 0 15 0 0 -15 0 -15 15 0 15 0 0 45 0 45 -45 0 -45 0 0 -15z" stroke="#82884d" stroke-width="10" />
<path d="M1680 1560 l0 -60 15 0 15 0 0 15 0 15 15 0 15 0 0 30 0 30 -15 0 -15 0 0 15 0 15 -15 0 -15 0 0 -60z" stroke="#82884d" stroke-width="10" />
<path d="M2010 1590 l0 -30 15 0 15 0 0 -15 0 -15 15 0 15 0 0 15 0 15 15 0 15 0 0 15 0 15 -15 0 -15 0 0 15 0 15 -30 0 -30 0 0 -30z" stroke="#82884d" stroke-width="10" />
<path d="M2370 1545 l0 -15 -30 0 -30 0 0 -15 0 -15 30 0 30 0 0 -15 0 -15 15 0 15 0 0 15 0 15 15 0 15 0 0 30 0 30 -30 0 -30 0 0 -15z" stroke="#82884d" stroke-width="10" />
<path d="M3600 1530 l0 -30 15 0 15 0 0 -15 0 -15 15 0 15 0 0 15 0 15 15 0 15 0 0 15 0 15 -15 0 -15 0 0 15 0 15 -30 0 -30 0 0 -30z" stroke="#82884d" stroke-width="10" />
<path d="M3990 1545 l0 -15 -30 0 -30 0 0 -30 0 -30 30 0 30 0 0 15 0 15 30 0 30 0 0 15 0 15 -15 0 -15 0 0 15 0 15 -15 0 -15 0 0 -15z" stroke="#82884d" stroke-width="10" />
<path d="M4260 1545 l0 -15 -30 0 -30 0 0 -15 0 -15 30 0 30 0 0 -15 0 -15 15 0 15 0 0 45 0 45 -15 0 -15 0 0 -15z" stroke="#82884d" stroke-width="10" />
<path d="M1860 1515 l0 -15 -45 0 -45 0 0 -15 0 -15 45 0 45 0 0 -15 0 -15 15 0 15 0 0 15 0 15 15 0 15 0 0 15 0 15 -15 0 -15 0 0 15 0 15 -15 0 -15 0 0 -15z" stroke="#82884d" stroke-width="10" />
<path d="M3450 1455 l0 -45 15 0 15 0 0 -15 0 -15 15 0 15 0 0 45 0 45 -15 0 -15 0 0 15 0 15 -15 0 -15 0 0 -45z" stroke="#82884d" stroke-width="10" />
<path d="M2190 1440 l0 -30 -15 0 -15 0 0 -15 0 -15 15 0 15 0 0 -15 0 -15 15 0 15 0 0 15 0 15 15 0 15 0 0 15 0 15 -15 0 -15 0 0 30 0 30 -15 0 -15 0 0 -30z" stroke="#82884d" stroke-width="10" />
<path d="M4080 1395 l0 -15 -15 0 -15 0 0 -30 0 -30 30 0 30 0 0 15 0 15 15 0 15 0 0 30 0 30 -30 0 -30 0 0 -15z" stroke="#82884d" stroke-width="10" />
<path d="M1860 1245 l0 -15 -15 0 -15 0 0 -15 0 -15 30 0 30 0 0 -15 0 -15 15 0 15 0 0 15 0 15 15 0 15 0 0 15 0 15 -15 0 -15 0 0 15 0 15 -30 0 -30 0 0 -15z" stroke="#82884d" stroke-width="10" />
<path d="M2220 1245 l0 -15 -30 0 -30 0 0 -15 0 -15 60 0 60 0 0 15 0 15 15 0 15 0 0 15 0 15 -45 0 -45 0 0 -15z" stroke="#82884d" stroke-width="10" />
<path d="M2460 1245 l0 -15 -15 0 -15 0 0 -30 0 -30 30 0 30 0 0 45 0 45 -15 0 -15 0 0 -15z" stroke="#82884d" stroke-width="10" />
<path d="M3960 1185 l0 -15 -30 0 -30 0 0 -15 0 -15 30 0 30 0 0 -15 0 -15 15 0 15 0 0 15 0 15 15 0 15 0 0 15 0 15 -15 0 -15 0 0 15 0 15 -15 0 -15 0 0 -15z" stroke="#82884d" stroke-width="10" />
<path d="M4110 1125 l0 -45 15 0 15 0 0 15 0 15 30 0 30 0 0 15 0 15 15 0 15 0 0 15 0 15 -60 0 -60 0 0 -45z" stroke="#82884d" stroke-width="10" />
<path d="M2100 1095 l0 -15 -15 0 -15 0 0 -30 0 -30 30 0 30 0 0 15 0 15 15 0 15 0 0 15 0 15 -15 0 -15 0 0 15 0 15 -15 0 -15 0 0 -15z" stroke="#82884d" stroke-width="10" />
<path d="M2280 1080 l0 -30 15 0 15 0 0 -15 0 -15 15 0 15 0 0 15 0 15 15 0 15 0 0 15 0 15 -15 0 -15 0 0 15 0 15 -30 0 -30 0 0 -30z" stroke="#82884d" stroke-width="10" />
<path d="M3540 1065 l0 -45 15 0 15 0 0 -15 0 -15 15 0 15 0 0 15 0 15 15 0 15 0 0 15 0 15 -15 0 -15 0 0 15 0 15 -15 0 -15 0 0 15 0 15 -15 0 -15 0 0 -45z" stroke="#82884d" stroke-width="10" />
<path d="M4260 1095 l0 -15 -15 0 -15 0 0 -15 0 -15 -15 0 -15 0 0 -15 0 -15 45 0 45 0 0 15 0 15 15 0 15 0 0 15 0 15 -15 0 -15 0 0 15 0 15 -15 0 -15 0 0 -15z" stroke="#82884d" stroke-width="10" />
<path d="M1950 1035 l0 -15 -30 0 -30 0 0 -30 0 -30 45 0 45 0 0 45 0 45 -15 0 -15 0 0 -15z" stroke="#82884d" stroke-width="10" />
<path d="M4020 975 l0 -15 -30 0 -30 0 0 -15 0 -15 30 0 30 0 0 -15 0 -15 15 0 15 0 0 15 0 15 15 0 15 0 0 15 0 15 -15 0 -15 0 0 15 0 15 -15 0 -15 0 0 -15z" stroke="#82884d" stroke-width="10" />
<path d="M1920 825 l0 -15 15 0 15 0 0 -30 0 -30 30 0 30 0 0 15 0 15 -15 0 -15 0 0 30 0 30 -30 0 -30 0 0 -15z" stroke="#82884d" stroke-width="10" />
<path d="M3750 780 l0 -30 30 0 30 0 0 15 0 15 15 0 15 0 0 15 0 15 -45 0 -45 0 0 -30z" stroke="#82884d" stroke-width="10" />
<path d="M3930 765 l0 -45 45 0 45 0 0 15 0 15 -15 0 -15 0 0 15 0 15 -15 0 -15 0 0 15 0 15 -15 0 -15 0 0 -45z" stroke="#82884d" stroke-width="10" />
</g>
<g transform="translate(0.000000,600.000000) scale(0.100000,-0.100000)" fill="#00FFFF" stroke="none">
<path d="M3780 1485 l0 -15 15 0 15 0 0 15 0 15 -15 0 -15 0 0 -15z" stroke="#00FFFF" stroke-width="10" />
<path d="M3930 1455 l0 -15 15 0 15 0 0 15 0 15 -15 0 -15 0 0 -15z" stroke="#00FFFF" stroke-width="10" />
<path d="M3570 1425 l0 -15 15 0 15 0 0 15 0 15 -15 0 -15 0 0 -15z" stroke="#00FFFF" stroke-width="10" />
<path d="M3810 1275 l0 -45 45 0 45 0 0 45 0 45 -45 0 -45 0 0 -45z" stroke="#00FFFF" stroke-width="10" />
<path d="M3630 1245 l0 -15 15 0 15 0 0 15 0 15 -15 0 -15 0 0 -15z" stroke="#00FFFF" stroke-width="10" />
<path d="M3570 1125 l0 -15 15 0 15 0 0 15 0 15 -15 0 -15 0 0 -15z" stroke="#00FFFF" stroke-width="10" />
</g>
<g transform="translate(0.000000,600.000000) scale(0.100000,-0.100000)" fill="#00FF00" stroke="none">
<path d="M5130 3255 l0 -15 15 0 15 0 0 15 0 15 -15 0 -15 0 0 -15z" stroke="#00FF00" stroke-width="10" />
<path d="M4770 3165 l0 -15 15 0 15 0 0 15 0 15 -15 0 -15 0 0 -15z" stroke="#00FF00" stroke-width="10" />
<path d="M4710 3075 l0 -15 15 0 15 0 0 15 0 15 -15 0 -15 0 0 -15z" stroke="#00FF00" stroke-width="10" />
<path d="M4710 3015 l0 -15 15 0 15 0 0 15 0 15 -15 0 -15 0 0 -15z" stroke="#00FF00" stroke-width="10" />
<path d="M4890 2985 l0 -45 45 0 45 0 0 45 0 45 -45 0 -45 0 0 -45z" stroke="#00FF00" stroke-width="10" />
<path d="M4680 2805 l0 -15 15 0 15 0 0 15 0 15 -15 0 -15 0 0 -15z" stroke="#00FF00" stroke-width="10" />
</g>
<g transform="translate(0.000000,600.000000) scale(0.100000,-0.100000)" fill="#FF00FF" stroke="none">
<path d="M1800 4815 l0 -15 15 0 15 0 0 15 0 15 -15 0 -15 0 0 -15z" stroke="#FF00FF" stroke-width="10" />
<path d="M2100 4815 l0 -15 15 0 15 0 0 15 0 15 -15 0 -15 0 0 -15z" stroke="#FF00FF" stroke-width="10" />
<path d="M1770 4665 l0 -15 15 0 15 0 0 15 0 15 -15 0 -15 0 0 -15z" stroke="#FF00FF" stroke-width="10" />
<path d="M1980 4635 l0 -45 45 0 45 0 0 45 0 45 -45 0 -45 0 0 -45z" stroke="#FF00FF" stroke-width="10" />
<path d="M1830 4635 l0 -15 15 0 15 0 0 15 0 15 -15 0 -15 0 0 -15z" stroke="#FF00FF" stroke-width="10" />
<path d="M1740 4605 l0 -15 15 0 15 0 0 15 0 15 -15 0 -15 0 0 -15z" stroke="#FF00FF" stroke-width="10" />
</g>
<g transform="translate(0.000000,600.000000) scale(0.100000,-0.100000)" fill="#FFFF00" stroke="none">
<path d="M780 3165 l0 -15 15 0 15 0 0 15 0 15 -15 0 -15 0 0 -15z" stroke="#FFFF00" stroke-width="10" />
<path d="M1230 3165 l0 -15 15 0 15 0 0 15 0 15 -15 0 -15 0 0 -15z" stroke="#FFFF00" stroke-width="10" />
<path d="M1170 3135 l0 -15 15 0 15 0 0 15 0 15 -15 0 -15 0 0 -15z" stroke="#FFFF00" stroke-width="10" />
<path d="M900 3075 l0 -15 15 0 15 0 0 15 0 15 -15 0 -15 0 0 -15z" stroke="#FFFF00" stroke-width="10" />
<path d="M900 3015 l0 -15 15 0 15 0 0 15 0 15 -15 0 -15 0 0 -15z" stroke="#FFFF00" stroke-width="10" />
<path d="M1050 2955 l0 -45 45 0 45 0 0 45 0 45 -45 0 -45 0 0 -45z" stroke="#FFFF00" stroke-width="10" />
</g>
<g transform="translate(0.000000,600.000000) scale(0.100000,-0.100000)" fill="#0000FF" stroke="none">
<path d="M4350 4845 l0 -15 15 0 15 0 0 15 0 15 -15 0 -15 0 0 -15z" stroke="#0000FF" stroke-width="10" />
<path d="M4050 4815 l0 -15 15 0 15 0 0 15 0 15 -15 0 -15 0 0 -15z" stroke="#0000FF" stroke-width="10" />
<path d="M3990 4755 l0 -15 15 0 15 0 0 15 0 15 -15 0 -15 0 0 -15z" stroke="#0000FF" stroke-width="10" />
<path d="M4200 4725 l0 -15 15 0 15 0 0 15 0 15 -15 0 -15 0 0 -15z" stroke="#0000FF" stroke-width="10" />
<path d="M3960 4695 l0 -15 15 0 15 0 0 15 0 15 -15 0 -15 0 0 -15z" stroke="#0000FF" stroke-width="10" />
<path d="M4110 4545 l0 -45 45 0 45 0 0 45 0 45 -45 0 -45 0 0 -45z" stroke="#0000FF" stroke-width="10" />
</g>
<g transform="translate(0.000000,600.000000) scale(0.100000,-0.100000)" fill="#FF0000" stroke="none">
<path d="M2310 1605 l0 -15 15 0 15 0 0 15 0 15 -15 0 -15 0 0 -15z" stroke="#FF0000" stroke-width="10" />
<path d="M1800 1545 l0 -15 15 0 15 0 0 15 0 15 -15 0 -15 0 0 -15z" stroke="#FF0000" stroke-width="10" />
<path d="M1860 1485 l0 -15 15 0 15 0 0 15 0 15 -15 0 -15 0 0 -15z" stroke="#FF0000" stroke-width="10" />
<path d="M2190 1485 l0 -15 15 0 15 0 0 15 0 15 -15 0 -15 0 0 -15z" stroke="#FF0000" stroke-width="10" />
<path d="M2040 1305 l0 -45 45 0 45 0 0 45 0 45 -45 0 -45 0 0 -45z" stroke="#FF0000" stroke-width="10" />
<path d="M1890 1275 l0 -15 15 0 15 0 0 15 0 15 -15 0 -15 0 0 -15z" stroke="#FF0000" stroke-width="10" />
</g>
<g transform="translate(0.000000,600.000000) scale(0.100000,-0.100000)" fill="#FFC700" stroke="none">
<path d="M2010 5025 l0 -15 -15 0 -15 0 0 -30 0 -30 15 0 15 0 0 15 0 15 15 0 15 0 0 -15 0 -15 15 0 15 0 0 45 0 45 -30 0 -30 0 0 -15z" stroke="#FFC700" stroke-width="10" />
<path d="M4080 4905 l0 -45 15 0 15 0 0 15 0 15 15 0 15 0 0 -15 0 -15 15 0 15 0 0 30 0 30 -15 0 -15 0 0 15 0 15 -30 0 -30 0 0 -45z" stroke="#FFC700" stroke-width="10" />
<path d="M1620 4635 l0 -45 30 0 30 0 0 15 0 15 15 0 15 0 0 30 0 30 -15 0 -15 0 0 -15 0 -15 -15 0 -15 0 0 15 0 15 -15 0 -15 0 0 -45z" stroke="#FFC700" stroke-width="10" />
<path d="M4470 4545 l0 -45 45 0 45 0 0 15 0 15 -15 0 -15 0 0 30 0 30 -30 0 -30 0 0 -45z" stroke="#FFC700" stroke-width="10" />
<path d="M4920 3360 l0 -30 15 0 15 0 0 -15 0 -15 30 0 30 0 0 15 0 15 -15 0 -15 0 0 15 0 15 15 0 15 0 0 15 0 15 -45 0 -45 0 0 -30z" stroke="#FFC700" stroke-width="10" />
<path d="M1050 3345 l0 -15 15 0 15 0 0 -30 0 -30 30 0 30 0 0 45 0 45 -45 0 -45 0 0 -15z" stroke="#FFC700" stroke-width="10" />
<path d="M4560 2985 l0 -15 -15 0 -15 0 0 -30 0 -30 15 0 15 0 0 15 0 15 15 0 15 0 0 -15 0 -15 15 0 15 0 0 45 0 45 -30 0 -30 0 0 -15z" stroke="#FFC700" stroke-width="10" />
<path d="M1410 2955 l0 -15 15 0 15 0 0 -15 0 -15 15 0 15 0 0 -15 0 -15 15 0 15 0 0 45 0 45 -45 0 -45 0 0 -15z" stroke="#FFC700" stroke-width="10" />
<path d="M2400 1305 l0 -15 15 0 15 0 0 -15 0 -15 -15 0 -15 0 0 -15 0 -15 30 0 30 0 0 15 0 15 15 0 15 0 0 30 0 30 -45 0 -45 0 0 -15z" stroke="#FFC700" stroke-width="10" />
<path d="M3450 1260 l0 -30 15 0 15 0 0 -15 0 -15 30 0 30 0 0 45 0 45 -15 0 -15 0 0 -15 0 -15 -15 0 -15 0 0 15 0 15 -15 0 -15 0 0 -30z" stroke="#FFC700" stroke-width="10" />
<path d="M4170 1260 l0 -30 30 0 30 0 0 -15 0 -15 15 0 15 0 0 45 0 45 -45 0 -45 0 0 -30z" stroke="#FFC700" stroke-width="10" />
<path d="M2070 975 l0 -15 -30 0 -30 0 0 -30 0 -30 45 0 45 0 0 45 0 45 -15 0 -15 0 0 -15z" stroke="#FFC700" stroke-width="10" />
</g>
<g transform="translate(0.000000,600.000000) scale(0.100000,-0.100000)" fill="#919191" stroke="none">
<path d="M2340 4950 l0 -30 30 0 30 0 0 30 0 30 -30 0 -30 0 0 -30z" stroke="#919191" stroke-width="10" />
<path d="M2430 4635 l0 -15 -15 0 -15 0 0 -30 0 -30 30 0 30 0 0 45 0 45 -15 0 -15 0 0 -15z" stroke="#919191" stroke-width="10" />
<path d="M3780 4515 l0 -15 -15 0 -15 0 0 -30 0 -30 30 0 30 0 0 45 0 45 -15 0 -15 0 0 -15z" stroke="#919191" stroke-width="10" />
<path d="M4410 4185 l0 -15 -15 0 -15 0 0 -15 0 -15 45 0 45 0 0 15 0 15 -15 0 -15 0 0 15 0 15 -15 0 -15 0 0 -15z" stroke="#919191" stroke-width="10" />
<path d="M4560 3330 l0 -30 30 0 30 0 0 30 0 30 -30 0 -30 0 0 -30z" stroke="#919191" stroke-width="10" />
<path d="M5250 2940 l0 -30 15 0 15 0 0 -15 0 -15 15 0 15 0 0 45 0 45 -30 0 -30 0 0 -30z" stroke="#919191" stroke-width="10" />
<path d="M1110 2610 l0 -30 15 0 15 0 0 -15 0 -15 15 0 15 0 0 45 0 45 -30 0 -30 0 0 -30z" stroke="#919191" stroke-width="10" />
<path d="M780 2595 l0 -15 -15 0 -15 0 0 -15 0 -15 45 0 45 0 0 15 0 15 -15 0 -15 0 0 15 0 15 -15 0 -15 0 0 -15z" stroke="#919191" stroke-width="10" />
<path d="M2040 1695 l0 -15 -15 0 -15 0 0 -30 0 -30 30 0 30 0 0 45 0 45 -15 0 -15 0 0 -15z" stroke="#919191" stroke-width="10" />
<path d="M2430 1650 l0 -30 30 0 30 0 0 30 0 30 -30 0 -30 0 0 -30z" stroke="#919191" stroke-width="10" />
<path d="M3900 1665 l0 -15 -15 0 -15 0 0 -30 0 -30 30 0 30 0 0 45 0 45 -15 0 -15 0 0 -15z" stroke="#919191" stroke-width="10" />
<path d="M3480 1605 l0 -45 15 0 15 0 0 30 0 30 15 0 15 0 0 15 0 15 -30 0 -30 0 0 -45z" stroke="#919191" stroke-width="10" />
</g>
<g transform="translate(0.000000,600.000000) scale(0.100000,-0.100000)" fill="#A5C46C" stroke="none">
<path d="M2040 5235 l0 -15 30 0 30 0 0 15 0 15 -30 0 -30 0 0 -15z" stroke="#A5C46C" stroke-width="10" />
<path d="M3870 5055 l0 -15 30 0 30 0 0 15 0 15 -30 0 -30 0 0 -15z" stroke="#A5C46C" stroke-width="10" />
<path d="M4290 4860 l0 -30 15 0 15 0 0 30 0 30 -15 0 -15 0 0 -30z" stroke="#A5C46C" stroke-width="10" />
<path d="M4320 4785 l0 -15 15 0 15 0 0 15 0 15 -15 0 -15 0 0 -15z" stroke="#A5C46C" stroke-width="10" />
<path d="M1710 4680 l0 -30 15 0 15 0 0 30 0 30 -15 0 -15 0 0 -30z" stroke="#A5C46C" stroke-width="10" />
<path d="M1830 4605 l0 -15 15 0 15 0 0 15 0 15 -15 0 -15 0 0 -15z" stroke="#A5C46C" stroke-width="10" />
<path d="M2490 4455 l0 -15 30 0 30 0 0 15 0 15 -30 0 -30 0 0 -15z" stroke="#A5C46C" stroke-width="10" />
<path d="M3660 4455 l0 -15 -15 0 -15 0 0 -15 0 -15 15 0 15 0 0 15 0 15 15 0 15 0 0 15 0 15 -15 0 -15 0 0 -15z" stroke="#A5C46C" stroke-width="10" />
<path d="M1530 4425 l0 -15 15 0 15 0 0 15 0 15 -15 0 -15 0 0 -15z" stroke="#A5C46C" stroke-width="10" />
<path d="M3780 4425 l0 -15 15 0 15 0 0 15 0 15 -15 0 -15 0 0 -15z" stroke="#A5C46C" stroke-width="10" />
<path d="M1590 4395 l0 -15 15 0 15 0 0 15 0 15 -15 0 -15 0 0 -15z" stroke="#A5C46C" stroke-width="10" />
<path d="M3690 4395 l0 -15 15 0 15 0 0 15 0 15 -15 0 -15 0 0 -15z" stroke="#A5C46C" stroke-width="10" />
<path d="M1500 4365 l0 -15 15 0 15 0 0 15 0 15 -15 0 -15 0 0 -15z" stroke="#A5C46C" stroke-width="10" />
<path d="M1590 4305 l0 -15 15 0 15 0 0 15 0 15 -15 0 -15 0 0 -15z" stroke="#A5C46C" stroke-width="10" />
<path d="M3570 4065 l0 -15 30 0 30 0 0 15 0 15 -30 0 -30 0 0 -15z" stroke="#A5C46C" stroke-width="10" />
<path d="M4650 3555 l0 -15 30 0 30 0 0 15 0 15 -30 0 -30 0 0 -15z" stroke="#A5C46C" stroke-width="10" />
<path d="M4830 3525 l0 -15 15 0 15 0 0 15 0 15 -15 0 -15 0 0 -15z" stroke="#A5C46C" stroke-width="10" />
<path d="M4800 3465 l0 -15 15 0 15 0 0 15 0 15 -15 0 -15 0 0 -15z" stroke="#A5C46C" stroke-width="10" />
<path d="M870 3420 l0 -30 -15 0 -15 0 0 -15 0 -15 15 0 15 0 0 15 0 15 15 0 15 0 0 30 0 30 -15 0 -15 0 0 -30z" stroke="#A5C46C" stroke-width="10" />
<path d="M4830 3405 l0 -15 15 0 15 0 0 15 0 15 -15 0 -15 0 0 -15z" stroke="#A5C46C" stroke-width="10" />
<path d="M4890 3315 l0 -15 15 0 15 0 0 15 0 15 -15 0 -15 0 0 -15z" stroke="#A5C46C" stroke-width="10" />
<path d="M780 3225 l0 -15 15 0 15 0 0 15 0 15 -15 0 -15 0 0 -15z" stroke="#A5C46C" stroke-width="10" />
<path d="M5070 3210 l0 -30 15 0 15 0 0 30 0 30 -15 0 -15 0 0 -30z" stroke="#A5C46C" stroke-width="10" />
<path d="M5130 3195 l0 -15 15 0 15 0 0 15 0 15 -15 0 -15 0 0 -15z" stroke="#A5C46C" stroke-width="10" />
<path d="M720 3165 l0 -15 15 0 15 0 0 15 0 15 -15 0 -15 0 0 -15z" stroke="#A5C46C" stroke-width="10" />
<path d="M720 3105 l0 -15 15 0 15 0 0 15 0 15 -15 0 -15 0 0 -15z" stroke="#A5C46C" stroke-width="10" />
<path d="M5430 2715 l0 -15 30 0 30 0 0 15 0 15 -30 0 -30 0 0 -15z" stroke="#A5C46C" stroke-width="10" />
<path d="M510 2535 l0 -15 30 0 30 0 0 15 0 15 -30 0 -30 0 0 -15z" stroke="#A5C46C" stroke-width="10" />
<path d="M1290 2445 l0 -15 30 0 30 0 0 15 0 15 -30 0 -30 0 0 -15z" stroke="#A5C46C" stroke-width="10" />
<path d="M2370 1875 l0 -15 30 0 30 0 0 15 0 15 -30 0 -30 0 0 -15z" stroke="#A5C46C" stroke-width="10" />
<path d="M2130 1815 l0 -15 15 0 15 0 0 15 0 15 -15 0 -15 0 0 -15z" stroke="#A5C46C" stroke-width="10" />
<path d="M3840 1785 l0 -15 30 0 30 0 0 15 0 15 -30 0 -30 0 0 -15z" stroke="#A5C46C" stroke-width="10" />
<path d="M1980 1755 l0 -15 15 0 15 0 0 15 0 15 -15 0 -15 0 0 -15z" stroke="#A5C46C" stroke-width="10" />
<path d="M3300 1755 l0 -15 30 0 30 0 0 15 0 15 -30 0 -30 0 0 -15z" stroke="#A5C46C" stroke-width="10" />
<path d="M2070 1725 l0 -15 30 0 30 0 0 15 0 15 -30 0 -30 0 0 -15z" stroke="#A5C46C" stroke-width="10" />
<path d="M2250 1605 l0 -45 15 0 15 0 0 45 0 45 -15 0 -15 0 0 -45z" stroke="#A5C46C" stroke-width="10" />
<path d="M3450 1335 l0 -15 15 0 15 0 0 15 0 15 -15 0 -15 0 0 -15z" stroke="#A5C46C" stroke-width="10" />
<path d="M3420 1245 l0 -15 15 0 15 0 0 15 0 15 -15 0 -15 0 0 -15z" stroke="#A5C46C" stroke-width="10" />
<path d="M3420 1185 l0 -15 15 0 15 0 0 15 0 15 -15 0 -15 0 0 -15z" stroke="#A5C46C" stroke-width="10" />
<path d="M3570 1185 l0 -15 15 0 15 0 0 15 0 15 -15 0 -15 0 0 -15z" stroke="#A5C46C" stroke-width="10" />
<path d="M3330 1155 l0 -15 15 0 15 0 0 15 0 15 -15 0 -15 0 0 -15z" stroke="#A5C46C" stroke-width="10" />
<path d="M3510 1080 l0 -30 15 0 15 0 0 30 0 30 -15 0 -15 0 0 -30z" stroke="#A5C46C" stroke-width="10" />
<path d="M2400 855 l0 -15 30 0 30 0 0 15 0 15 -30 0 -30 0 0 -15z" stroke="#A5C46C" stroke-width="10" />
</g>
<g transform="translate(0.000000,600.000000) scale(0.100000,-0.100000)" fill="#FFFFFF" stroke="none">
<path d="M1650 5055 l0 -15 15 0 15 0 0 15 0 15 -15 0 -15 0 0 -15z" stroke="#FFFFFF" stroke-width="10" />
<path d="M4560 4905 l0 -15 15 0 15 0 0 15 0 15 -15 0 -15 0 0 -15z" stroke="#FFFFFF" stroke-width="10" />
<path d="M5310 3465 l0 -15 15 0 15 0 0 15 0 15 -15 0 -15 0 0 -15z" stroke="#FFFFFF" stroke-width="10" />
<path d="M1470 3375 l0 -15 15 0 15 0 0 15 0 15 -15 0 -15 0 0 -15z" stroke="#FFFFFF" stroke-width="10" />
<path d="M1680 1725 l0 -15 15 0 15 0 0 15 0 15 -15 0 -15 0 0 -15z" stroke="#FFFFFF" stroke-width="10" />
<path d="M4260 1605 l0 -15 15 0 15 0 0 15 0 15 -15 0 -15 0 0 -15z" stroke="#FFFFFF" stroke-width="10" />
</g>
</g></svg>