<svg xmlns="http://www.w3.org/2000/svg" viewBox="0 0 1414.2135623730949 707.1067811865474"><g transform="translate(0, 353.5533905932737) scale(1.6666666666666665, 0.8333333333333333) rotate(-45)"><g transform="translate(0.000000,600.000000) scale(0.100000,-0.100000)" fill="#157615" stroke="none">
<path d="M0 3000 l0 -3000 3000 0 3000 0 0 3000 0 3000 -3000 0 -3000 0 0 -3000z m1740 2475 l0 -15 15 0 15 0 0 -15 0 -15 30 0 30 0 0 -15 0 -15 15 0 15 0 0 15 0 15 30 0 30 0 0 15 0 15 30 0 30 0 0 -15 0 -15 15 0 15 0 0 -15 0 -15 45 0 45 0 0 15 0 15 120 0 120 0 0 -15 0 -15 15 0 15 0 0 15 0 15 120 0 120 0 0 -15 0 -15 15 0 15 0 0 15 0 15 30 0 30 0 0 -15 0 -15 30 0 30 0 0 15 0 15 60 0 60 0 0 -15 0 -15 75 0 75 0 0 15 0 15 30 0 30 0 0 -15 0 -15 15 0 15 0 0 15 0 15 15 0 15 0 0 15 0 15 45 0 45 0 0 -30 0 -30 15 0 15 0 0 30 0 30 45 0 45 0 0 -15 0 -15 15 0 15 0 0 -15 0 -15 15 0 15 0 0 -15 0 -15 15 0 15 0 0 -15 0 -15 15 0 15 0 0 15 0 15 15 0 15 0 0 15 0 15 15 0 15 0 0 15 0 15 -15 0 -15 0 0 30 0 30 45 0 45 0 0 -15 0 -15 15 0 15 0 0 -30 0 -30 15 0 15 0 0 30 0 30 30 0 30 0 0 -15 0 -15 30 0 30 0 0 -15 0 -15 30 0 30 0 0 15 0 15 30 0 30 0 0 15 0 15 15 0 15 0 0 15 0 15 30 0 30 0 0 -30 0 -30 30 0 30 0 0 -15 0 -15 15 0 15 0 0 15 0 15 45 0 45 0 0 30 0 30 45 0 45 0 0 -45 0 -45 90 0 90 0 0 30 0 30 45 0 45 0 0 -30 0 -30 15 0 15 0 0 15 0 15 15 0 15 0 0 15 0 15 30 0 30 0 0 -15 0 -15 15 0 15 0 0 15 0 15 45 0 45 0 0 -15 0 -15 15 0 15 0 0 15 0 15 30 0 30 0 0 -30 0 -30 45 0 45 0 0 -30 0 -30 -30 0 -30 0 0 -15 0 -15 45 0 45 0 0 -15 0 -15 15 0 15 0 0 -15 0 -15 30 0 30 0 0 -30 0 -30 -15 0 -15 0 0 -15 0 -15 60 0 60 0 0 -60 0 -60 30 0 30 0 0 -15 0 -15 30 0 30 0 0 -15 0 -15 15 0 15 0 0 -15 0 -15 15 0 15 0 0 -30 0 -30 30 0 30 0 0 -30 0 -30 15 0 15 0 0 -45 0 -45 15 0 15 0 0 -15 0 -15 15 0 15 0 0 -30 0 -30 -15 0 -15 0 0 -15 0 -15 30 0 30 0 0 -30 0 -30 -15 0 -15 0 0 -15 0 -15 -30 0 -30 0 0 -45 0 -45 15 0 15 0 0 -15 0 -15 15 0 15 0 0 -45 0 -45 -15 0 -15 0 0 -15 0 -15 15 0 15 0 0 -45 0 -45 -15 0 -15 0 0 -15 0 -15 -15 0 -15 0 0 -15 0 -15 30 0 30 0 0 -30 0 -30 -15 0 -15 0 0 -15 0 -15 -15 0 -15 0 0 -105 0 -105 15 0 15 0 0 -30 0 -30 -15 0 -15 0 0 -30 0 -30 15 0 15 0 0 -30 0 -30 -15 0 -15 0 0 -15 0 -15 15 0 15 0 0 -30 0 -30 -15 0 -15 0 0 -30 0 -30 30 0 30 0 0 -60 0 -60 -15 0 -15 0 0 -30 0 -30 -15 0 -15 0 0 -60 0 -60 15 0 15 0 0 -75 0 -75 15 0 15 0 0 -45 0 -45 -15 0 -15 0 0 -120 0 -120 -15 0 -15 0 0 -45 0 -45 15 0 15 0 0 -60 0 -60 -15 0 -15 0 0 -30 0 -30 15 0 15 0 0 -45 0 -45 -15 0 -15 0 0 -60 0 -60 15 0 15 0 0 -45 0 -45 -15 0 -15 0 0 -45 0 -45 15 0 15 0 0 -30 0 -30 -15 0 -15 0 0 -15 0 -15 15 0 15 0 0 -150 0 -150 -15 0 -15 0 0 -15 0 -15 30 0 30 0 0 -60 0 -60 -15 0 -15 0 0 -75 0 -75 15 0 15 0 0 -30 0 -30 -15 0 -15 0 0 -15 0 -15 15 0 15 0 0 -30 0 -30 -15 0 -15 0 0 -15 0 -15 -15 0 -15 0 0 -15 0 -15 -15 0 -15 0 0 -45 0 -45 -45 0 -45 0 0 -30 0 -30 -30 0 -30 0 0 -15 0 -15 -15 0 -15 0 0 -75 0 -75 -30 0 -30 0 0 -15 0 -15 -60 0 -60 0 0 -15 0 -15 -15 0 -15 0 0 -15 0 -15 -15 0 -15 0 0 -30 0 -30 -15 0 -15 0 0 -15 0 -15 -15 0 -15 0 0 -30 0 -30 -30 0 -30 0 0 -15 0 -15 -15 0 -15 0 0 -15 0 -15 -15 0 -15 0 0 -30 0 -30 -30 0 -30 0 0 45 0 45 -15 0 -15 0 0 -15 0 -15 -15 0 -15 0 0 -15 0 -15 -30 0 -30 0 0 15 0 15 -15 0 -15 0 0 15 0 15 -120 0 -120 0 0 -15 0 -15 -75 0 -75 0 0 -30 0 -30 -30 0 -30 0 0 30 0 30 -30 0 -30 0 0 15 0 15 -15 0 -15 0 0 -30 0 -30 -15 0 -15 0 0 -15 0 -15 -30 0 -30 0 0 30 0 30 -105 0 -105 0 0 15 0 15 -30 0 -30 0 0 -15 0 -15 -15 0 -15 0 0 -15 0 -15 -15 0 -15 0 0 -15 0 -15 -30 0 -30 0 0 30 0 30 -30 0 -30 0 0 15 0 15 -15 0 -15 0 0 -15 0 -15 -15 0 -15 0 0 -30 0 -30 -30 0 -30 0 0 -15 0 -15 -30 0 -30 0 0 30 0 30 -30 0 -30 0 0 15 0 15 -45 0 -45 0 0 15 0 15 -120 0 -120 0 0 -15 0 -15 -15 0 -15 0 0 -15 0 -15 -30 0 -30 0 0 15 0 15 -15 0 -15 0 0 -15 0 -15 -30 0 -30 0 0 30 0 30 -15 0 -15 0 0 -30 0 -30 -60 0 -60 0 0 15 0 15 -15 0 -15 0 0 -15 0 -15 -30 0 -30 0 0 30 0 30 -15 0 -15 0 0 -45 0 -45 -30 0 -30 0 0 30 0 30 -45 0 -45 0 0 15 0 15 -15 0 -15 0 0 -15 0 -15 -45 0 -45 0 0 15 0 15 -30 0 -30 0 0 -15 0 -15 -15 0 -15 0 0 -15 0 -15 -30 0 -30 0 0 15 0 15 -15 0 -15 0 0 -15 0 -15 -30 0 -30 0 0 15 0 15 -15 0 -15 0 0 -15 0 -15 -45 0 -45 0 0 30 0 30 -105 0 -105 0 0 -15 0 -15 -120 0 -120 0 0 -15 0 -15 -30 0 -30 0 0 30 0 30 -75 0 -75 0 0 15 0 15 -30 0 -30 0 0 30 0 30 -30 0 -30 0 0 30 0 30 -15 0 -15 0 0 -15 0 -15 -30 0 -30 0 0 45 0 45 -15 0 -15 0 0 30 0 30 -45 0 -45 0 0 30 0 30 -30 0 -30 0 0 15 0 15 -15 0 -15 0 0 30 0 30 -15 0 -15 0 0 15 0 15 -15 0 -15 0 0 30 0 30 -45 0 -45 0 0 15 0 15 -15 0 -15 0 0 30 0 30 -15 0 -15 0 0 15 0 15 -15 0 -15 0 0 75 0 75 30 0 30 0 0 15 0 15 -15 0 -15 0 0 30 0 30 15 0 15 0 0 75 0 75 -15 0 -15 0 0 15 0 15 -15 0 -15 0 0 45 0 45 -15 0 -15 0 0 30 0 30 30 0 30 0 0 15 0 15 -30 0 -30 0 0 30 0 30 30 0 30 0 0 75 0 75 15 0 15 0 0 60 0 60 -15 0 -15 0 0 30 0 30 15 0 15 0 0 30 0 30 -15 0 -15 0 0 30 0 30 15 0 15 0 0 15 0 15 -15 0 -15 0 0 45 0 45 -15 0 -15 0 0 60 0 60 30 0 30 0 0 15 0 15 -15 0 -15 0 0 60 0 60 15 0 15 0 0 15 0 15 -30 0 -30 0 0 30 0 30 30 0 30 0 0 15 0 15 -15 0 -15 0 0 60 0 60 -15 0 -15 0 0 45 0 45 15 0 15 0 0 60 0 60 15 0 15 0 0 45 0 45 -15 0 -15 0 0 45 0 45 15 0 15 0 0 45 0 45 -30 0 -30 0 0 45 0 45 15 0 15 0 0 45 0 45 15 0 15 0 0 75 0 75 -30 0 -30 0 0 30 0 30 30 0 30 0 0 15 0 15 -15 0 -15 0 0 60 0 60 -15 0 -15 0 0 60 0 60 15 0 15 0 0 30 0 30 -15 0 -15 0 0 30 0 30 30 0 30 0 0 15 0 15 -15 0 -15 0 0 45 0 45 15 0 15 0 0 15 0 15 -15 0 -15 0 0 30 0 30 15 0 15 0 0 15 0 15 -15 0 -15 0 0 105 0 105 -15 0 -15 0 0 30 0 30 30 0 30 0 0 15 0 15 -15 0 -15 0 0 30 0 30 15 0 15 0 0 15 0 15 15 0 15 0 0 30 0 30 30 0 30 0 0 15 0 15 15 0 15 0 0 30 0 30 30 0 30 0 0 15 0 15 15 0 15 0 0 15 0 15 15 0 15 0 0 30 0 30 15 0 15 0 0 30 0 30 30 0 30 0 0 30 0 30 60 0 60 0 0 30 0 30 15 0 15 0 0 30 0 30 30 0 30 0 0 30 0 30 75 0 75 0 0 30 0 30 45 0 45 0 0 -15 0 -15 150 0 150 0 0 30 0 30 30 0 30 0 0 -15z m3810 -1905 l0 -30 -30 0 -30 0 0 30 0 30 30 0 30 0 0 -30z m-5010 -690 l0 -30 -30 0 -30 0 0 30 0 30 30 0 30 0 0 -30z m30 -810 l0 -30 -30 0 -30 0 0 30 0 30 30 0 30 0 0 -30z" stroke="#157615" stroke-width="10" />
</g>
<g transform="translate(0.000000,600.000000) scale(0.100000,-0.100000)" fill="#e4a252" stroke="none">
<path d="M1680 5460 l0 -30 -150 0 -150 0 0 15 0 15 -45 0 -45 0 0 -30 0 -30 -75 0 -75 0 0 -30 0 -30 -30 0 -30 0 0 -30 0 -30 -15 0 -15 0 0 -30 0 -30 -60 0 -60 0 0 -30 0 -30 -30 0 -30 0 0 -30 0 -30 -15 0 -15 0 0 -30 0 -30 -15 0 -15 0 0 -15 0 -15 -15 0 -15 0 0 -15 0 -15 -30 0 -30 0 0 -30 0 -30 -15 0 -15 0 0 -15 0 -15 -30 0 -30 0 0 -30 0 -30 -15 0 -15 0 0 -15 0 -15 -15 0 -15 0 0 -30 0 -30 15 0 15 0 0 -15 0 -15 -30 0 -30 0 0 -30 0 -30 15 0 15 0 0 -105 0 -105 15 0 15 0 0 -15 0 -15 -15 0 -15 0 0 -30 0 -30 15 0 15 0 0 -15 0 -15 -15 0 -15 0 0 -45 0 -45 15 0 15 0 0 -15 0 -15 -30 0 -30 0 0 -30 0 -30 15 0 15 0 0 -30 0 -30 -15 0 -15 0 0 -60 0 -60 15 0 15 0 0 -60 0 -60 15 0 15 0 0 -15 0 -15 -30 0 -30 0 0 -30 0 -30 30 0 30 0 0 -75 0 -75 -15 0 -15 0 0 -45 0 -45 -15 0 -15 0 0 -45 0 -45 30 0 30 0 0 -45 0 -45 -15 0 -15 0 0 -45 0 -45 15 0 15 0 0 -45 0 -45 -15 0 -15 0 0 -60 0 -60 -15 0 -15 0 0 -45 0 -45 15 0 15 0 0 -60 0 -60 15 0 15 0 0 -15 0 -15 -30 0 -30 0 0 -30 0 -30 30 0 30 0 0 -15 0 -15 -15 0 -15 0 0 -60 0 -60 15 0 15 0 0 -15 0 -15 -30 0 -30 0 0 -60 0 -60 15 0 15 0 0 -45 0 -45 15 0 15 0 0 -15 0 -15 -15 0 -15 0 0 -30 0 -30 15 0 15 0 0 -30 0 -30 -15 0 -15 0 0 -30 0 -30 15 0 15 0 0 -60 0 -60 -15 0 -15 0 0 -75 0 -75 -30 0 -30 0 0 -30 0 -30 30 0 30 0 0 -15 0 -15 -30 0 -30 0 0 -30 0 -30 15 0 15 0 0 -45 0 -45 15 0 15 0 0 -15 0 -15 15 0 15 0 0 -75 0 -75 -15 0 -15 0 0 -30 0 -30 15 0 15 0 0 -15 0 -15 -30 0 -30 0 0 -75 0 -75 15 0 15 0 0 -15 0 -15 15 0 15 0 0 -30 0 -30 15 0 15 0 0 -15 0 -15 45 0 45 0 0 -30 0 -30 15 0 15 0 0 -15 0 -15 15 0 15 0 0 -30 0 -30 15 0 15 0 0 -15 0 -15 30 0 30 0 0 -30 0 -30 45 0 45 0 0 -30 0 -30 15 0 15 0 0 -45 0 -45 30 0 30 0 0 15 0 15 15 0 15 0 0 -30 0 -30 30 0 30 0 0 -30 0 -30 30 0 30 0 0 -15 0 -15 75 0 75 0 0 -30 0 -30 30 0 30 0 0 15 0 15 120 0 120 0 0 15 0 15 105 0 105 0 0 -30 0 -30 45 0 45 0 0 15 0 15 15 0 15 0 0 -15 0 -15 30 0 30 0 0 15 0 15 15 0 15 0 0 -15 0 -15 30 0 30 0 0 15 0 15 15 0 15 0 0 15 0 15 30 0 30 0 0 -15 0 -15 45 0 45 0 0 15 0 15 15 0 15 0 0 -15 0 -15 45 0 45 0 0 -30 0 -30 30 0 30 0 0 45 0 45 15 0 15 0 0 -30 0 -30 30 0 30 0 0 15 0 15 15 0 15 0 0 -15 0 -15 60 0 60 0 0 30 0 30 15 0 15 0 0 -30 0 -30 30 0 30 0 0 15 0 15 15 0 15 0 0 -15 0 -15 30 0 30 0 0 15 0 15 15 0 15 0 0 15 0 15 120 0 120 0 0 -15 0 -15 45 0 45 0 0 -15 0 -15 30 0 30 0 0 -30 0 -30 30 0 30 0 0 15 0 15 30 0 30 0 0 30 0 30 15 0 15 0 0 15 0 15 15 0 15 0 0 -15 0 -15 30 0 30 0 0 -30 0 -30 30 0 30 0 0 15 0 15 15 0 15 0 0 15 0 15 15 0 15 0 0 15 0 15 30 0 30 0 0 -15 0 -15 105 0 105 0 0 -30 0 -30 30 0 30 0 0 15 0 15 15 0 15 0 0 30 0 30 15 0 15 0 0 -15 0 -15 30 0 30 0 0 -30 0 -30 30 0 30 0 0 30 0 30 75 0 75 0 0 15 0 15 120 0 120 0 0 -15 0 -15 15 0 15 0 0 -15 0 -15 30 0 30 0 0 15 0 15 15 0 15 0 0 15 0 15 15 0 15 0 0 -45 0 -45 30 0 30 0 0 30 0 30 15 0 15 0 0 15 0 15 15 0 15 0 0 15 0 15 30 0 30 0 0 30 0 30 15 0 15 0 0 15 0 15 15 0 15 0 0 30 0 30 15 0 15 0 0 15 0 15 15 0 15 0 0 15 0 15 60 0 60 0 0 15 0 15 30 0 30 0 0 75 0 75 15 0 15 0 0 15 0 15 30 0 30 0 0 30 0 30 45 0 45 0 0 45 0 45 15 0 15 0 0 15 0 15 15 0 15 0 0 15 0 15 15 0 15 0 0 30 0 30 -15 0 -15 0 0 15 0 15 15 0 15 0 0 30 0 30 -15 0 -15 0 0 75 0 75 15 0 15 0 0 60 0 60 -30 0 -30 0 0 15 0 15 15 0 15 0 0 150 0 150 -15 0 -15 0 0 15 0 15 15 0 15 0 0 30 0 30 -15 0 -15 0 0 45 0 45 15 0 15 0 0 45 0 45 -15 0 -15 0 0 60 0 60 15 0 15 0 0 45 0 45 -15 0 -15 0 0 30 0 30 15 0 15 0 0 60 0 60 -15 0 -15 0 0 45 0 45 15 0 15 0 0 120 0 120 15 0 15 0 0 45 0 45 -15 0 -15 0 0 75 0 75 -15 0 -15 0 0 60 0 60 15 0 15 0 0 30 0 30 15 0 15 0 0 60 0 60 -30 0 -30 0 0 30 0 30 15 0 15 0 0 30 0 30 -15 0 -15 0 0 15 0 15 15 0 15 0 0 30 0 30 -15 0 -15 0 0 30 0 30 15 0 15 0 0 30 0 30 -15 0 -15 0 0 105 0 105 15 0 15 0 0 15 0 15 15 0 15 0 0 30 0 30 -30 0 -30 0 0 15 0 15 15 0 15 0 0 15 0 15 15 0 15 0 0 45 0 45 -15 0 -15 0 0 15 0 15 15 0 15 0 0 45 0 45 -15 0 -15 0 0 15 0 15 -15 0 -15 0 0 45 0 45 30 0 30 0 0 15 0 15 15 0 15 0 0 30 0 30 -30 0 -30 0 0 15 0 15 15 0 15 0 0 30 0 30 -15 0 -15 0 0 15 0 15 -15 0 -15 0 0 45 0 45 -15 0 -15 0 0 30 0 30 -30 0 -30 0 0 30 0 30 -15 0 -15 0 0 15 0 15 -15 0 -15 0 0 15 0 15 -30 0 -30 0 0 15 0 15 -30 0 -30 0 0 60 0 60 -60 0 -60 0 0 15 0 15 15 0 15 0 0 30 0 30 -30 0 -30 0 0 15 0 15 -15 0 -15 0 0 15 0 15 -45 0 -45 0 0 15 0 15 30 0 30 0 0 30 0 30 -45 0 -45 0 0 30 0 30 -30 0 -30 0 0 -15 0 -15 -15 0 -15 0 0 15 0 15 -45 0 -45 0 0 -15 0 -15 -15 0 -15 0 0 15 0 15 -30 0 -30 0 0 -15 0 -15 -15 0 -15 0 0 -15 0 -15 -15 0 -15 0 0 30 0 30 -45 0 -45 0 0 -30 0 -30 -90 0 -90 0 0 45 0 45 -45 0 -45 0 0 -30 0 -30 -45 0 -45 0 0 -15 0 -15 -15 0 -15 0 0 15 0 15 -30 0 -30 0 0 30 0 30 -30 0 -30 0 0 -15 0 -15 -15 0 -15 0 0 -15 0 -15 -30 0 -30 0 0 -15 0 -15 -30 0 -30 0 0 15 0 15 -30 0 -30 0 0 15 0 15 -30 0 -30 0 0 -30 0 -30 -15 0 -15 0 0 30 0 30 -15 0 -15 0 0 15 0 15 -45 0 -45 0 0 -30 0 -30 15 0 15 0 0 -15 0 -15 -15 0 -15 0 0 -15 0 -15 -15 0 -15 0 0 -15 0 -15 -15 0 -15 0 0 15 0 15 -15 0 -15 0 0 15 0 15 -15 0 -15 0 0 15 0 15 -15 0 -15 0 0 15 0 15 -45 0 -45 0 0 -30 0 -30 -15 0 -15 0 0 30 0 30 -45 0 -45 0 0 -15 0 -15 -15 0 -15 0 0 -15 0 -15 -15 0 -15 0 0 15 0 15 -30 0 -30 0 0 -15 0 -15 -75 0 -75 0 0 15 0 15 -60 0 -60 0 0 -15 0 -15 -30 0 -30 0 0 15 0 15 -30 0 -30 0 0 -15 0 -15 -15 0 -15 0 0 15 0 15 -120 0 -120 0 0 -15 0 -15 -15 0 -15 0 0 15 0 15 -120 0 -120 0 0 -15 0 -15 -45 0 -45 0 0 15 0 15 -15 0 -15 0 0 15 0 15 -30 0 -30 0 0 -15 0 -15 -30 0 -30 0 0 -15 0 -15 -15 0 -15 0 0 15 0 15 -30 0 -30 0 0 15 0 15 -15 0 -15 0 0 15 0 15 -30 0 -30 0 0 -30z m690 -825 l0 -15 15 0 15 0 0 15 0 15 15 0 15 0 0 -15 0 -15 15 0 15 0 0 15 0 15 15 0 15 0 0 -15 0 -15 15 0 15 0 0 15 0 15 30 0 30 0 0 -15 0 -15 30 0 30 0 0 -15 0 -15 -15 0 -15 0 0 -15 0 -15 -30 0 -30 0 0 15 0 15 -15 0 -15 0 0 -15 0 -15 -60 0 -60 0 0 15 0 15 -45 0 -45 0 0 15 0 15 15 0 15 0 0 15 0 15 15 0 15 0 0 -15z m30 -135 l0 -60 15 0 15 0 0 -30 0 -30 -30 0 -30 0 0 -15 0 -15 -30 0 -30 0 0 45 0 45 -15 0 -15 0 0 60 0 60 60 0 60 0 0 -60z m210 15 l0 -15 15 0 15 0 0 -15 0 -15 15 0 15 0 0 -15 0 -15 -15 0 -15 0 0 -15 0 -15 -15 0 -15 0 0 -45 0 -45 -15 0 -15 0 0 -30 0 -30 -30 0 -30 0 0 45 0 45 15 0 15 0 0 45 0 45 45 0 45 0 0 15 0 15 -60 0 -60 0 0 30 0 30 45 0 45 0 0 -15z m1380 -165 l0 -60 15 0 15 0 0 45 0 45 30 0 30 0 0 -30 0 -30 15 0 15 0 0 15 0 15 15 0 15 0 0 -15 0 -15 15 0 15 0 0 -15 0 -15 -45 0 -45 0 0 -30 0 -30 30 0 30 0 0 -15 0 -15 30 0 30 0 0 -15 0 -15 -30 0 -30 0 0 -45 0 -45 15 0 15 0 0 -15 0 -15 -15 0 -15 0 0 -15 0 -15 -30 0 -30 0 0 15 0 15 15 0 15 0 0 15 0 15 -15 0 -15 0 0 15 0 15 -15 0 -15 0 0 -30 0 -30 -15 0 -15 0 0 -30 0 -30 -15 0 -15 0 0 45 0 45 -15 0 -15 0 0 -15 0 -15 -30 0 -30 0 0 15 0 15 15 0 15 0 0 15 0 15 15 0 15 0 0 15 0 15 60 0 60 0 0 15 0 15 -15 0 -15 0 0 45 0 45 -75 0 -75 0 0 -15 0 -15 -30 0 -30 0 0 15 0 15 30 0 30 0 0 30 0 30 -30 0 -30 0 0 15 0 15 30 0 30 0 0 -15 0 -15 15 0 15 0 0 30 0 30 15 0 15 0 0 15 0 15 15 0 15 0 0 -60z m-1560 -30 l0 -30 -30 0 -30 0 0 15 0 15 15 0 15 0 0 15 0 15 15 0 15 0 0 -30z m1470 -195 l0 -15 -15 0 -15 0 0 -30 0 -30 -45 0 -45 0 0 15 0 15 15 0 15 0 0 15 0 15 15 0 15 0 0 15 0 15 30 0 30 0 0 -15z m330 0 l0 -15 -15 0 -15 0 0 15 0 15 15 0 15 0 0 -15z m-2760 -825 l0 -60 -60 0 -60 0 0 -15 0 -15 15 0 15 0 0 -15 0 -15 -15 0 -15 0 0 -30 0 -30 30 0 30 0 0 -45 0 -45 -30 0 -30 0 0 -15 0 -15 -15 0 -15 0 0 15 0 15 -15 0 -15 0 0 15 0 15 15 0 15 0 0 15 0 15 -45 0 -45 0 0 15 0 15 15 0 15 0 0 15 0 15 15 0 15 0 0 45 0 45 15 0 15 0 0 15 0 15 -15 0 -15 0 0 15 0 15 15 0 15 0 0 -15 0 -15 30 0 30 0 0 30 0 30 15 0 15 0 0 15 0 15 30 0 30 0 0 -60z m60 15 l0 -15 45 0 45 0 0 -15 0 -15 -30 0 -30 0 0 -45 0 -45 30 0 30 0 0 -15 0 -15 -45 0 -45 0 0 -30 0 -30 30 0 30 0 0 15 0 15 15 0 15 0 0 -15 0 -15 -15 0 -15 0 0 -15 0 -15 15 0 15 0 0 -15 0 -15 -45 0 -45 0 0 15 0 15 -15 0 -15 0 0 135 0 135 15 0 15 0 0 -15z m30 -330 l0 -15 -15 0 -15 0 0 -30 0 -30 -15 0 -15 0 0 45 0 45 30 0 30 0 0 -15z m2850 -180 l0 -15 105 0 105 0 0 -15 0 -15 15 0 15 0 0 -15 0 -15 15 0 15 0 0 -15 0 -15 -15 0 -15 0 0 15 0 15 -15 0 -15 0 0 -75 0 -75 30 0 30 0 0 15 0 15 15 0 15 0 0 -30 0 -30 -15 0 -15 0 0 -15 0 -15 -15 0 -15 0 0 15 0 15 -15 0 -15 0 0 -15 0 -15 -15 0 -15 0 0 -30 0 -30 -15 0 -15 0 0 -15 0 -15 -15 0 -15 0 0 15 0 15 -15 0 -15 0 0 -15 0 -15 -15 0 -15 0 0 15 0 15 -30 0 -30 0 0 15 0 15 -15 0 -15 0 0 15 0 15 -15 0 -15 0 0 15 0 15 15 0 15 0 0 15 0 15 -30 0 -30 0 0 15 0 15 105 0 105 0 0 -15 0 -15 15 0 15 0 0 90 0 90 -15 0 -15 0 0 -15 0 -15 -45 0 -45 0 0 -15 0 -15 -60 0 -60 0 0 15 0 15 30 0 30 0 0 45 0 45 15 0 15 0 0 -15z m300 -150 l0 -15 -30 0 -30 0 0 15 0 15 30 0 30 0 0 -15z m-2820 -690 l0 -45 -15 0 -15 0 0 -60 0 -60 60 0 60 0 0 60 0 60 15 0 15 0 0 -15 0 -15 15 0 15 0 0 -15 0 -15 15 0 15 0 0 -30 0 -30 -15 0 -15 0 0 -30 0 -30 15 0 15 0 0 15 0 15 30 0 30 0 0 -15 0 -15 -15 0 -15 0 0 -15 0 -15 -15 0 -15 0 0 -15 0 -15 -45 0 -45 0 0 -15 0 -15 -30 0 -30 0 0 30 0 30 30 0 30 0 0 30 0 30 -30 0 -30 0 0 -15 0 -15 -15 0 -15 0 0 15 0 15 -15 0 -15 0 0 -30 0 -30 -15 0 -15 0 0 15 0 15 -15 0 -15 0 0 15 0 15 -15 0 -15 0 0 15 0 15 -15 0 -15 0 0 15 0 15 15 0 15 0 0 15 0 15 15 0 15 0 0 45 0 45 -15 0 -15 0 0 15 0 15 15 0 15 0 0 15 0 15 45 0 45 0 0 -45z m1800 -195 l0 -30 -15 0 -15 0 0 -15 0 -15 45 0 45 0 0 15 0 15 15 0 15 0 0 -45 0 -45 15 0 15 0 0 -30 0 -30 15 0 15 0 0 -15 0 -15 -30 0 -30 0 0 -45 0 -45 15 0 15 0 0 -15 0 -15 -15 0 -15 0 0 -15 0 -15 -15 0 -15 0 0 -15 0 -15 -15 0 -15 0 0 15 0 15 -15 0 -15 0 0 15 0 15 15 0 15 0 0 15 0 15 -15 0 -15 0 0 -15 0 -15 -15 0 -15 0 0 -15 0 -15 -15 0 -15 0 0 -15 0 -15 -15 0 -15 0 0 45 0 45 -15 0 -15 0 0 -15 0 -15 -15 0 -15 0 0 -15 0 -15 -15 0 -15 0 0 45 0 45 -15 0 -15 0 0 15 0 15 120 0 120 0 0 15 0 15 -15 0 -15 0 0 30 0 30 15 0 15 0 0 30 0 30 -15 0 -15 0 0 -15 0 -15 -45 0 -45 0 0 15 0 15 -15 0 -15 0 0 -30 0 -30 -60 0 -60 0 0 15 0 15 30 0 30 0 0 45 0 45 15 0 15 0 0 -15 0 -15 15 0 15 0 0 30 0 30 30 0 30 0 0 15 0 15 30 0 30 0 0 -30z" stroke="#e4a252" stroke-width="10" />
<path d="M2340 4485 l0 -45 15 0 15 0 0 45 0 45 -15 0 -15 0 0 -45z" stroke="#e4a252" stroke-width="10" />
<path d="M4410 2520 l0 -30 15 0 15 0 0 30 0 30 -15 0 -15 0 0 -30z" stroke="#e4a252" stroke-width="10" />
<path d="M4500 2520 l0 -30 30 0 30 0 0 15 0 15 -15 0 -15 0 0 15 0 15 -15 0 -15 0 0 -30z" stroke="#e4a252" stroke-width="10" />
<path d="M5490 3570 l0 -30 30 0 30 0 0 30 0 30 -30 0 -30 0 0 -30z" stroke="#e4a252" stroke-width="10" />
<path d="M480 2880 l0 -30 30 0 30 0 0 30 0 30 -30 0 -30 0 0 -30z" stroke="#e4a252" stroke-width="10" />
<path d="M510 2070 l0 -30 30 0 30 0 0 30 0 30 -30 0 -30 0 0 -30z" stroke="#e4a252" stroke-width="10" />
</g>
<g transform="translate(0.000000,600.000000) scale(0.100000,-0.100000)" fill="#82884d" stroke="none">
<path d="M2340 4635 l0 -15 -15 0 -15 0 0 -15 0 -15 45 0 45 0 0 -15 0 -15 60 0 60 0 0 15 0 15 15 0 15 0 0 -15 0 -15 30 0 30 0 0 15 0 15 15 0 15 0 0 15 0 15 -30 0 -30 0 0 15 0 15 -30 0 -30 0 0 -15 0 -15 -15 0 -15 0 0 15 0 15 -15 0 -15 0 0 -15 0 -15 -15 0 -15 0 0 15 0 15 -15 0 -15 0 0 -15 0 -15 -15 0 -15 0 0 15 0 15 -15 0 -15 0 0 -15z" stroke="#82884d" stroke-width="10" />
<path d="M2280 4500 l0 -60 15 0 15 0 0 -45 0 -45 30 0 30 0 0 15 0 15 30 0 30 0 0 30 0 30 -15 0 -15 0 0 60 0 60 -60 0 -60 0 0 -60z m90 -15 l0 -45 -15 0 -15 0 0 45 0 45 15 0 15 0 0 -45z" stroke="#82884d" stroke-width="10" />
<path d="M2520 4500 l0 -30 60 0 60 0 0 -15 0 -15 -45 0 -45 0 0 -45 0 -45 -15 0 -15 0 0 -45 0 -45 30 0 30 0 0 30 0 30 15 0 15 0 0 45 0 45 15 0 15 0 0 15 0 15 15 0 15 0 0 15 0 15 -15 0 -15 0 0 15 0 15 -15 0 -15 0 0 15 0 15 -45 0 -45 0 0 -30z" stroke="#82884d" stroke-width="10" />
<path d="M3960 4395 l0 -15 -15 0 -15 0 0 -30 0 -30 -15 0 -15 0 0 15 0 15 -30 0 -30 0 0 -15 0 -15 30 0 30 0 0 -30 0 -30 -30 0 -30 0 0 -15 0 -15 30 0 30 0 0 15 0 15 75 0 75 0 0 -45 0 -45 15 0 15 0 0 -15 0 -15 -60 0 -60 0 0 -15 0 -15 -15 0 -15 0 0 -15 0 -15 -15 0 -15 0 0 -15 0 -15 30 0 30 0 0 15 0 15 15 0 15 0 0 -45 0 -45 15 0 15 0 0 30 0 30 15 0 15 0 0 30 0 30 15 0 15 0 0 -15 0 -15 15 0 15 0 0 -15 0 -15 -15 0 -15 0 0 -15 0 -15 30 0 30 0 0 15 0 15 15 0 15 0 0 15 0 15 -15 0 -15 0 0 45 0 45 30 0 30 0 0 15 0 15 -30 0 -30 0 0 15 0 15 -30 0 -30 0 0 30 0 30 45 0 45 0 0 15 0 15 -15 0 -15 0 0 15 0 15 -15 0 -15 0 0 -15 0 -15 -15 0 -15 0 0 30 0 30 -30 0 -30 0 0 -45 0 -45 -15 0 -15 0 0 60 0 60 -15 0 -15 0 0 -15z" stroke="#82884d" stroke-width="10" />
<path d="M2400 4335 l0 -15 -15 0 -15 0 0 -15 0 -15 30 0 30 0 0 30 0 30 -15 0 -15 0 0 -15z" stroke="#82884d" stroke-width="10" />
<path d="M3840 4125 l0 -15 -15 0 -15 0 0 -15 0 -15 -15 0 -15 0 0 -15 0 -15 45 0 45 0 0 30 0 30 15 0 15 0 0 15 0 15 -30 0 -30 0 0 -15z" stroke="#82884d" stroke-width="10" />
<path d="M4200 4125 l0 -15 15 0 15 0 0 15 0 15 -15 0 -15 0 0 -15z" stroke="#82884d" stroke-width="10" />
<path d="M1410 3345 l0 -15 -15 0 -15 0 0 -30 0 -30 -30 0 -30 0 0 15 0 15 -15 0 -15 0 0 -15 0 -15 15 0 15 0 0 -15 0 -15 -15 0 -15 0 0 -45 0 -45 -15 0 -15 0 0 -15 0 -15 -15 0 -15 0 0 -15 0 -15 45 0 45 0 0 -15 0 -15 -15 0 -15 0 0 -15 0 -15 15 0 15 0 0 -15 0 -15 15 0 15 0 0 15 0 15 30 0 30 0 0 45 0 45 -30 0 -30 0 0 30 0 30 15 0 15 0 0 15 0 15 -15 0 -15 0 0 15 0 15 60 0 60 0 0 60 0 60 -30 0 -30 0 0 -15z" stroke="#82884d" stroke-width="10" />
<path d="M1500 3195 l0 -135 15 0 15 0 0 -15 0 -15 45 0 45 0 0 15 0 15 -15 0 -15 0 0 15 0 15 15 0 15 0 0 15 0 15 -15 0 -15 0 0 -15 0 -15 -30 0 -30 0 0 30 0 30 45 0 45 0 0 15 0 15 -30 0 -30 0 0 45 0 45 30 0 30 0 0 15 0 15 -45 0 -45 0 0 15 0 15 -15 0 -15 0 0 -135z" stroke="#82884d" stroke-width="10" />
<path d="M1500 2955 l0 -45 15 0 15 0 0 30 0 30 15 0 15 0 0 15 0 15 -30 0 -30 0 0 -45z" stroke="#82884d" stroke-width="10" />
<path d="M4380 2775 l0 -45 -30 0 -30 0 0 -15 0 -15 60 0 60 0 0 15 0 15 45 0 45 0 0 15 0 15 15 0 15 0 0 -90 0 -90 -15 0 -15 0 0 15 0 15 -105 0 -105 0 0 -15 0 -15 30 0 30 0 0 -15 0 -15 -15 0 -15 0 0 -15 0 -15 15 0 15 0 0 -15 0 -15 15 0 15 0 0 -15 0 -15 30 0 30 0 0 -15 0 -15 15 0 15 0 0 15 0 15 15 0 15 0 0 -15 0 -15 15 0 15 0 0 15 0 15 15 0 15 0 0 30 0 30 15 0 15 0 0 15 0 15 15 0 15 0 0 -15 0 -15 15 0 15 0 0 15 0 15 15 0 15 0 0 30 0 30 -15 0 -15 0 0 -15 0 -15 -30 0 -30 0 0 75 0 75 15 0 15 0 0 -15 0 -15 15 0 15 0 0 15 0 15 -15 0 -15 0 0 15 0 15 -15 0 -15 0 0 15 0 15 -105 0 -105 0 0 15 0 15 -15 0 -15 0 0 -45z m60 -255 l0 -30 -15 0 -15 0 0 30 0 30 15 0 15 0 0 -30z m90 15 l0 -15 15 0 15 0 0 -15 0 -15 -30 0 -30 0 0 30 0 30 15 0 15 0 0 -15z" stroke="#82884d" stroke-width="10" />
<path d="M4650 2655 l0 -15 30 0 30 0 0 15 0 15 -30 0 -30 0 0 -15z" stroke="#82884d" stroke-width="10" />
<path d="M1800 1995 l0 -15 -15 0 -15 0 0 -15 0 -15 15 0 15 0 0 -45 0 -45 -15 0 -15 0 0 -15 0 -15 -15 0 -15 0 0 -15 0 -15 15 0 15 0 0 -15 0 -15 15 0 15 0 0 -15 0 -15 15 0 15 0 0 -15 0 -15 15 0 15 0 0 30 0 30 15 0 15 0 0 -15 0 -15 15 0 15 0 0 15 0 15 30 0 30 0 0 -30 0 -30 -30 0 -30 0 0 -30 0 -30 30 0 30 0 0 15 0 15 45 0 45 0 0 15 0 15 15 0 15 0 0 15 0 15 15 0 15 0 0 15 0 15 -30 0 -30 0 0 -15 0 -15 -15 0 -15 0 0 30 0 30 15 0 15 0 0 30 0 30 -15 0 -15 0 0 15 0 15 -15 0 -15 0 0 15 0 15 -15 0 -15 0 0 -60 0 -60 -60 0 -60 0 0 60 0 60 15 0 15 0 0 45 0 45 -45 0 -45 0 0 -15z" stroke="#82884d" stroke-width="10" />
<path d="M3630 1785 l0 -15 -30 0 -30 0 0 -30 0 -30 -15 0 -15 0 0 15 0 15 -15 0 -15 0 0 -45 0 -45 -30 0 -30 0 0 -15 0 -15 60 0 60 0 0 30 0 30 15 0 15 0 0 -15 0 -15 45 0 45 0 0 15 0 15 15 0 15 0 0 -30 0 -30 -15 0 -15 0 0 -30 0 -30 15 0 15 0 0 -15 0 -15 -120 0 -120 0 0 -15 0 -15 15 0 15 0 0 -45 0 -45 15 0 15 0 0 15 0 15 15 0 15 0 0 15 0 15 15 0 15 0 0 -45 0 -45 15 0 15 0 0 15 0 15 15 0 15 0 0 15 0 15 15 0 15 0 0 15 0 15 15 0 15 0 0 -15 0 -15 -15 0 -15 0 0 -15 0 -15 15 0 15 0 0 -15 0 -15 15 0 15 0 0 15 0 15 15 0 15 0 0 15 0 15 15 0 15 0 0 15 0 15 -15 0 -15 0 0 45 0 45 30 0 30 0 0 15 0 15 -15 0 -15 0 0 30 0 30 -15 0 -15 0 0 45 0 45 -15 0 -15 0 0 -15 0 -15 -45 0 -45 0 0 15 0 15 15 0 15 0 0 30 0 30 -30 0 -30 0 0 -15z" stroke="#82884d" stroke-width="10" />
</g>
<g transform="translate(0.000000,600.000000) scale(0.100000,-0.100000)" fill="#FF00FF" stroke="none">
<path d="M1260 3405 l0 -15 15 0 15 0 0 15 0 15 -15 0 -15 0 0 -15z" stroke="#FF00FF" stroke-width="10" />
<path d="M1650 3405 l0 -15 15 0 15 0 0 15 0 15 -15 0 -15 0 0 -15z" stroke="#FF00FF" stroke-width="10" />
<path d="M1230 3345 l0 -15 15 0 15 0 0 15 0 15 -15 0 -15 0 0 -15z" stroke="#FF00FF" stroke-width="10" />
<path d="M1470 3345 l0 -15 15 0 15 0 0 15 0 15 -15 0 -15 0 0 -15z" stroke="#FF00FF" stroke-width="10" />
<path d="M1260 3195 l0 -15 15 0 15 0 0 15 0 15 -15 0 -15 0 0 -15z" stroke="#FF00FF" stroke-width="10" />
<path d="M1410 3165 l0 -45 45 0 45 0 0 45 0 45 -45 0 -45 0 0 -45z" stroke="#FF00FF" stroke-width="10" />
</g>
<g transform="translate(0.000000,600.000000) scale(0.100000,-0.100000)" fill="#00FFFF" stroke="none">
<path d="M4440 2865 l0 -15 15 0 15 0 0 15 0 15 -15 0 -15 0 0 -15z" stroke="#00FFFF" stroke-width="10" />
<path d="M4290 2835 l0 -15 15 0 15 0 0 15 0 15 -15 0 -15 0 0 -15z" stroke="#00FFFF" stroke-width="10" />
<path d="M4740 2835 l0 -15 15 0 15 0 0 15 0 15 -15 0 -15 0 0 -15z" stroke="#00FFFF" stroke-width="10" />
<path d="M4470 2655 l0 -45 45 0 45 0 0 45 0 45 -45 0 -45 0 0 -45z" stroke="#00FFFF" stroke-width="10" />
<path d="M4320 2595 l0 -15 15 0 15 0 0 15 0 15 -15 0 -15 0 0 -15z" stroke="#00FFFF" stroke-width="10" />
<path d="M4230 2505 l0 -15 15 0 15 0 0 15 0 15 -15 0 -15 0 0 -15z" stroke="#00FFFF" stroke-width="10" />
</g>
<g transform="translate(0.000000,600.000000) scale(0.100000,-0.100000)" fill="#FFFF00" stroke="none">
<path d="M1860 2115 l0 -15 15 0 15 0 0 15 0 15 -15 0 -15 0 0 -15z" stroke="#FFFF00" stroke-width="10" />
<path d="M1950 2055 l0 -15 15 0 15 0 0 15 0 15 -15 0 -15 0 0 -15z" stroke="#FFFF00" stroke-width="10" />
<path d="M1620 1935 l0 -15 15 0 15 0 0 15 0 15 -15 0 -15 0 0 -15z" stroke="#FFFF00" stroke-width="10" />
<path d="M1890 1845 l0 -45 45 0 45 0 0 45 0 45 -45 0 -45 0 0 -45z" stroke="#FFFF00" stroke-width="10" />
<path d="M1740 1785 l0 -15 15 0 15 0 0 15 0 15 -15 0 -15 0 0 -15z" stroke="#FFFF00" stroke-width="10" />
<path d="M1710 1725 l0 -15 15 0 15 0 0 15 0 15 -15 0 -15 0 0 -15z" stroke="#FFFF00" stroke-width="10" />
</g>
<g transform="translate(0.000000,600.000000) scale(0.100000,-0.100000)" fill="#00FF00" stroke="none">
<path d="M3810 4485 l0 -15 15 0 15 0 0 15 0 15 -15 0 -15 0 0 -15z" stroke="#00FF00" stroke-width="10" />
<path d="M3930 4395 l0 -15 15 0 15 0 0 15 0 15 -15 0 -15 0 0 -15z" stroke="#00FF00" stroke-width="10" />
<path d="M3990 4395 l0 -15 15 0 15 0 0 15 0 15 -15 0 -15 0 0 -15z" stroke="#00FF00" stroke-width="10" />
<path d="M3780 4335 l0 -15 15 0 15 0 0 15 0 15 -15 0 -15 0 0 -15z" stroke="#00FF00" stroke-width="10" />
<path d="M3960 4185 l0 -45 45 0 45 0 0 45 0 45 -45 0 -45 0 0 -45z" stroke="#00FF00" stroke-width="10" />
<path d="M3780 4185 l0 -15 15 0 15 0 0 15 0 15 -15 0 -15 0 0 -15z" stroke="#00FF00" stroke-width="10" />
</g>
<g transform="translate(0.000000,600.000000) scale(0.100000,-0.100000)" fill="#FF0000" stroke="none">
<path d="M3840 1815 l0 -15 15 0 15 0 0 15 0 15 -15 0 -15 0 0 -15z" stroke="#FF0000" stroke-width="10" />
<path d="M3660 1785 l0 -15 15 0 15 0 0 15 0 15 -15 0 -15 0 0 -15z" stroke="#FF0000" stroke-width="10" />
<path d="M3870 1695 l0 -15 15 0 15 0 0 15 0 15 -15 0 -15 0 0 -15z" stroke="#FF0000" stroke-width="10" />
<path d="M3450 1665 l0 -15 15 0 15 0 0 15 0 15 -15 0 -15 0 0 -15z" stroke="#FF0000" stroke-width="10" />
<path d="M3600 1575 l0 -45 45 0 45 0 0 45 0 45 -45 0 -45 0 0 -45z" stroke="#FF0000" stroke-width="10" />
<path d="M3450 1485 l0 -15 15 0 15 0 0 15 0 15 -15 0 -15 0 0 -15z" stroke="#FF0000" stroke-width="10" />
</g>
<g transform="translate(0.000000,600.000000) scale(0.100000,-0.100000)" fill="#0000FF" stroke="none">
<path d="M2490 4725 l0 -15 15 0 15 0 0 15 0 15 -15 0 -15 0 0 -15z" stroke="#0000FF" stroke-width="10" />
<path d="M2550 4695 l0 -15 15 0 15 0 0 15 0 15 -15 0 -15 0 0 -15z" stroke="#0000FF" stroke-width="10" />
<path d="M2250 4515 l0 -15 15 0 15 0 0 15 0 15 -15 0 -15 0 0 -15z" stroke="#0000FF" stroke-width="10" />
<path d="M2430 4485 l0 -45 45 0 45 0 0 45 0 45 -45 0 -45 0 0 -45z" stroke="#0000FF" stroke-width="10" />
<path d="M2250 4395 l0 -15 15 0 15 0 0 15 0 15 -15 0 -15 0 0 -15z" stroke="#0000FF" stroke-width="10" />
<path d="M2700 4365 l0 -15 15 0 15 0 0 15 0 15 -15 0 -15 0 0 -15z" stroke="#0000FF" stroke-width="10" />
</g>
<g transform="translate(0.000000,600.000000) scale(0.100000,-0.100000)" fill="#FFC700" stroke="none">
<path d="M2040 4725 l0 -15 -15 0 -15 0 0 -15 0 -15 15 0 15 0 0 -15 0 -15 30 0 30 0 0 45 0 45 -30 0 -30 0 0 -15z" stroke="#FFC700" stroke-width="10" />
<path d="M3540 4395 l0 -45 15 0 15 0 0 15 0 15 15 0 15 0 0 -15 0 -15 15 0 15 0 0 45 0 45 -15 0 -15 0 0 -15 0 -15 -15 0 -15 0 0 15 0 15 -15 0 -15 0 0 -45z" stroke="#FFC700" stroke-width="10" />
<path d="M2220 4080 l0 -30 30 0 30 0 0 -15 0 -15 15 0 15 0 0 45 0 45 -45 0 -45 0 0 -30z" stroke="#FFC700" stroke-width="10" />
<path d="M3750 3765 l0 -45 15 0 15 0 0 15 0 15 30 0 30 0 0 30 0 30 -45 0 -45 0 0 -45z" stroke="#FFC700" stroke-width="10" />
<path d="M990 3375 l0 -45 30 0 30 0 0 30 0 30 15 0 15 0 0 15 0 15 -45 0 -45 0 0 -45z" stroke="#FFC700" stroke-width="10" />
<path d="M1830 3375 l0 -45 45 0 45 0 0 30 0 30 -30 0 -30 0 0 15 0 15 -15 0 -15 0 0 -45z" stroke="#FFC700" stroke-width="10" />
<path d="M4890 2865 l0 -45 30 0 30 0 0 30 0 30 15 0 15 0 0 15 0 15 -45 0 -45 0 0 -45z" stroke="#FFC700" stroke-width="10" />
<path d="M4260 2235 l0 -45 30 0 30 0 0 30 0 30 15 0 15 0 0 15 0 15 -45 0 -45 0 0 -45z" stroke="#FFC700" stroke-width="10" />
<path d="M2340 2085 l0 -15 -15 0 -15 0 0 -15 0 -15 15 0 15 0 0 -15 0 -15 30 0 30 0 0 45 0 45 -30 0 -30 0 0 -15z" stroke="#FFC700" stroke-width="10" />
<path d="M4050 1815 l0 -15 -15 0 -15 0 0 -30 0 -30 15 0 15 0 0 15 0 15 15 0 15 0 0 -15 0 -15 15 0 15 0 0 45 0 45 -30 0 -30 0 0 -15z" stroke="#FFC700" stroke-width="10" />
<path d="M1680 1425 l0 -45 30 0 30 0 0 15 0 15 15 0 15 0 0 30 0 30 -15 0 -15 0 0 -15 0 -15 -15 0 -15 0 0 15 0 15 -15 0 -15 0 0 -45z" stroke="#FFC700" stroke-width="10" />
<path d="M3390 1170 l0 -30 15 0 15 0 0 -15 0 -15 30 0 30 0 0 30 0 30 -15 0 -15 0 0 15 0 15 -30 0 -30 0 0 -30z" stroke="#FFC700" stroke-width="10" />
</g>
<g transform="translate(0.000000,600.000000) scale(0.100000,-0.100000)" fill="#919191" stroke="none">
<path d="M2850 4710 l0 -30 45 0 45 0 0 15 0 15 -15 0 -15 0 0 15 0 15 -30 0 -30 0 0 -30z" stroke="#919191" stroke-width="10" />
<path d="M4380 4380 l0 -30 45 0 45 0 0 15 0 15 -15 0 -15 0 0 15 0 15 -30 0 -30 0 0 -30z" stroke="#919191" stroke-width="10" />
<path d="M2910 4260 l0 -30 30 0 30 0 0 30 0 30 -30 0 -30 0 0 -30z" stroke="#919191" stroke-width="10" />
<path d="M4440 3960 l0 -30 30 0 30 0 0 30 0 30 -30 0 -30 0 0 -30z" stroke="#919191" stroke-width="10" />
<path d="M1650 3750 l0 -30 30 0 30 0 0 30 0 30 -30 0 -30 0 0 -30z" stroke="#919191" stroke-width="10" />
<path d="M4260 3090 l0 -30 30 0 30 0 0 15 0 15 15 0 15 0 0 15 0 15 -45 0 -45 0 0 -30z" stroke="#919191" stroke-width="10" />
<path d="M990 2805 l0 -15 15 0 15 0 0 -15 0 -15 30 0 30 0 0 30 0 30 -45 0 -45 0 0 -15z" stroke="#919191" stroke-width="10" />
<path d="M4980 2475 l0 -15 -15 0 -15 0 0 -15 0 -15 30 0 30 0 0 15 0 15 15 0 15 0 0 15 0 15 -30 0 -30 0 0 -15z" stroke="#919191" stroke-width="10" />
<path d="M1500 2070 l0 -30 15 0 15 0 0 -15 0 -15 15 0 15 0 0 45 0 45 -30 0 -30 0 0 -30z" stroke="#919191" stroke-width="10" />
<path d="M3210 1800 l0 -30 15 0 15 0 0 -15 0 -15 15 0 15 0 0 45 0 45 -30 0 -30 0 0 -30z" stroke="#919191" stroke-width="10" />
<path d="M4140 1380 l0 -30 30 0 30 0 0 30 0 30 -30 0 -30 0 0 -30z" stroke="#919191" stroke-width="10" />
<path d="M2130 1335 l0 -45 15 0 15 0 0 30 0 30 15 0 15 0 0 15 0 15 -30 0 -30 0 0 -45z" stroke="#919191" stroke-width="10" />
</g>
<g transform="translate(0.000000,600.000000) scale(0.100000,-0.100000)" fill="#A5C46C" stroke="none">
<path d="M2880 4995 l0 -15 30 0 30 0 0 15 0 15 -30 0 -30 0 0 -15z" stroke="#A5C46C" stroke-width="10" />
<path d="M3840 4755 l0 -15 30 0 30 0 0 15 0 15 -30 0 -30 0 0 -15z" stroke="#A5C46C" stroke-width="10" />
<path d="M2010 4635 l0 -15 15 0 15 0 0 15 0 15 -15 0 -15 0 0 -15z" stroke="#A5C46C" stroke-width="10" />
<path d="M4440 4545 l0 -15 30 0 30 0 0 15 0 15 -30 0 -30 0 0 -15z" stroke="#A5C46C" stroke-width="10" />
<path d="M3750 4485 l0 -15 15 0 15 0 0 15 0 15 -15 0 -15 0 0 -15z" stroke="#A5C46C" stroke-width="10" />
<path d="M1830 4425 l0 -15 15 0 15 0 0 15 0 15 -15 0 -15 0 0 -15z" stroke="#A5C46C" stroke-width="10" />
<path d="M3570 4425 l0 -15 15 0 15 0 0 15 0 15 -15 0 -15 0 0 -15z" stroke="#A5C46C" stroke-width="10" />
<path d="M3810 4425 l0 -15 15 0 15 0 0 15 0 15 -15 0 -15 0 0 -15z" stroke="#A5C46C" stroke-width="10" />
<path d="M3870 4425 l0 -15 15 0 15 0 0 15 0 15 -15 0 -15 0 0 -15z" stroke="#A5C46C" stroke-width="10" />
<path d="M2760 4365 l0 -15 15 0 15 0 0 15 0 15 -15 0 -15 0 0 -15z" stroke="#A5C46C" stroke-width="10" />
<path d="M1920 4335 l0 -15 15 0 15 0 0 15 0 15 -15 0 -15 0 0 -15z" stroke="#A5C46C" stroke-width="10" />
<path d="M1980 4305 l0 -15 15 0 15 0 0 15 0 15 -15 0 -15 0 0 -15z" stroke="#A5C46C" stroke-width="10" />
<path d="M2640 4305 l0 -15 15 0 15 0 0 15 0 15 -15 0 -15 0 0 -15z" stroke="#A5C46C" stroke-width="10" />
<path d="M2760 4305 l0 -15 15 0 15 0 0 15 0 15 -15 0 -15 0 0 -15z" stroke="#A5C46C" stroke-width="10" />
<path d="M1890 4245 l0 -15 15 0 15 0 0 15 0 15 -15 0 -15 0 0 -15z" stroke="#A5C46C" stroke-width="10" />
<path d="M1950 4185 l0 -15 30 0 30 0 0 15 0 15 -30 0 -30 0 0 -15z" stroke="#A5C46C" stroke-width="10" />
<path d="M2880 4095 l0 -15 15 0 15 0 0 15 0 15 -15 0 -15 0 0 -15z" stroke="#A5C46C" stroke-width="10" />
<path d="M4500 3945 l0 -15 30 0 30 0 0 15 0 15 -30 0 -30 0 0 -15z" stroke="#A5C46C" stroke-width="10" />
<path d="M4530 3885 l0 -15 15 0 15 0 0 15 0 15 -15 0 -15 0 0 -15z" stroke="#A5C46C" stroke-width="10" />
<path d="M4410 3855 l0 -15 15 0 15 0 0 15 0 15 -15 0 -15 0 0 -15z" stroke="#A5C46C" stroke-width="10" />
<path d="M3900 3765 l0 -15 15 0 15 0 0 15 0 15 -15 0 -15 0 0 -15z" stroke="#A5C46C" stroke-width="10" />
<path d="M1350 3735 l0 -15 30 0 30 0 0 15 0 15 -30 0 -30 0 0 -15z" stroke="#A5C46C" stroke-width="10" />
<path d="M1470 3615 l0 -15 15 0 15 0 0 15 0 15 -15 0 -15 0 0 -15z" stroke="#A5C46C" stroke-width="10" />
<path d="M1680 3465 l0 -15 15 0 15 0 0 -15 0 -15 15 0 15 0 0 15 0 15 -15 0 -15 0 0 15 0 15 -15 0 -15 0 0 -15z" stroke="#A5C46C" stroke-width="10" />
<path d="M870 3375 l0 -15 -15 0 -15 0 0 -15 0 -15 -15 0 -15 0 0 -15 0 -15 15 0 15 0 0 15 0 15 15 0 15 0 0 -15 0 -15 15 0 15 0 0 15 0 15 -15 0 -15 0 0 15 0 15 15 0 15 0 0 15 0 15 -15 0 -15 0 0 -15z" stroke="#A5C46C" stroke-width="10" />
<path d="M1590 3375 l0 -15 15 0 15 0 0 15 0 15 -15 0 -15 0 0 -15z" stroke="#A5C46C" stroke-width="10" />
<path d="M4620 3255 l0 -15 15 0 15 0 0 15 0 15 -15 0 -15 0 0 -15z" stroke="#A5C46C" stroke-width="10" />
<path d="M4650 3195 l0 -15 15 0 15 0 0 15 0 15 -15 0 -15 0 0 -15z" stroke="#A5C46C" stroke-width="10" />
<path d="M4470 3165 l0 -15 30 0 30 0 0 15 0 15 -30 0 -30 0 0 -15z" stroke="#A5C46C" stroke-width="10" />
<path d="M4560 3135 l0 -15 15 0 15 0 0 15 0 15 -15 0 -15 0 0 -15z" stroke="#A5C46C" stroke-width="10" />
<path d="M870 3105 l0 -15 30 0 30 0 0 15 0 15 -30 0 -30 0 0 -15z" stroke="#A5C46C" stroke-width="10" />
<path d="M4650 3105 l0 -15 15 0 15 0 0 15 0 15 -15 0 -15 0 0 -15z" stroke="#A5C46C" stroke-width="10" />
<path d="M3930 3045 l0 -15 30 0 30 0 0 15 0 15 -30 0 -30 0 0 -15z" stroke="#A5C46C" stroke-width="10" />
<path d="M960 2925 l0 -15 15 0 15 0 0 15 0 15 -15 0 -15 0 0 -15z" stroke="#A5C46C" stroke-width="10" />
<path d="M4080 2925 l0 -15 15 0 15 0 0 15 0 15 -15 0 -15 0 0 -15z" stroke="#A5C46C" stroke-width="10" />
<path d="M4800 2880 l0 -30 15 0 15 0 0 30 0 30 -15 0 -15 0 0 -30z" stroke="#A5C46C" stroke-width="10" />
<path d="M4680 2805 l0 -15 15 0 15 0 0 15 0 15 -15 0 -15 0 0 -15z" stroke="#A5C46C" stroke-width="10" />
<path d="M1950 2355 l0 -15 15 0 15 0 0 15 0 15 -15 0 -15 0 0 -15z" stroke="#A5C46C" stroke-width="10" />
<path d="M1890 2310 l0 -30 15 0 15 0 0 30 0 30 -15 0 -15 0 0 -30z" stroke="#A5C46C" stroke-width="10" />
<path d="M2100 2325 l0 -15 15 0 15 0 0 15 0 15 -15 0 -15 0 0 -15z" stroke="#A5C46C" stroke-width="10" />
<path d="M2040 2295 l0 -15 15 0 15 0 0 15 0 15 -15 0 -15 0 0 -15z" stroke="#A5C46C" stroke-width="10" />
<path d="M4050 2295 l0 -15 15 0 15 0 0 15 0 15 -15 0 -15 0 0 -15z" stroke="#A5C46C" stroke-width="10" />
<path d="M3390 2235 l0 -15 15 0 15 0 0 15 0 15 -15 0 -15 0 0 -15z" stroke="#A5C46C" stroke-width="10" />
<path d="M3300 2175 l0 -15 15 0 15 0 0 15 0 15 -15 0 -15 0 0 -15z" stroke="#A5C46C" stroke-width="10" />
<path d="M3300 2115 l0 -15 15 0 15 0 0 15 0 15 -15 0 -15 0 0 -15z" stroke="#A5C46C" stroke-width="10" />
<path d="M3240 2085 l0 -15 15 0 15 0 0 15 0 15 -15 0 -15 0 0 -15z" stroke="#A5C46C" stroke-width="10" />
<path d="M3900 2025 l0 -15 15 0 15 0 0 15 0 15 -15 0 -15 0 0 -15z" stroke="#A5C46C" stroke-width="10" />
<path d="M1410 1995 l0 -15 30 0 30 0 0 15 0 15 -30 0 -30 0 0 -15z" stroke="#A5C46C" stroke-width="10" />
<path d="M1620 1995 l0 -15 15 0 15 0 0 15 0 15 -15 0 -15 0 0 -15z" stroke="#A5C46C" stroke-width="10" />
<path d="M3240 1995 l0 -15 15 0 15 0 0 15 0 15 -15 0 -15 0 0 -15z" stroke="#A5C46C" stroke-width="10" />
<path d="M1560 1935 l0 -15 15 0 15 0 0 15 0 15 -15 0 -15 0 0 -15z" stroke="#A5C46C" stroke-width="10" />
<path d="M1500 1875 l0 -15 15 0 15 0 0 15 0 15 -15 0 -15 0 0 -15z" stroke="#A5C46C" stroke-width="10" />
<path d="M1620 1875 l0 -15 15 0 15 0 0 15 0 15 -15 0 -15 0 0 -15z" stroke="#A5C46C" stroke-width="10" />
<path d="M3810 1695 l0 -45 15 0 15 0 0 45 0 45 -15 0 -15 0 0 -45z" stroke="#A5C46C" stroke-width="10" />
<path d="M3120 1425 l0 -15 30 0 30 0 0 15 0 15 -30 0 -30 0 0 -15z" stroke="#A5C46C" stroke-width="10" />
<path d="M2220 1395 l0 -15 30 0 30 0 0 15 0 15 -30 0 -30 0 0 -15z" stroke="#A5C46C" stroke-width="10" />
<path d="M3810 1125 l0 -15 30 0 30 0 0 15 0 15 -30 0 -30 0 0 -15z" stroke="#A5C46C" stroke-width="10" />
</g>
<g transform="translate(0.000000,600.000000) scale(0.100000,-0.100000)" fill="#FFFFFF" stroke="none">
<path d="M870 4845 l0 -15 15 0 15 0 0 15 0 15 -15 0 -15 0 0 -15z" stroke="#FFFFFF" stroke-width="10" />
<path d="M5130 3945 l0 -15 15 0 15 0 0 15 0 15 -15 0 -15 0 0 -15z" stroke="#FFFFFF" stroke-width="10" />
<path d="M2730 3015 l0 -15 15 0 15 0 0 15 0 15 -15 0 -15 0 0 -15z" stroke="#FFFFFF" stroke-width="10" />
<path d="M780 1935 l0 -15 15 0 15 0 0 15 0 15 -15 0 -15 0 0 -15z" stroke="#FFFFFF" stroke-width="10" />
<path d="M2820 615 l0 -15 15 0 15 0 0 15 0 15 -15 0 -15 0 0 -15z" stroke="#FFFFFF" stroke-width="10" />
</g>
</g></svg>