<svg xmlns="http://www.w3.org/2000/svg" viewBox="0 0 1414.2135623730949 707.1067811865474"><g transform="translate(0, 353.5533905932737) scale(1.6666666666666665, 0.8333333333333333) rotate(-45)"><g transform="translate(0.000000,600.000000) scale(0.100000,-0.100000)" fill="#157615" stroke="none">
<path d="M0 3000 l0 -3000 3000 0 3000 0 0 3000 0 3000 -3000 0 -3000 0 0 -3000z m3480 1665 l0 -15 225 0 225 0 0 -30 0 -30 15 0 15 0 0 -15 0 -15 45 0 45 0 0 -30 0 -30 15 0 15 0 0 -15 0 -15 15 0 15 0 0 -30 0 -30 15 0 15 0 0 -15 0 -15 15 0 15 0 0 -30 0 -30 15 0 15 0 0 -15 0 -15 15 0 15 0 0 -15 0 -15 60 0 60 0 0 -60 0 -60 30 0 30 0 0 -30 0 -30 30 0 30 0 0 -30 0 -30 45 0 45 0 0 -45 0 -45 30 0 30 0 0 -15 0 -15 30 0 30 0 0 -135 0 -135 15 0 15 0 0 -150 0 -150 15 0 15 0 0 -150 0 -150 -15 0 -15 0 0 -345 0 -345 -15 0 -15 0 0 -105 0 -105 -15 0 -15 0 0 -30 0 -30 -15 0 -15 0 0 -15 0 -15 -30 0 -30 0 0 -15 0 -15 -15 0 -15 0 0 -45 0 -45 -45 0 -45 0 0 -30 0 -30 -15 0 -15 0 0 -15 0 -15 -15 0 -15 0 0 -15 0 -15 -15 0 -15 0 0 -15 0 -15 -15 0 -15 0 0 -15 0 -15 -15 0 -15 0 0 -15 0 -15 -15 0 -15 0 0 -15 0 -15 -15 0 -15 0 0 -15 0 -15 -15 0 -15 0 0 -15 0 -15 -30 0 -30 0 0 -75 0 -75 -60 0 -60 0 0 -15 0 -15 -15 0 -15 0 0 -15 0 -15 -15 0 -15 0 0 -30 0 -30 -30 0 -30 0 0 -15 0 -15 -15 0 -15 0 0 -15 0 -15 -180 0 -180 0 0 -15 0 -15 -315 0 -315 0 0 15 0 15 -255 0 -255 0 0 15 0 15 -120 0 -120 0 0 15 0 15 -15 0 -15 0 0 30 0 30 -30 0 -30 0 0 15 0 15 -15 0 -15 0 0 15 0 15 -15 0 -15 0 0 30 0 30 -15 0 -15 0 0 15 0 15 -30 0 -30 0 0 30 0 30 -30 0 -30 0 0 15 0 15 -15 0 -15 0 0 30 0 30 -30 0 -30 0 0 30 0 30 -45 0 -45 0 0 15 0 15 -15 0 -15 0 0 15 0 15 -30 0 -30 0 0 30 0 30 -30 0 -30 0 0 15 0 15 -15 0 -15 0 0 30 0 30 -15 0 -15 0 0 15 0 15 -15 0 -15 0 0 15 0 15 -15 0 -15 0 0 30 0 30 -15 0 -15 0 0 180 0 180 -15 0 -15 0 0 465 0 465 15 0 15 0 0 45 0 45 -15 0 -15 0 0 195 0 195 15 0 15 0 0 15 0 15 45 0 45 0 0 45 0 45 30 0 30 0 0 30 0 30 30 0 30 0 0 15 0 15 30 0 30 0 0 30 0 30 15 0 15 0 0 30 0 30 30 0 30 0 0 15 0 15 15 0 15 0 0 30 0 30 45 0 45 0 0 60 0 60 30 0 30 0 0 15 0 15 15 0 15 0 0 30 0 30 30 0 30 0 0 15 0 15 30 0 30 0 0 15 0 15 15 0 15 0 0 15 0 15 30 0 30 0 0 30 0 30 30 0 30 0 0 15 0 15 645 0 645 0 0 -15z" stroke="#157615" stroke-width="10" />
<path d="M2400 4365 l0 -15 -15 0 -15 0 0 -60 0 -60 45 0 45 0 0 30 0 30 30 0 30 0 0 15 0 15 -45 0 -45 0 0 30 0 30 -15 0 -15 0 0 -15z" stroke="#157615" stroke-width="10" />
<path d="M3750 4335 l0 -15 30 0 30 0 0 -30 0 -30 15 0 15 0 0 45 0 45 -45 0 -45 0 0 -15z" stroke="#157615" stroke-width="10" />
<path d="M3870 4290 l0 -30 30 0 30 0 0 15 0 15 -15 0 -15 0 0 15 0 15 -15 0 -15 0 0 -30z" stroke="#157615" stroke-width="10" />
<path d="M2100 4260 l0 -30 -45 0 -45 0 0 -45 0 -45 15 0 15 0 0 -15 0 -15 15 0 15 0 0 15 0 15 30 0 30 0 0 15 0 15 15 0 15 0 0 60 0 60 -30 0 -30 0 0 -30z" stroke="#157615" stroke-width="10" />
<path d="M2310 4260 l0 -30 15 0 15 0 0 30 0 30 -15 0 -15 0 0 -30z" stroke="#157615" stroke-width="10" />
<path d="M3750 4245 l0 -15 15 0 15 0 0 15 0 15 -15 0 -15 0 0 -15z" stroke="#157615" stroke-width="10" />
<path d="M3810 4110 l0 -30 -30 0 -30 0 0 -15 0 -15 30 0 30 0 0 -30 0 -30 15 0 15 0 0 -15 0 -15 15 0 15 0 0 15 0 15 15 0 15 0 0 15 0 15 30 0 30 0 0 15 0 15 -30 0 -30 0 0 45 0 45 -45 0 -45 0 0 -30z" stroke="#157615" stroke-width="10" />
<path d="M2190 3975 l0 -15 -30 0 -30 0 0 -15 0 -15 -15 0 -15 0 0 -15 0 -15 15 0 15 0 0 -30 0 -30 30 0 30 0 0 15 0 15 30 0 30 0 0 -15 0 -15 15 0 15 0 0 75 0 75 -45 0 -45 0 0 -15z" stroke="#157615" stroke-width="10" />
<path d="M3360 3975 l0 -15 -15 0 -15 0 0 -45 0 -45 15 0 15 0 0 -15 0 -15 45 0 45 0 0 30 0 30 15 0 15 0 0 15 0 15 15 0 15 0 0 15 0 15 -15 0 -15 0 0 15 0 15 -60 0 -60 0 0 -15z" stroke="#157615" stroke-width="10" />
<path d="M1800 3930 l0 -30 -30 0 -30 0 0 -15 0 -15 -15 0 -15 0 0 -15 0 -15 -15 0 -15 0 0 -15 0 -15 45 0 45 0 0 15 0 15 30 0 30 0 0 15 0 15 15 0 15 0 0 15 0 15 30 0 30 0 0 15 0 15 -15 0 -15 0 0 15 0 15 -45 0 -45 0 0 -30z" stroke="#157615" stroke-width="10" />
<path d="M2520 3930 l0 -30 -15 0 -15 0 0 -15 0 -15 -15 0 -15 0 0 -15 0 -15 -15 0 -15 0 0 -30 0 -30 15 0 15 0 0 -15 0 -15 45 0 45 0 0 15 0 15 15 0 15 0 0 15 0 15 -15 0 -15 0 0 30 0 30 15 0 15 0 0 15 0 15 -15 0 -15 0 0 30 0 30 -15 0 -15 0 0 -30z" stroke="#157615" stroke-width="10" />
<path d="M2970 3795 l0 -45 60 0 60 0 0 15 0 15 15 0 15 0 0 15 0 15 -15 0 -15 0 0 15 0 15 -15 0 -15 0 0 -15 0 -15 -30 0 -30 0 0 15 0 15 -15 0 -15 0 0 -45z" stroke="#157615" stroke-width="10" />
<path d="M2970 3705 l0 -15 15 0 15 0 0 -15 0 -15 15 0 15 0 0 15 0 15 -15 0 -15 0 0 15 0 15 -15 0 -15 0 0 -15z" stroke="#157615" stroke-width="10" />
<path d="M2670 3645 l0 -15 -30 0 -30 0 0 -15 0 -15 30 0 30 0 0 -15 0 -15 -15 0 -15 0 0 -15 0 -15 45 0 45 0 0 -15 0 -15 30 0 30 0 0 30 0 30 30 0 30 0 0 15 0 15 -30 0 -30 0 0 15 0 15 -45 0 -45 0 0 15 0 15 -15 0 -15 0 0 -15z" stroke="#157615" stroke-width="10" />
<path d="M3480 3645 l0 -15 -15 0 -15 0 0 -15 0 -15 -30 0 -30 0 0 -15 0 -15 -15 0 -15 0 0 -30 0 -30 -15 0 -15 0 0 -15 0 -15 45 0 45 0 0 -15 0 -15 15 0 15 0 0 30 0 30 15 0 15 0 0 30 0 30 15 0 15 0 0 15 0 15 15 0 15 0 0 15 0 15 -15 0 -15 0 0 15 0 15 -15 0 -15 0 0 -15z" stroke="#157615" stroke-width="10" />
<path d="M2940 3570 l0 -60 15 0 15 0 0 -15 0 -15 15 0 15 0 0 -15 0 -15 60 0 60 0 0 15 0 15 -15 0 -15 0 0 30 0 30 -15 0 -15 0 0 30 0 30 -45 0 -45 0 0 15 0 15 -15 0 -15 0 0 -60z" stroke="#157615" stroke-width="10" />
<path d="M2400 3585 l0 -15 -15 0 -15 0 0 -15 0 -15 -30 0 -30 0 0 -30 0 -30 45 0 45 0 0 -30 0 -30 30 0 30 0 0 30 0 30 15 0 15 0 0 30 0 30 15 0 15 0 0 15 0 15 -45 0 -45 0 0 15 0 15 -15 0 -15 0 0 -15z" stroke="#157615" stroke-width="10" />
<path d="M3240 3405 l0 -15 -60 0 -60 0 0 -15 0 -15 15 0 15 0 0 -15 0 -15 30 0 30 0 0 15 0 15 15 0 15 0 0 -45 0 -45 15 0 15 0 0 45 0 45 15 0 15 0 0 -15 0 -15 15 0 15 0 0 15 0 15 -15 0 -15 0 0 30 0 30 -30 0 -30 0 0 -15z" stroke="#157615" stroke-width="10" />
<path d="M3630 3390 l0 -30 -30 0 -30 0 0 -45 0 -45 15 0 15 0 0 -15 0 -15 15 0 15 0 0 15 0 15 30 0 30 0 0 -15 0 -15 15 0 15 0 0 30 0 30 15 0 15 0 0 15 0 15 -30 0 -30 0 0 15 0 15 -15 0 -15 0 0 30 0 30 -15 0 -15 0 0 -30z" stroke="#157615" stroke-width="10" />
<path d="M4260 3375 l0 -15 -15 0 -15 0 0 -15 0 -15 -30 0 -30 0 0 -15 0 -15 15 0 15 0 0 -15 0 -15 -15 0 -15 0 0 -30 0 -30 15 0 15 0 0 15 0 15 30 0 30 0 0 -15 0 -15 15 0 15 0 0 15 0 15 15 0 15 0 0 15 0 15 -15 0 -15 0 0 15 0 15 30 0 30 0 0 15 0 15 -15 0 -15 0 0 15 0 15 -15 0 -15 0 0 15 0 15 -15 0 -15 0 0 -15z" stroke="#157615" stroke-width="10" />
<path d="M1560 3240 l0 -60 15 0 15 0 0 -30 0 -30 45 0 45 0 0 60 0 60 15 0 15 0 0 15 0 15 -60 0 -60 0 0 15 0 15 -15 0 -15 0 0 -60z" stroke="#157615" stroke-width="10" />
<path d="M2670 3240 l0 -60 -15 0 -15 0 0 -15 0 -15 15 0 15 0 0 -15 0 -15 45 0 45 0 0 60 0 60 -15 0 -15 0 0 15 0 15 -15 0 -15 0 0 15 0 15 -15 0 -15 0 0 -60z" stroke="#157615" stroke-width="10" />
<path d="M3540 3120 l0 -30 -30 0 -30 0 0 -45 0 -45 15 0 15 0 0 -30 0 -30 45 0 45 0 0 30 0 30 15 0 15 0 0 15 0 15 -15 0 -15 0 0 45 0 45 -15 0 -15 0 0 15 0 15 -15 0 -15 0 0 -30z" stroke="#157615" stroke-width="10" />
<path d="M2520 3075 l0 -45 15 0 15 0 0 45 0 45 -15 0 -15 0 0 -45z" stroke="#157615" stroke-width="10" />
<path d="M2040 3075 l0 -15 -15 0 -15 0 0 -45 0 -45 -15 0 -15 0 0 -15 0 -15 15 0 15 0 0 -30 0 -30 15 0 15 0 0 -15 0 -15 15 0 15 0 0 15 0 15 15 0 15 0 0 15 0 15 -15 0 -15 0 0 15 0 15 30 0 30 0 0 15 0 15 -15 0 -15 0 0 15 0 15 -15 0 -15 0 0 45 0 45 -15 0 -15 0 0 -15z" stroke="#157615" stroke-width="10" />
<path d="M2400 3015 l0 -15 45 0 45 0 0 15 0 15 -45 0 -45 0 0 -15z" stroke="#157615" stroke-width="10" />
<path d="M3120 3015 l0 -15 -15 0 -15 0 0 -15 0 -15 -15 0 -15 0 0 -15 0 -15 30 0 30 0 0 -15 0 -15 15 0 15 0 0 -15 0 -15 15 0 15 0 0 -15 0 -15 15 0 15 0 0 30 0 30 30 0 30 0 0 15 0 15 15 0 15 0 0 15 0 15 -15 0 -15 0 0 15 0 15 -15 0 -15 0 0 -15 0 -15 -30 0 -30 0 0 15 0 15 -15 0 -15 0 0 15 0 15 -15 0 -15 0 0 -15z" stroke="#157615" stroke-width="10" />
<path d="M3900 3015 l0 -15 -15 0 -15 0 0 -15 0 -15 -45 0 -45 0 0 15 0 15 -30 0 -30 0 0 -45 0 -45 45 0 45 0 0 -15 0 -15 45 0 45 0 0 30 0 30 15 0 15 0 0 15 0 15 15 0 15 0 0 15 0 15 -15 0 -15 0 0 15 0 15 -15 0 -15 0 0 -15z" stroke="#157615" stroke-width="10" />
<path d="M2370 2955 l0 -15 15 0 15 0 0 15 0 15 -15 0 -15 0 0 -15z" stroke="#157615" stroke-width="10" />
<path d="M1620 2925 l0 -15 75 0 75 0 0 15 0 15 -75 0 -75 0 0 -15z" stroke="#157615" stroke-width="10" />
<path d="M2820 2925 l0 -15 -15 0 -15 0 0 -15 0 -15 -15 0 -15 0 0 -15 0 -15 -30 0 -30 0 0 -30 0 -30 15 0 15 0 0 15 0 15 30 0 30 0 0 15 0 15 15 0 15 0 0 15 0 15 15 0 15 0 0 30 0 30 -15 0 -15 0 0 -15z" stroke="#157615" stroke-width="10" />
<path d="M4320 2925 l0 -15 -15 0 -15 0 0 -30 0 -30 15 0 15 0 0 -15 0 -15 15 0 15 0 0 15 0 15 45 0 45 0 0 15 0 15 15 0 15 0 0 15 0 15 -15 0 -15 0 0 -15 0 -15 -45 0 -45 0 0 15 0 15 15 0 15 0 0 15 0 15 -30 0 -30 0 0 -15z" stroke="#157615" stroke-width="10" />
<path d="M2460 2805 l0 -15 -30 0 -30 0 0 -45 0 -45 -15 0 -15 0 0 -30 0 -30 15 0 15 0 0 30 0 30 15 0 15 0 0 -15 0 -15 15 0 15 0 0 15 0 15 15 0 15 0 0 30 0 30 -15 0 -15 0 0 15 0 15 15 0 15 0 0 15 0 15 -15 0 -15 0 0 -15z" stroke="#157615" stroke-width="10" />
<path d="M3060 2625 l0 -45 -15 0 -15 0 0 -15 0 -15 30 0 30 0 0 30 0 30 15 0 15 0 0 30 0 30 -30 0 -30 0 0 -45z" stroke="#157615" stroke-width="10" />
<path d="M3420 2565 l0 -15 -60 0 -60 0 0 -30 0 -30 -15 0 -15 0 0 -30 0 -30 45 0 45 0 0 30 0 30 45 0 45 0 0 15 0 15 15 0 15 0 0 15 0 15 -15 0 -15 0 0 15 0 15 -15 0 -15 0 0 -15z" stroke="#157615" stroke-width="10" />
<path d="M1590 2445 l0 -15 -15 0 -15 0 0 -45 0 -45 30 0 30 0 0 -15 0 -15 15 0 15 0 0 60 0 60 15 0 15 0 0 15 0 15 -45 0 -45 0 0 -15z" stroke="#157615" stroke-width="10" />
<path d="M2430 2355 l0 -15 15 0 15 0 0 15 0 15 -15 0 -15 0 0 -15z" stroke="#157615" stroke-width="10" />
<path d="M2490 2310 l0 -30 30 0 30 0 0 30 0 30 -30 0 -30 0 0 -30z" stroke="#157615" stroke-width="10" />
<path d="M3540 2325 l0 -15 15 0 15 0 0 15 0 15 -15 0 -15 0 0 -15z" stroke="#157615" stroke-width="10" />
<path d="M2580 2295 l0 -15 15 0 15 0 0 15 0 15 -15 0 -15 0 0 -15z" stroke="#157615" stroke-width="10" />
<path d="M2910 2295 l0 -15 -15 0 -15 0 0 -15 0 -15 -15 0 -15 0 0 -60 0 -60 30 0 30 0 0 15 0 15 15 0 15 0 0 15 0 15 15 0 15 0 0 15 0 15 -15 0 -15 0 0 15 0 15 45 0 45 0 0 30 0 30 -60 0 -60 0 0 -15z" stroke="#157615" stroke-width="10" />
<path d="M3210 2295 l0 -15 -15 0 -15 0 0 -15 0 -15 -15 0 -15 0 0 -30 0 -30 60 0 60 0 0 15 0 15 15 0 15 0 0 30 0 30 -30 0 -30 0 0 15 0 15 -15 0 -15 0 0 -15z" stroke="#157615" stroke-width="10" />
<path d="M3450 2280 l0 -30 15 0 15 0 0 30 0 30 -15 0 -15 0 0 -30z" stroke="#157615" stroke-width="10" />
<path d="M3510 2265 l0 -15 30 0 30 0 0 -15 0 -15 -15 0 -15 0 0 -30 0 -30 15 0 15 0 0 15 0 15 15 0 15 0 0 15 0 15 30 0 30 0 0 15 0 15 -15 0 -15 0 0 15 0 15 -60 0 -60 0 0 -15z" stroke="#157615" stroke-width="10" />
<path d="M4230 2235 l0 -15 -15 0 -15 0 0 -60 0 -60 15 0 15 0 0 -15 0 -15 15 0 15 0 0 15 0 15 15 0 15 0 0 15 0 15 15 0 15 0 0 30 0 30 15 0 15 0 0 15 0 15 -45 0 -45 0 0 15 0 15 -15 0 -15 0 0 -15z" stroke="#157615" stroke-width="10" />
<path d="M2550 2205 l0 -15 15 0 15 0 0 15 0 15 -15 0 -15 0 0 -15z" stroke="#157615" stroke-width="10" />
<path d="M3600 2025 l0 -15 -30 0 -30 0 0 -15 0 -15 45 0 45 0 0 30 0 30 -15 0 -15 0 0 -15z" stroke="#157615" stroke-width="10" />
<path d="M2490 1920 l0 -60 15 0 15 0 0 -15 0 -15 15 0 15 0 0 -15 0 -15 15 0 15 0 0 15 0 15 -15 0 -15 0 0 15 0 15 -15 0 -15 0 0 60 0 60 -15 0 -15 0 0 -60z" stroke="#157615" stroke-width="10" />
<path d="M2010 1935 l0 -15 -15 0 -15 0 0 -45 0 -45 15 0 15 0 0 -15 0 -15 30 0 30 0 0 -30 0 -30 15 0 15 0 0 15 0 15 15 0 15 0 0 15 0 15 -15 0 -15 0 0 30 0 30 15 0 15 0 0 15 0 15 -30 0 -30 0 0 15 0 15 -15 0 -15 0 0 15 0 15 -15 0 -15 0 0 -15z" stroke="#157615" stroke-width="10" />
<path d="M2550 1920 l0 -30 15 0 15 0 0 -15 0 -15 30 0 30 0 0 30 0 30 -30 0 -30 0 0 15 0 15 -15 0 -15 0 0 -30z" stroke="#157615" stroke-width="10" />
<path d="M3870 1935 l0 -15 15 0 15 0 0 -15 0 -15 -15 0 -15 0 0 -15 0 -15 30 0 30 0 0 -45 0 -45 15 0 15 0 0 15 0 15 15 0 15 0 0 15 0 15 15 0 15 0 0 15 0 15 15 0 15 0 0 15 0 15 -15 0 -15 0 0 15 0 15 -15 0 -15 0 0 15 0 15 -60 0 -60 0 0 -15z" stroke="#157615" stroke-width="10" />
<path d="M3510 1695 l0 -15 -15 0 -15 0 0 -15 0 -15 15 0 15 0 0 -30 0 -30 15 0 15 0 0 -15 0 -15 30 0 30 0 0 -15 0 -15 15 0 15 0 0 15 0 15 30 0 30 0 0 30 0 30 -30 0 -30 0 0 15 0 15 -15 0 -15 0 0 15 0 15 -30 0 -30 0 0 15 0 15 -15 0 -15 0 0 -15z" stroke="#157615" stroke-width="10" />
</g>
<g transform="translate(0.000000,600.000000) scale(0.100000,-0.100000)" fill="#e4a252" stroke="none">
<path d="M2190 4665 l0 -15 -30 0 -30 0 0 -30 0 -30 -30 0 -30 0 0 -15 0 -15 -15 0 -15 0 0 -15 0 -15 -30 0 -30 0 0 -15 0 -15 -30 0 -30 0 0 -30 0 -30 -15 0 -15 0 0 -15 0 -15 -30 0 -30 0 0 -60 0 -60 -45 0 -45 0 0 -30 0 -30 -15 0 -15 0 0 -15 0 -15 -30 0 -30 0 0 -30 0 -30 -15 0 -15 0 0 -30 0 -30 -30 0 -30 0 0 -15 0 -15 -30 0 -30 0 0 -30 0 -30 -30 0 -30 0 0 -45 0 -45 -45 0 -45 0 0 -15 0 -15 -15 0 -15 0 0 -195 0 -195 15 0 15 0 0 -45 0 -45 -15 0 -15 0 0 -465 0 -465 15 0 15 0 0 -180 0 -180 15 0 15 0 0 -30 0 -30 15 0 15 0 0 -15 0 -15 15 0 15 0 0 -15 0 -15 15 0 15 0 0 -30 0 -30 15 0 15 0 0 -15 0 -15 30 0 30 0 0 -30 0 -30 30 0 30 0 0 -15 0 -15 15 0 15 0 0 -15 0 -15 45 0 45 0 0 -30 0 -30 30 0 30 0 0 -30 0 -30 15 0 15 0 0 -15 0 -15 30 0 30 0 0 -30 0 -30 30 0 30 0 0 -15 0 -15 15 0 15 0 0 -30 0 -30 15 0 15 0 0 -15 0 -15 15 0 15 0 0 -15 0 -15 30 0 30 0 0 -30 0 -30 15 0 15 0 0 -15 0 -15 120 0 120 0 0 -15 0 -15 255 0 255 0 0 -15 0 -15 315 0 315 0 0 15 0 15 180 0 180 0 0 15 0 15 15 0 15 0 0 15 0 15 30 0 30 0 0 30 0 30 15 0 15 0 0 15 0 15 15 0 15 0 0 15 0 15 60 0 60 0 0 75 0 75 30 0 30 0 0 15 0 15 15 0 15 0 0 15 0 15 15 0 15 0 0 15 0 15 15 0 15 0 0 15 0 15 15 0 15 0 0 15 0 15 15 0 15 0 0 15 0 15 15 0 15 0 0 15 0 15 15 0 15 0 0 15 0 15 15 0 15 0 0 30 0 30 45 0 45 0 0 45 0 45 15 0 15 0 0 15 0 15 30 0 30 0 0 15 0 15 15 0 15 0 0 30 0 30 15 0 15 0 0 105 0 105 15 0 15 0 0 345 0 345 15 0 15 0 0 150 0 150 -15 0 -15 0 0 150 0 150 -15 0 -15 0 0 135 0 135 -30 0 -30 0 0 15 0 15 -30 0 -30 0 0 45 0 45 -45 0 -45 0 0 30 0 30 -30 0 -30 0 0 30 0 30 -30 0 -30 0 0 60 0 60 -60 0 -60 0 0 15 0 15 -15 0 -15 0 0 15 0 15 -15 0 -15 0 0 30 0 30 -15 0 -15 0 0 15 0 15 -15 0 -15 0 0 30 0 30 -15 0 -15 0 0 15 0 15 -15 0 -15 0 0 30 0 30 -45 0 -45 0 0 15 0 15 -15 0 -15 0 0 30 0 30 -225 0 -225 0 0 15 0 15 -645 0 -645 0 0 -15z m330 -180 l0 -15 15 0 15 0 0 -45 0 -45 30 0 30 0 0 -15 0 -15 15 0 15 0 0 -15 0 -15 15 0 15 0 0 -15 0 -15 15 0 15 0 0 -60 0 -60 -90 0 -90 0 0 -60 0 -60 -15 0 -15 0 0 60 0 60 -15 0 -15 0 0 30 0 30 -30 0 -30 0 0 -30 0 -30 15 0 15 0 0 -30 0 -30 15 0 15 0 0 -30 0 -30 -15 0 -15 0 0 15 0 15 -15 0 -15 0 0 30 0 30 -15 0 -15 0 0 30 0 30 -15 0 -15 0 0 15 0 15 -15 0 -15 0 0 30 0 30 15 0 15 0 0 30 0 30 -15 0 -15 0 0 75 0 75 105 0 105 0 0 -15z m960 -75 l0 -60 -15 0 -15 0 0 -15 0 -15 -15 0 -15 0 0 -15 0 -15 -30 0 -30 0 0 -15 0 -15 30 0 30 0 0 15 0 15 15 0 15 0 0 -15 0 -15 15 0 15 0 0 15 0 15 15 0 15 0 0 -15 0 -15 75 0 75 0 0 -15 0 -15 45 0 45 0 0 15 0 15 -45 0 -45 0 0 15 0 15 -45 0 -45 0 0 15 0 15 -45 0 -45 0 0 15 0 15 15 0 15 0 0 60 0 60 15 0 15 0 0 -15 0 -15 15 0 15 0 0 -30 0 -30 30 0 30 0 0 -15 0 -15 45 0 45 0 0 15 0 15 75 0 75 0 0 -30 0 -30 15 0 15 0 0 -15 0 -15 15 0 15 0 0 -15 0 -15 -30 0 -30 0 0 -15 0 -15 -15 0 -15 0 0 -45 0 -45 30 0 30 0 0 -45 0 -45 30 0 30 0 0 -15 0 -15 -30 0 -30 0 0 -15 0 -15 -15 0 -15 0 0 -15 0 -15 -15 0 -15 0 0 15 0 15 -15 0 -15 0 0 30 0 30 -30 0 -30 0 0 15 0 15 30 0 30 0 0 30 0 30 -105 0 -105 0 0 30 0 30 -90 0 -90 0 0 -15 0 -15 -15 0 -15 0 0 30 0 30 -15 0 -15 0 0 -30 0 -30 -15 0 -15 0 0 90 0 90 15 0 15 0 0 30 0 30 30 0 30 0 0 15 0 15 15 0 15 0 0 15 0 15 15 0 15 0 0 -60z m-1320 -180 l0 -60 -15 0 -15 0 0 -15 0 -15 -30 0 -30 0 0 -15 0 -15 -15 0 -15 0 0 15 0 15 -15 0 -15 0 0 45 0 45 45 0 45 0 0 30 0 30 30 0 30 0 0 -60z m120 -315 l0 -75 15 0 15 0 0 -45 0 -45 15 0 15 0 0 -15 0 -15 -30 0 -30 0 0 45 0 45 -60 0 -60 0 0 -60 0 -60 45 0 45 0 0 -30 0 -30 -15 0 -15 0 0 15 0 15 -45 0 -45 0 0 120 0 120 -15 0 -15 0 0 15 0 15 15 0 15 0 0 15 0 15 30 0 30 0 0 15 0 15 45 0 45 0 0 -75z m1200 60 l0 -15 15 0 15 0 0 -15 0 -15 -15 0 -15 0 0 -15 0 -15 -15 0 -15 0 0 -30 0 -30 -45 0 -45 0 0 15 0 15 -15 0 -15 0 0 45 0 45 15 0 15 0 0 15 0 15 60 0 60 0 0 -15z m-1590 -30 l0 -15 15 0 15 0 0 -15 0 -15 -30 0 -30 0 0 -15 0 -15 -15 0 -15 0 0 -15 0 -15 -30 0 -30 0 0 -15 0 -15 -45 0 -45 0 0 15 0 15 15 0 15 0 0 15 0 15 15 0 15 0 0 15 0 15 30 0 30 0 0 30 0 30 45 0 45 0 0 -15z m660 -15 l0 -30 15 0 15 0 0 -15 0 -15 -15 0 -15 0 0 -30 0 -30 15 0 15 0 0 -15 0 -15 -15 0 -15 0 0 -15 0 -15 -45 0 -45 0 0 15 0 15 -15 0 -15 0 0 30 0 30 15 0 15 0 0 15 0 15 15 0 15 0 0 15 0 15 15 0 15 0 0 30 0 30 15 0 15 0 0 -30z m330 -60 l0 -30 -15 0 -15 0 0 -15 0 -15 -30 0 -30 0 0 15 0 15 15 0 15 0 0 15 0 15 15 0 15 0 0 15 0 15 15 0 15 0 0 -30z m90 0 l0 -30 -30 0 -30 0 0 30 0 30 30 0 30 0 0 -30z m60 15 l0 -15 15 0 15 0 0 15 0 15 15 0 15 0 0 -45 0 -45 15 0 15 0 0 -15 0 -15 -15 0 -15 0 0 -15 0 -15 -30 0 -30 0 0 -15 0 -15 30 0 30 0 0 -30 0 -30 15 0 15 0 0 30 0 30 15 0 15 0 0 15 0 15 45 0 45 0 0 -15 0 -15 -30 0 -30 0 0 -15 0 -15 -15 0 -15 0 0 -15 0 -15 15 0 15 0 0 -15 0 -15 -15 0 -15 0 0 15 0 15 -15 0 -15 0 0 -15 0 -15 -15 0 -15 0 0 15 0 15 -15 0 -15 0 0 15 0 15 -15 0 -15 0 0 -15 0 -15 -15 0 -15 0 0 15 0 15 -15 0 -15 0 0 15 0 15 -15 0 -15 0 0 15 0 15 -75 0 -75 0 0 15 0 15 90 0 90 0 0 30 0 30 15 0 15 0 0 30 0 30 15 0 15 0 0 -15z m120 -15 l0 -30 15 0 15 0 0 -15 0 -15 30 0 30 0 0 -15 0 -15 -45 0 -45 0 0 15 0 15 -15 0 -15 0 0 45 0 45 15 0 15 0 0 -30z m-810 -210 l0 -30 -30 0 -30 0 0 30 0 30 30 0 30 0 0 -30z m60 -15 l0 -15 -15 0 -15 0 0 15 0 15 15 0 15 0 0 -15z m300 0 l0 -15 45 0 45 0 0 -15 0 -15 30 0 30 0 0 -15 0 -15 -30 0 -30 0 0 -30 0 -30 -30 0 -30 0 0 15 0 15 -45 0 -45 0 0 15 0 15 15 0 15 0 0 15 0 15 -30 0 -30 0 0 15 0 15 30 0 30 0 0 15 0 15 15 0 15 0 0 -15z m810 0 l0 -15 15 0 15 0 0 -15 0 -15 -15 0 -15 0 0 -15 0 -15 -15 0 -15 0 0 -30 0 -30 -15 0 -15 0 0 -45 0 -45 -15 0 -15 0 0 30 0 30 -45 0 -45 0 0 15 0 15 15 0 15 0 0 30 0 30 15 0 15 0 0 15 0 15 30 0 30 0 0 15 0 15 15 0 15 0 0 15 0 15 15 0 15 0 0 -15z m-540 -30 l0 -15 45 0 45 0 0 -30 0 -30 15 0 15 0 0 -30 0 -30 15 0 15 0 0 -15 0 -15 -60 0 -60 0 0 15 0 15 -15 0 -15 0 0 15 0 15 -15 0 -15 0 0 60 0 60 15 0 15 0 0 -15z m-630 -30 l0 -15 -15 0 -15 0 0 15 0 15 15 0 15 0 0 -15z m90 0 l0 -15 45 0 45 0 0 -15 0 -15 -15 0 -15 0 0 -30 0 -30 -15 0 -15 0 0 -30 0 -30 -30 0 -30 0 0 30 0 30 -45 0 -45 0 0 30 0 30 30 0 30 0 0 30 0 30 30 0 30 0 0 -15z m690 0 l0 -15 -15 0 -15 0 0 15 0 15 15 0 15 0 0 -15z m60 0 l0 -15 -15 0 -15 0 0 15 0 15 15 0 15 0 0 -15z m-540 -105 l0 -30 -15 0 -15 0 0 -30 0 -30 15 0 15 0 0 -30 0 -30 60 0 60 0 0 45 0 45 -15 0 -15 0 0 15 0 15 -30 0 -30 0 0 30 0 30 15 0 15 0 0 -15 0 -15 30 0 30 0 0 -15 0 -15 15 0 15 0 0 -75 0 -75 -45 0 -45 0 0 -15 0 -15 15 0 15 0 0 -15 0 -15 15 0 15 0 0 -15 0 -15 15 0 15 0 0 15 0 15 60 0 60 0 0 -90 0 -90 -15 0 -15 0 0 -45 0 -45 -15 0 -15 0 0 -45 0 -45 -15 0 -15 0 0 -15 0 -15 -15 0 -15 0 0 -15 0 -15 -30 0 -30 0 0 -15 0 -15 15 0 15 0 0 -15 0 -15 15 0 15 0 0 -15 0 -15 -75 0 -75 0 0 -30 0 -30 15 0 15 0 0 15 0 15 60 0 60 0 0 -15 0 -15 -15 0 -15 0 0 -15 0 -15 -15 0 -15 0 0 -15 0 -15 15 0 15 0 0 -15 0 -15 15 0 15 0 0 30 0 30 15 0 15 0 0 15 0 15 15 0 15 0 0 75 0 75 15 0 15 0 0 15 0 15 30 0 30 0 0 15 0 15 15 0 15 0 0 15 0 15 60 0 60 0 0 -15 0 -15 -45 0 -45 0 0 -15 0 -15 -15 0 -15 0 0 -15 0 -15 -15 0 -15 0 0 -30 0 -30 -15 0 -15 0 0 -60 0 -60 60 0 60 0 0 15 0 15 -30 0 -30 0 0 75 0 75 15 0 15 0 0 -30 0 -30 45 0 45 0 0 -15 0 -15 -15 0 -15 0 0 -30 0 -30 30 0 30 0 0 -15 0 -15 30 0 30 0 0 15 0 15 15 0 15 0 0 -30 0 -30 15 0 15 0 0 30 0 30 15 0 15 0 0 -15 0 -15 15 0 15 0 0 -45 0 -45 60 0 60 0 0 15 0 15 15 0 15 0 0 -15 0 -15 15 0 15 0 0 -15 0 -15 -15 0 -15 0 0 -15 0 -15 -45 0 -45 0 0 -30 0 -30 -45 0 -45 0 0 15 0 15 -15 0 -15 0 0 -15 0 -15 -15 0 -15 0 0 30 0 30 -15 0 -15 0 0 -30 0 -30 -15 0 -15 0 0 15 0 15 -30 0 -30 0 0 45 0 45 -45 0 -45 0 0 30 0 30 -15 0 -15 0 0 -30 0 -30 -15 0 -15 0 0 15 0 15 -15 0 -15 0 0 -15 0 -15 -15 0 -15 0 0 -45 0 -45 15 0 15 0 0 -15 0 -15 -30 0 -30 0 0 -15 0 -15 30 0 30 0 0 -15 0 -15 -15 0 -15 0 0 -15 0 -15 -45 0 -45 0 0 -30 0 -30 -15 0 -15 0 0 45 0 45 -15 0 -15 0 0 -45 0 -45 -15 0 -15 0 0 45 0 45 -30 0 -30 0 0 15 0 15 -15 0 -15 0 0 15 0 15 -15 0 -15 0 0 15 0 15 -15 0 -15 0 0 -30 0 -30 30 0 30 0 0 -30 0 -30 15 0 15 0 0 -15 0 -15 -15 0 -15 0 0 -15 0 -15 15 0 15 0 0 -15 0 -15 -15 0 -15 0 0 -15 0 -15 -15 0 -15 0 0 -15 0 -15 -30 0 -30 0 0 -30 0 -30 -15 0 -15 0 0 -30 0 -30 -15 0 -15 0 0 -15 0 -15 -30 0 -30 0 0 -30 0 -30 -15 0 -15 0 0 45 0 45 -15 0 -15 0 0 -45 0 -45 -15 0 -15 0 0 30 0 30 -15 0 -15 0 0 30 0 30 -15 0 -15 0 0 15 0 15 30 0 30 0 0 15 0 15 -30 0 -30 0 0 15 0 15 15 0 15 0 0 15 0 15 30 0 30 0 0 60 0 60 -15 0 -15 0 0 60 0 60 -15 0 -15 0 0 30 0 30 -15 0 -15 0 0 15 0 15 30 0 30 0 0 15 0 15 -30 0 -30 0 0 15 0 15 15 0 15 0 0 60 0 60 60 0 60 0 0 15 0 15 -30 0 -30 0 0 30 0 30 -15 0 -15 0 0 60 0 60 -60 0 -60 0 0 15 0 15 60 0 60 0 0 15 0 15 30 0 30 0 0 -15 0 -15 15 0 15 0 0 30 0 30 -60 0 -60 0 0 -15 0 -15 -45 0 -45 0 0 15 0 15 30 0 30 0 0 15 0 15 15 0 15 0 0 15 0 15 75 0 75 0 0 15 0 15 -15 0 -15 0 0 30 0 30 -15 0 -15 0 0 30 0 30 -15 0 -15 0 0 -45 0 -45 -15 0 -15 0 0 -15 0 -15 -30 0 -30 0 0 -15 0 -15 -15 0 -15 0 0 -15 0 -15 -15 0 -15 0 0 -15 0 -15 -15 0 -15 0 0 -15 0 -15 -15 0 -15 0 0 30 0 30 15 0 15 0 0 15 0 15 15 0 15 0 0 15 0 15 15 0 15 0 0 15 0 15 30 0 30 0 0 15 0 15 15 0 15 0 0 45 0 45 30 0 30 0 0 15 0 15 -30 0 -30 0 0 60 0 60 15 0 15 0 0 -45 0 -45 30 0 30 0 0 15 0 15 30 0 30 0 0 15 0 15 15 0 15 0 0 15 0 15 15 0 15 0 0 -30 0 -30 -15 0 -15 0 0 -15 0 -15 30 0 30 0 0 45 0 45 15 0 15 0 0 30 0 30 15 0 15 0 0 15 0 15 15 0 15 0 0 -30z m750 -45 l0 -15 -15 0 -15 0 0 15 0 15 15 0 15 0 0 -15z m-1110 -45 l0 -30 -30 0 -30 0 0 -30 0 -30 -30 0 -30 0 0 -75 0 -75 -15 0 -15 0 0 -30 0 -30 -15 0 -15 0 0 -60 0 -60 15 0 15 0 0 -15 0 -15 -30 0 -30 0 0 -15 0 -15 15 0 15 0 0 -15 0 -15 -15 0 -15 0 0 -15 0 -15 -15 0 -15 0 0 15 0 15 -15 0 -15 0 0 30 0 30 -15 0 -15 0 0 -30 0 -30 -15 0 -15 0 0 -90 0 -90 -30 0 -30 0 0 -15 0 -15 15 0 15 0 0 -15 0 -15 -30 0 -30 0 0 -15 0 -15 30 0 30 0 0 -15 0 -15 -15 0 -15 0 0 -15 0 -15 -30 0 -30 0 0 -15 0 -15 -15 0 -15 0 0 30 0 30 -15 0 -15 0 0 -30 0 -30 -15 0 -15 0 0 15 0 15 -15 0 -15 0 0 30 0 30 -15 0 -15 0 0 45 0 45 -15 0 -15 0 0 15 0 15 30 0 30 0 0 15 0 15 -45 0 -45 0 0 45 0 45 -15 0 -15 0 0 -45 0 -45 -15 0 -15 0 0 45 0 45 -15 0 -15 0 0 75 0 75 15 0 15 0 0 15 0 15 30 0 30 0 0 30 0 30 15 0 15 0 0 -45 0 -45 15 0 15 0 0 45 0 45 15 0 15 0 0 -15 0 -15 15 0 15 0 0 30 0 30 15 0 15 0 0 45 0 45 15 0 15 0 0 -60 0 -60 30 0 30 0 0 30 0 30 -15 0 -15 0 0 30 0 30 15 0 15 0 0 -15 0 -15 15 0 15 0 0 -30 0 -30 15 0 15 0 0 -30 0 -30 15 0 15 0 0 -15 0 -15 15 0 15 0 0 -30 0 -30 15 0 15 0 0 45 0 45 15 0 15 0 0 15 0 15 15 0 15 0 0 15 0 15 15 0 15 0 0 30 0 30 15 0 15 0 0 75 0 75 30 0 30 0 0 30 0 30 30 0 30 0 0 15 0 15 15 0 15 0 0 -30z m1020 0 l0 -30 15 0 15 0 0 -15 0 -15 15 0 15 0 0 -15 0 -15 30 0 30 0 0 -15 0 -15 -45 0 -45 0 0 15 0 15 -30 0 -30 0 0 -15 0 -15 -15 0 -15 0 0 15 0 15 -45 0 -45 0 0 -45 0 -45 30 0 30 0 0 -15 0 -15 45 0 45 0 0 30 0 30 60 0 60 0 0 -15 0 -15 -45 0 -45 0 0 -30 0 -30 -60 0 -60 0 0 -15 0 -15 -15 0 -15 0 0 30 0 30 -30 0 -30 0 0 75 0 75 15 0 15 0 0 15 0 15 -15 0 -15 0 0 15 0 15 60 0 60 0 0 15 0 15 30 0 30 0 0 -30z m360 0 l0 -30 15 0 15 0 0 -15 0 -15 30 0 30 0 0 -15 0 -15 30 0 30 0 0 15 0 15 60 0 60 0 0 -15 0 -15 15 0 15 0 0 -15 0 -15 -30 0 -30 0 0 15 0 15 -30 0 -30 0 0 -15 0 -15 -45 0 -45 0 0 -60 0 -60 15 0 15 0 0 -30 0 -30 -15 0 -15 0 0 15 0 15 -15 0 -15 0 0 60 0 60 -15 0 -15 0 0 15 0 15 -30 0 -30 0 0 -15 0 -15 -15 0 -15 0 0 15 0 15 -15 0 -15 0 0 45 0 45 30 0 30 0 0 30 0 30 15 0 15 0 0 -30z m-270 -15 l0 -15 -15 0 -15 0 0 15 0 15 15 0 15 0 0 -15z m60 0 l0 -15 -15 0 -15 0 0 15 0 15 15 0 15 0 0 -15z m840 0 l0 -15 15 0 15 0 0 -15 0 -15 15 0 15 0 0 -15 0 -15 -30 0 -30 0 0 -15 0 -15 15 0 15 0 0 -15 0 -15 -15 0 -15 0 0 -15 0 -15 -15 0 -15 0 0 15 0 15 -30 0 -30 0 0 -30 0 -30 15 0 15 0 0 -15 0 -15 15 0 15 0 0 -90 0 -90 -15 0 -15 0 0 -15 0 -15 -75 0 -75 0 0 15 0 15 -15 0 -15 0 0 30 0 30 -15 0 -15 0 0 15 0 15 -15 0 -15 0 0 75 0 75 15 0 15 0 0 15 0 15 75 0 75 0 0 15 0 15 15 0 15 0 0 15 0 15 -15 0 -15 0 0 15 0 15 30 0 30 0 0 15 0 15 15 0 15 0 0 15 0 15 15 0 15 0 0 -15z m-2700 -90 l0 -15 60 0 60 0 0 -15 0 -15 -15 0 -15 0 0 -60 0 -60 -45 0 -45 0 0 30 0 30 -15 0 -15 0 0 60 0 60 15 0 15 0 0 -15z m2370 -60 l0 -15 -15 0 -15 0 0 -15 0 -15 -30 0 -30 0 0 -15 0 -15 -15 0 -15 0 0 -30 0 -30 -15 0 -15 0 0 45 0 45 15 0 15 0 0 15 0 15 30 0 30 0 0 15 0 15 30 0 30 0 0 -15z m-810 -90 l0 -15 -15 0 -15 0 0 15 0 15 15 0 15 0 0 -15z m420 0 l0 -15 15 0 15 0 0 -45 0 -45 15 0 15 0 0 -15 0 -15 -15 0 -15 0 0 -30 0 -30 -45 0 -45 0 0 30 0 30 -15 0 -15 0 0 45 0 45 30 0 30 0 0 30 0 30 15 0 15 0 0 -15z m-420 -60 l0 -15 -15 0 -15 0 0 15 0 15 15 0 15 0 0 -15z m60 0 l0 -15 -15 0 -15 0 0 15 0 15 15 0 15 0 0 -15z m-60 -60 l0 -15 15 0 15 0 0 -15 0 -15 30 0 30 0 0 15 0 15 15 0 15 0 0 -15 0 -15 15 0 15 0 0 -15 0 -15 -15 0 -15 0 0 -15 0 -15 -30 0 -30 0 0 -30 0 -30 -15 0 -15 0 0 15 0 15 -15 0 -15 0 0 15 0 15 -15 0 -15 0 0 15 0 15 -30 0 -30 0 0 15 0 15 15 0 15 0 0 15 0 15 15 0 15 0 0 15 0 15 15 0 15 0 0 -15z m780 0 l0 -15 15 0 15 0 0 -15 0 -15 -15 0 -15 0 0 -15 0 -15 -15 0 -15 0 0 -30 0 -30 -45 0 -45 0 0 15 0 15 -45 0 -45 0 0 45 0 45 30 0 30 0 0 -15 0 -15 45 0 45 0 0 15 0 15 15 0 15 0 0 15 0 15 15 0 15 0 0 -15z m540 -15 l0 -30 -15 0 -15 0 0 -30 0 -30 30 0 30 0 0 60 0 60 15 0 15 0 0 -135 0 -135 -15 0 -15 0 0 30 0 30 -15 0 -15 0 0 15 0 15 15 0 15 0 0 15 0 15 -30 0 -30 0 0 -30 0 -30 15 0 15 0 0 -30 0 -30 -15 0 -15 0 0 15 0 15 -30 0 -30 0 0 15 0 15 -30 0 -30 0 0 15 0 15 -15 0 -15 0 0 30 0 30 15 0 15 0 0 15 0 15 45 0 45 0 0 30 0 30 15 0 15 0 0 15 0 15 15 0 15 0 0 -30z m-2190 -120 l0 -30 -15 0 -15 0 0 -15 0 -15 -15 0 -15 0 0 -30 0 -30 -30 0 -30 0 0 15 0 15 15 0 15 0 0 30 0 30 15 0 15 0 0 15 0 15 15 0 15 0 0 15 0 15 15 0 15 0 0 -30z m810 -60 l0 -30 -30 0 -30 0 0 30 0 30 30 0 30 0 0 -30z m-840 -120 l0 -30 -15 0 -15 0 0 15 0 15 -30 0 -30 0 0 15 0 15 45 0 45 0 0 -30z m1200 -15 l0 -15 -15 0 -15 0 0 15 0 15 15 0 15 0 0 -15z m60 0 l0 -15 -15 0 -15 0 0 15 0 15 15 0 15 0 0 -15z m-60 -60 l0 -15 -15 0 -15 0 0 15 0 15 15 0 15 0 0 -15z m60 0 l0 -15 -15 0 -15 0 0 15 0 15 15 0 15 0 0 -15z m-1890 -135 l0 -30 15 0 15 0 0 30 0 30 15 0 15 0 0 -15 0 -15 15 0 15 0 0 -15 0 -15 -15 0 -15 0 0 -15 0 -15 15 0 15 0 0 -30 0 -30 -30 0 -30 0 0 -15 0 -15 30 0 30 0 0 -15 0 -15 -15 0 -15 0 0 -15 0 -15 -15 0 -15 0 0 15 0 15 -15 0 -15 0 0 -15 0 -15 -15 0 -15 0 0 15 0 15 -30 0 -30 0 0 75 0 75 15 0 15 0 0 15 0 15 15 0 15 0 0 15 0 15 15 0 15 0 0 -30z m1830 -135 l0 -45 15 0 15 0 0 45 0 45 15 0 15 0 0 -15 0 -15 15 0 15 0 0 -15 0 -15 15 0 15 0 0 -30 0 -30 30 0 30 0 0 -15 0 -15 15 0 15 0 0 -15 0 -15 -30 0 -30 0 0 -15 0 -15 -15 0 -15 0 0 -15 0 -15 -15 0 -15 0 0 15 0 15 -15 0 -15 0 0 -15 0 -15 15 0 15 0 0 -30 0 -30 15 0 15 0 0 30 0 30 15 0 15 0 0 -15 0 -15 30 0 30 0 0 -30 0 -30 15 0 15 0 0 30 0 30 15 0 15 0 0 -15 0 -15 30 0 30 0 0 -15 0 -15 15 0 15 0 0 -30 0 -30 15 0 15 0 0 -60 0 -60 30 0 30 0 0 15 0 15 -15 0 -15 0 0 15 0 15 60 0 60 0 0 -15 0 -15 15 0 15 0 0 -15 0 -15 15 0 15 0 0 -15 0 -15 -15 0 -15 0 0 -15 0 -15 -15 0 -15 0 0 -15 0 -15 -15 0 -15 0 0 -15 0 -15 -15 0 -15 0 0 45 0 45 -15 0 -15 0 0 -75 0 -75 -15 0 -15 0 0 -15 0 -15 -15 0 -15 0 0 30 0 30 -15 0 -15 0 0 -30 0 -30 -30 0 -30 0 0 -15 0 -15 -60 0 -60 0 0 15 0 15 -15 0 -15 0 0 -15 0 -15 15 0 15 0 0 -15 0 -15 30 0 30 0 0 -30 0 -30 -30 0 -30 0 0 -15 0 -15 -15 0 -15 0 0 15 0 15 -30 0 -30 0 0 15 0 15 -15 0 -15 0 0 30 0 30 -15 0 -15 0 0 15 0 15 15 0 15 0 0 15 0 15 15 0 15 0 0 -15 0 -15 15 0 15 0 0 15 0 15 45 0 45 0 0 -15 0 -15 30 0 30 0 0 15 0 15 15 0 15 0 0 15 0 15 -30 0 -30 0 0 30 0 30 -15 0 -15 0 0 -30 0 -30 -45 0 -45 0 0 15 0 15 30 0 30 0 0 30 0 30 15 0 15 0 0 30 0 30 -30 0 -30 0 0 -15 0 -15 -15 0 -15 0 0 30 0 30 -15 0 -15 0 0 -30 0 -30 -15 0 -15 0 0 15 0 15 -45 0 -45 0 0 15 0 15 -30 0 -30 0 0 60 0 60 -15 0 -15 0 0 75 0 75 15 0 15 0 0 15 0 15 -15 0 -15 0 0 -15 0 -15 -15 0 -15 0 0 -15 0 -15 -45 0 -45 0 0 -15 0 -15 -15 0 -15 0 0 30 0 30 -15 0 -15 0 0 -30 0 -30 -15 0 -15 0 0 30 0 30 -30 0 -30 0 0 15 0 15 45 0 45 0 0 15 0 15 -45 0 -45 0 0 15 0 15 45 0 45 0 0 15 0 15 15 0 15 0 0 30 0 30 15 0 15 0 0 -30 0 -30 15 0 15 0 0 30 0 30 15 0 15 0 0 -15 0 -15 60 0 60 0 0 15 0 15 15 0 15 0 0 15 0 15 15 0 15 0 0 -45z m-420 -75 l0 -30 -45 0 -45 0 0 -15 0 -15 15 0 15 0 0 -15 0 -15 -15 0 -15 0 0 -15 0 -15 -15 0 -15 0 0 -15 0 -15 -30 0 -30 0 0 60 0 60 15 0 15 0 0 15 0 15 15 0 15 0 0 15 0 15 60 0 60 0 0 -30z m1230 -45 l0 -15 45 0 45 0 0 -15 0 -15 -15 0 -15 0 0 -30 0 -30 -15 0 -15 0 0 -15 0 -15 -15 0 -15 0 0 -15 0 -15 -15 0 -15 0 0 15 0 15 -15 0 -15 0 0 60 0 60 15 0 15 0 0 15 0 15 15 0 15 0 0 -15z m-1620 -225 l0 -30 -15 0 -15 0 0 -15 0 -15 -15 0 -15 0 0 -15 0 -15 30 0 30 0 0 -30 0 -30 15 0 15 0 0 -60 0 -60 -15 0 -15 0 0 15 0 15 -15 0 -15 0 0 -30 0 -30 15 0 15 0 0 -30 0 -30 -15 0 -15 0 0 15 0 15 -15 0 -15 0 0 60 0 60 15 0 15 0 0 15 0 15 -15 0 -15 0 0 -15 0 -15 -15 0 -15 0 0 15 0 15 -15 0 -15 0 0 15 0 15 -15 0 -15 0 0 60 0 60 45 0 45 0 0 15 0 15 15 0 15 0 0 15 0 15 15 0 15 0 0 -30z m60 15 l0 -15 15 0 15 0 0 -60 0 -60 15 0 15 0 0 -30 0 -30 15 0 15 0 0 -15 0 -15 15 0 15 0 0 -15 0 -15 -30 0 -30 0 0 15 0 15 -15 0 -15 0 0 -60 0 -60 -15 0 -15 0 0 -15 0 -15 -15 0 -15 0 0 45 0 45 15 0 15 0 0 120 0 120 -15 0 -15 0 0 30 0 30 15 0 15 0 0 -15z m-660 -90 l0 -15 15 0 15 0 0 -15 0 -15 30 0 30 0 0 -15 0 -15 -15 0 -15 0 0 -30 0 -30 15 0 15 0 0 -15 0 -15 -15 0 -15 0 0 -15 0 -15 -15 0 -15 0 0 30 0 30 -30 0 -30 0 0 15 0 15 -15 0 -15 0 0 45 0 45 15 0 15 0 0 15 0 15 15 0 15 0 0 -15z m780 -210 l0 -15 -15 0 -15 0 0 -15 0 -15 -15 0 -15 0 0 30 0 30 30 0 30 0 0 -15z" stroke="#e4a252" stroke-width="10" />
<path d="M2340 4425 l0 -15 75 0 75 0 0 -45 0 -45 15 0 15 0 0 -15 0 -15 15 0 15 0 0 -45 0 -45 60 0 60 0 0 30 0 30 -15 0 -15 0 0 15 0 15 -15 0 -15 0 0 15 0 15 -15 0 -15 0 0 15 0 15 -30 0 -30 0 0 45 0 45 -90 0 -90 0 0 -15z" stroke="#e4a252" stroke-width="10" />
<path d="M2370 4365 l0 -15 15 0 15 0 0 15 0 15 -15 0 -15 0 0 -15z" stroke="#e4a252" stroke-width="10" />
<path d="M2460 4275 l0 -15 15 0 15 0 0 15 0 15 -15 0 -15 0 0 -15z" stroke="#e4a252" stroke-width="10" />
<path d="M2490 4215 l0 -15 15 0 15 0 0 15 0 15 -15 0 -15 0 0 -15z" stroke="#e4a252" stroke-width="10" />
<path d="M2190 3855 l0 -15 30 0 30 0 0 15 0 15 -30 0 -30 0 0 -15z" stroke="#e4a252" stroke-width="10" />
<path d="M2490 3210 l0 -90 30 0 30 0 0 30 0 30 -15 0 -15 0 0 60 0 60 -15 0 -15 0 0 -90z" stroke="#e4a252" stroke-width="10" />
<path d="M2640 3285 l0 -15 15 0 15 0 0 15 0 15 -15 0 -15 0 0 -15z" stroke="#e4a252" stroke-width="10" />
<path d="M2400 3255 l0 -15 30 0 30 0 0 15 0 15 -30 0 -30 0 0 -15z" stroke="#e4a252" stroke-width="10" />
<path d="M2580 3240 l0 -30 45 0 45 0 0 15 0 15 -30 0 -30 0 0 15 0 15 -15 0 -15 0 0 -30z" stroke="#e4a252" stroke-width="10" />
<path d="M2820 3195 l0 -15 -15 0 -15 0 0 -45 0 -45 -15 0 -15 0 0 -15 0 -15 30 0 30 0 0 -15 0 -15 -45 0 -45 0 0 -15 0 -15 -60 0 -60 0 0 15 0 15 -15 0 -15 0 0 15 0 15 -15 0 -15 0 0 -30 0 -30 15 0 15 0 0 -15 0 -15 15 0 15 0 0 -15 0 -15 30 0 30 0 0 15 0 15 45 0 45 0 0 15 0 15 45 0 45 0 0 45 0 45 15 0 15 0 0 60 0 60 -30 0 -30 0 0 -15z" stroke="#e4a252" stroke-width="10" />
<path d="M2700 3105 l0 -15 15 0 15 0 0 15 0 15 -15 0 -15 0 0 -15z" stroke="#e4a252" stroke-width="10" />
<path d="M2340 2880 l0 -30 15 0 15 0 0 -30 0 -30 45 0 45 0 0 30 0 30 30 0 30 0 0 15 0 15 -15 0 -15 0 0 15 0 15 -75 0 -75 0 0 -30z" stroke="#e4a252" stroke-width="10" />
<path d="M2580 2850 l0 -60 -15 0 -15 0 0 -30 0 -30 15 0 15 0 0 -60 0 -60 -15 0 -15 0 0 -15 0 -15 -105 0 -105 0 0 -15 0 -15 30 0 30 0 0 -60 0 -60 15 0 15 0 0 -30 0 -30 15 0 15 0 0 90 0 90 75 0 75 0 0 180 0 180 -15 0 -15 0 0 -60z" stroke="#e4a252" stroke-width="10" />
<path d="M2670 2820 l0 -30 15 0 15 0 0 30 0 30 -15 0 -15 0 0 -30z" stroke="#e4a252" stroke-width="10" />
<path d="M2490 2805 l0 -15 15 0 15 0 0 15 0 15 -15 0 -15 0 0 -15z" stroke="#e4a252" stroke-width="10" />
<path d="M2310 2685 l0 -15 15 0 15 0 0 15 0 15 -15 0 -15 0 0 -15z" stroke="#e4a252" stroke-width="10" />
<path d="M2850 2625 l0 -15 -15 0 -15 0 0 -30 0 -30 15 0 15 0 0 15 0 15 15 0 15 0 0 30 0 30 -15 0 -15 0 0 -15z" stroke="#e4a252" stroke-width="10" />
<path d="M3180 2565 l0 -15 -30 0 -30 0 0 -15 0 -15 45 0 45 0 0 15 0 15 30 0 30 0 0 15 0 15 -45 0 -45 0 0 -15z" stroke="#e4a252" stroke-width="10" />
<path d="M2640 2520 l0 -30 15 0 15 0 0 -15 0 -15 75 0 75 0 0 15 0 15 -60 0 -60 0 0 30 0 30 -30 0 -30 0 0 -30z" stroke="#e4a252" stroke-width="10" />
<path d="M2760 2415 l0 -15 30 0 30 0 0 15 0 15 -30 0 -30 0 0 -15z" stroke="#e4a252" stroke-width="10" />
<path d="M2430 2295 l0 -45 -15 0 -15 0 0 -45 0 -45 -30 0 -30 0 0 -30 0 -30 30 0 30 0 0 15 0 15 15 0 15 0 0 30 0 30 15 0 15 0 0 75 0 75 -15 0 -15 0 0 -45z" stroke="#e4a252" stroke-width="10" />
<path d="M1800 3030 l0 -30 30 0 30 0 0 30 0 30 -30 0 -30 0 0 -30z" stroke="#e4a252" stroke-width="10" />
<path d="M1800 2955 l0 -15 -15 0 -15 0 0 -15 0 -15 30 0 30 0 0 15 0 15 60 0 60 0 0 15 0 15 -75 0 -75 0 0 -15z" stroke="#e4a252" stroke-width="10" />
<path d="M1560 2925 l0 -15 30 0 30 0 0 15 0 15 -30 0 -30 0 0 -15z" stroke="#e4a252" stroke-width="10" />
<path d="M1830 2835 l0 -45 -15 0 -15 0 0 -15 0 -15 -15 0 -15 0 0 -15 0 -15 -15 0 -15 0 0 -15 0 -15 15 0 15 0 0 -45 0 -45 30 0 30 0 0 30 0 30 -15 0 -15 0 0 15 0 15 15 0 15 0 0 15 0 15 -15 0 -15 0 0 15 0 15 60 0 60 0 0 15 0 15 -30 0 -30 0 0 45 0 45 -15 0 -15 0 0 -45z" stroke="#e4a252" stroke-width="10" />
<path d="M1770 2835 l0 -15 15 0 15 0 0 15 0 15 -15 0 -15 0 0 -15z" stroke="#e4a252" stroke-width="10" />
<path d="M1650 2805 l0 -15 15 0 15 0 0 15 0 15 -15 0 -15 0 0 -15z" stroke="#e4a252" stroke-width="10" />
<path d="M4080 3180 l0 -30 -30 0 -30 0 0 -15 0 -15 30 0 30 0 0 -15 0 -15 15 0 15 0 0 -30 0 -30 15 0 15 0 0 -30 0 -30 15 0 15 0 0 30 0 30 15 0 15 0 0 30 0 30 -15 0 -15 0 0 15 0 15 -15 0 -15 0 0 15 0 15 -15 0 -15 0 0 30 0 30 -15 0 -15 0 0 -30z" stroke="#e4a252" stroke-width="10" />
<path d="M3300 2280 l0 -30 15 0 15 0 0 15 0 15 30 0 30 0 0 15 0 15 -45 0 -45 0 0 -30z" stroke="#e4a252" stroke-width="10" />
<path d="M3420 2205 l0 -75 -30 0 -30 0 0 -15 0 -15 30 0 30 0 0 -15 0 -15 15 0 15 0 0 105 0 105 -15 0 -15 0 0 -75z" stroke="#e4a252" stroke-width="10" />
<path d="M3420 2025 l0 -15 45 0 45 0 0 -15 0 -15 15 0 15 0 0 30 0 30 -60 0 -60 0 0 -15z" stroke="#e4a252" stroke-width="10" />
<path d="M3630 2025 l0 -15 60 0 60 0 0 -75 0 -75 -15 0 -15 0 0 -45 0 -45 75 0 75 0 0 15 0 15 -30 0 -30 0 0 15 0 15 -15 0 -15 0 0 105 0 105 -75 0 -75 0 0 -15z" stroke="#e4a252" stroke-width="10" />
</g>
<g transform="translate(0.000000,600.000000) scale(0.100000,-0.100000)" fill="#da9c69" stroke="none">
<path d="M2310 4455 l0 -45 15 0 15 0 0 15 0 15 90 0 90 0 0 -45 0 -45 30 0 30 0 0 -15 0 -15 15 0 15 0 0 -15 0 -15 15 0 15 0 0 -15 0 -15 15 0 15 0 0 -15 0 -15 15 0 15 0 0 30 0 30 -15 0 -15 0 0 15 0 15 -15 0 -15 0 0 15 0 15 -15 0 -15 0 0 15 0 15 -30 0 -30 0 0 45 0 45 -15 0 -15 0 0 15 0 15 -105 0 -105 0 0 -45z" stroke="#da9c69" stroke-width="10" />
<path d="M3450 4455 l0 -15 -15 0 -15 0 0 -15 0 -15 -30 0 -30 0 0 -30 0 -30 -15 0 -15 0 0 -60 0 -60 15 0 15 0 0 30 0 30 30 0 30 0 0 15 0 15 15 0 15 0 0 15 0 15 15 0 15 0 0 60 0 60 -15 0 -15 0 0 -15z" stroke="#da9c69" stroke-width="10" />
<path d="M3510 4410 l0 -60 -15 0 -15 0 0 -15 0 -15 45 0 45 0 0 -15 0 -15 45 0 45 0 0 -15 0 -15 -15 0 -15 0 0 -15 0 -15 -15 0 -15 0 0 -15 0 -15 15 0 15 0 0 15 0 15 15 0 15 0 0 15 0 15 45 0 45 0 0 15 0 15 15 0 15 0 0 15 0 15 -15 0 -15 0 0 15 0 15 60 0 60 0 0 15 0 15 -75 0 -75 0 0 -15 0 -15 -45 0 -45 0 0 15 0 15 -30 0 -30 0 0 30 0 30 -15 0 -15 0 0 15 0 15 -15 0 -15 0 0 -60z" stroke="#da9c69" stroke-width="10" />
<path d="M2340 4335 l0 -45 15 0 15 0 0 45 0 45 -15 0 -15 0 0 -45z" stroke="#da9c69" stroke-width="10" />
<path d="M2430 4365 l0 -15 30 0 30 0 0 15 0 15 -30 0 -30 0 0 -15z" stroke="#da9c69" stroke-width="10" />
<path d="M2520 4260 l0 -30 15 0 15 0 0 30 0 30 -15 0 -15 0 0 -30z" stroke="#da9c69" stroke-width="10" />
<path d="M2460 4215 l0 -45 15 0 15 0 0 -30 0 -30 15 0 15 0 0 45 0 45 -15 0 -15 0 0 30 0 30 -15 0 -15 0 0 -45z" stroke="#da9c69" stroke-width="10" />
<path d="M2370 4215 l0 -15 15 0 15 0 0 15 0 15 -15 0 -15 0 0 -15z" stroke="#da9c69" stroke-width="10" />
<path d="M3810 4215 l0 -15 15 0 15 0 0 15 0 15 -15 0 -15 0 0 -15z" stroke="#da9c69" stroke-width="10" />
<path d="M2400 4155 l0 -15 15 0 15 0 0 15 0 15 -15 0 -15 0 0 -15z" stroke="#da9c69" stroke-width="10" />
<path d="M2850 3885 l0 -15 -15 0 -15 0 0 -15 0 -15 -15 0 -15 0 0 -15 0 -15 30 0 30 0 0 15 0 15 15 0 15 0 0 30 0 30 -15 0 -15 0 0 -15z" stroke="#da9c69" stroke-width="10" />
<path d="M2910 3870 l0 -30 30 0 30 0 0 30 0 30 -30 0 -30 0 0 -30z" stroke="#da9c69" stroke-width="10" />
<path d="M3000 3870 l0 -30 15 0 15 0 0 30 0 30 -15 0 -15 0 0 -30z" stroke="#da9c69" stroke-width="10" />
<path d="M3060 3870 l0 -30 15 0 15 0 0 30 0 30 -15 0 -15 0 0 -30z" stroke="#da9c69" stroke-width="10" />
<path d="M3120 3855 l0 -45 15 0 15 0 0 -15 0 -15 45 0 45 0 0 15 0 15 -30 0 -30 0 0 15 0 15 -15 0 -15 0 0 30 0 30 -15 0 -15 0 0 -45z" stroke="#da9c69" stroke-width="10" />
<path d="M2130 3780 l0 -60 15 0 15 0 0 45 0 45 60 0 60 0 0 -45 0 -45 30 0 30 0 0 15 0 15 -15 0 -15 0 0 45 0 45 -90 0 -90 0 0 -60z" stroke="#da9c69" stroke-width="10" />
<path d="M2310 3645 l0 -15 15 0 15 0 0 15 0 15 -15 0 -15 0 0 -15z" stroke="#da9c69" stroke-width="10" />
<path d="M2370 3645 l0 -15 15 0 15 0 0 15 0 15 -15 0 -15 0 0 -15z" stroke="#da9c69" stroke-width="10" />
<path d="M3090 3645 l0 -15 15 0 15 0 0 15 0 15 -15 0 -15 0 0 -15z" stroke="#da9c69" stroke-width="10" />
<path d="M3150 3645 l0 -15 15 0 15 0 0 15 0 15 -15 0 -15 0 0 -15z" stroke="#da9c69" stroke-width="10" />
<path d="M2610 3495 l0 -15 -15 0 -15 0 0 -30 0 -30 -15 0 -15 0 0 -45 0 -45 -30 0 -30 0 0 15 0 15 15 0 15 0 0 30 0 30 -15 0 -15 0 0 -15 0 -15 -15 0 -15 0 0 -15 0 -15 -30 0 -30 0 0 -15 0 -15 -30 0 -30 0 0 45 0 45 -15 0 -15 0 0 -60 0 -60 30 0 30 0 0 -30 0 -30 15 0 15 0 0 15 0 15 30 0 30 0 0 -15 0 -15 -15 0 -15 0 0 -15 0 -15 -15 0 -15 0 0 -15 0 -15 15 0 15 0 0 15 0 15 15 0 15 0 0 15 0 15 15 0 15 0 0 30 0 30 15 0 15 0 0 -30 0 -30 15 0 15 0 0 -75 0 -75 15 0 15 0 0 -30 0 -30 15 0 15 0 0 -15 0 -15 60 0 60 0 0 15 0 15 45 0 45 0 0 15 0 15 -30 0 -30 0 0 15 0 15 15 0 15 0 0 30 0 30 -15 0 -15 0 0 -15 0 -15 -15 0 -15 0 0 -15 0 -15 -15 0 -15 0 0 15 0 15 -45 0 -45 0 0 45 0 45 -15 0 -15 0 0 30 0 30 15 0 15 0 0 -15 0 -15 15 0 15 0 0 30 0 30 -15 0 -15 0 0 30 0 30 15 0 15 0 0 15 0 15 -15 0 -15 0 0 -15 0 -15 -15 0 -15 0 0 30 0 30 15 0 15 0 0 15 0 15 15 0 15 0 0 30 0 30 -15 0 -15 0 0 -15z" stroke="#da9c69" stroke-width="10" />
<path d="M2670 3480 l0 -30 30 0 30 0 0 -15 0 -15 15 0 15 0 0 -30 0 -30 15 0 15 0 0 45 0 45 -15 0 -15 0 0 15 0 15 -30 0 -30 0 0 15 0 15 -15 0 -15 0 0 -30z" stroke="#da9c69" stroke-width="10" />
<path d="M3360 3435 l0 -15 15 0 15 0 0 15 0 15 -15 0 -15 0 0 -15z" stroke="#da9c69" stroke-width="10" />
<path d="M3420 3435 l0 -15 15 0 15 0 0 15 0 15 -15 0 -15 0 0 -15z" stroke="#da9c69" stroke-width="10" />
<path d="M2250 3405 l0 -15 -30 0 -30 0 0 -30 0 -30 -30 0 -30 0 0 -75 0 -75 -15 0 -15 0 0 -30 0 -30 -15 0 -15 0 0 -30 0 -30 15 0 15 0 0 15 0 15 15 0 15 0 0 30 0 30 15 0 15 0 0 75 0 75 30 0 30 0 0 30 0 30 30 0 30 0 0 30 0 30 -15 0 -15 0 0 -15z" stroke="#da9c69" stroke-width="10" />
<path d="M3120 3285 l0 -45 15 0 15 0 0 30 0 30 15 0 15 0 0 15 0 15 -30 0 -30 0 0 -45z" stroke="#da9c69" stroke-width="10" />
<path d="M3330 3300 l0 -30 45 0 45 0 0 15 0 15 -30 0 -30 0 0 15 0 15 -15 0 -15 0 0 -30z" stroke="#da9c69" stroke-width="10" />
<path d="M3810 3315 l0 -15 -30 0 -30 0 0 -15 0 -15 45 0 45 0 0 15 0 15 30 0 30 0 0 -15 0 -15 30 0 30 0 0 15 0 15 -15 0 -15 0 0 15 0 15 -60 0 -60 0 0 -15z" stroke="#da9c69" stroke-width="10" />
<path d="M2310 3240 l0 -30 15 0 15 0 0 30 0 30 -15 0 -15 0 0 -30z" stroke="#da9c69" stroke-width="10" />
<path d="M2790 3225 l0 -15 -15 0 -15 0 0 -15 0 -15 30 0 30 0 0 15 0 15 30 0 30 0 0 -45 0 -45 15 0 15 0 0 60 0 60 -60 0 -60 0 0 -15z" stroke="#da9c69" stroke-width="10" />
<path d="M3300 3225 l0 -15 15 0 15 0 0 15 0 15 -15 0 -15 0 0 -15z" stroke="#da9c69" stroke-width="10" />
<path d="M3720 3210 l0 -30 15 0 15 0 0 30 0 30 -15 0 -15 0 0 -30z" stroke="#da9c69" stroke-width="10" />
<path d="M4020 3225 l0 -15 -15 0 -15 0 0 -45 0 -45 15 0 15 0 0 15 0 15 30 0 30 0 0 30 0 30 15 0 15 0 0 -30 0 -30 15 0 15 0 0 -15 0 -15 15 0 15 0 0 -15 0 -15 15 0 15 0 0 -15 0 -15 15 0 15 0 0 -15 0 -15 15 0 15 0 0 60 0 60 -15 0 -15 0 0 15 0 15 -15 0 -15 0 0 15 0 15 -15 0 -15 0 0 15 0 15 -75 0 -75 0 0 -15z" stroke="#da9c69" stroke-width="10" />
<path d="M1770 3165 l0 -45 -15 0 -15 0 0 -30 0 -30 -15 0 -15 0 0 15 0 15 -15 0 -15 0 0 -45 0 -45 -15 0 -15 0 0 45 0 45 -15 0 -15 0 0 -30 0 -30 -30 0 -30 0 0 -15 0 -15 -15 0 -15 0 0 -45 0 -45 15 0 15 0 0 15 0 15 75 0 75 0 0 15 0 15 15 0 15 0 0 -15 0 -15 30 0 30 0 0 15 0 15 90 0 90 0 0 30 0 30 -15 0 -15 0 0 15 0 15 -15 0 -15 0 0 30 0 30 -15 0 -15 0 0 30 0 30 -15 0 -15 0 0 15 0 15 -15 0 -15 0 0 -30 0 -30 15 0 15 0 0 -30 0 -30 -30 0 -30 0 0 60 0 60 -15 0 -15 0 0 -45z m90 -135 l0 -30 -30 0 -30 0 0 30 0 30 30 0 30 0 0 -30z" stroke="#da9c69" stroke-width="10" />
<path d="M3810 3165 l0 -15 15 0 15 0 0 15 0 15 -15 0 -15 0 0 -15z" stroke="#da9c69" stroke-width="10" />
<path d="M2430 3120 l0 -30 -75 0 -75 0 0 -15 0 -15 -15 0 -15 0 0 -15 0 -15 -30 0 -30 0 0 -15 0 -15 45 0 45 0 0 15 0 15 75 0 75 0 0 30 0 30 15 0 15 0 0 30 0 30 -15 0 -15 0 0 -30z" stroke="#da9c69" stroke-width="10" />
<path d="M3120 3135 l0 -15 15 0 15 0 0 15 0 15 -15 0 -15 0 0 -15z" stroke="#da9c69" stroke-width="10" />
<path d="M3180 3135 l0 -15 15 0 15 0 0 15 0 15 -15 0 -15 0 0 -15z" stroke="#da9c69" stroke-width="10" />
<path d="M2850 3060 l0 -30 15 0 15 0 0 30 0 30 -15 0 -15 0 0 -30z" stroke="#da9c69" stroke-width="10" />
<path d="M4080 3075 l0 -15 -15 0 -15 0 0 -15 0 -15 15 0 15 0 0 15 0 15 15 0 15 0 0 15 0 15 -15 0 -15 0 0 -15z" stroke="#da9c69" stroke-width="10" />
<path d="M4440 3015 l0 -15 -15 0 -15 0 0 -30 0 -30 15 0 15 0 0 15 0 15 15 0 15 0 0 30 0 30 -15 0 -15 0 0 -15z" stroke="#da9c69" stroke-width="10" />
<path d="M4500 2970 l0 -60 -15 0 -15 0 0 -15 0 -15 15 0 15 0 0 -30 0 -30 15 0 15 0 0 105 0 105 -15 0 -15 0 0 -60z" stroke="#da9c69" stroke-width="10" />
<path d="M2550 2925 l0 -15 -15 0 -15 0 0 -30 0 -30 -30 0 -30 0 0 -15 0 -15 30 0 30 0 0 -30 0 -30 -15 0 -15 0 0 -15 0 -15 30 0 30 0 0 -15 0 -15 -30 0 -30 0 0 -15 0 -15 -15 0 -15 0 0 -15 0 -15 -60 0 -60 0 0 15 0 15 15 0 15 0 0 15 0 15 -15 0 -15 0 0 -15 0 -15 -30 0 -30 0 0 -30 0 -30 -15 0 -15 0 0 -15 0 -15 30 0 30 0 0 -15 0 -15 -15 0 -15 0 0 -15 0 -15 15 0 15 0 0 15 0 15 15 0 15 0 0 15 0 15 105 0 105 0 0 15 0 15 15 0 15 0 0 60 0 60 -15 0 -15 0 0 30 0 30 15 0 15 0 0 75 0 75 -15 0 -15 0 0 -15z" stroke="#da9c69" stroke-width="10" />
<path d="M1860 2850 l0 -60 30 0 30 0 0 -15 0 -15 15 0 15 0 0 45 0 45 -15 0 -15 0 0 15 0 15 -15 0 -15 0 0 15 0 15 -15 0 -15 0 0 -60z" stroke="#da9c69" stroke-width="10" />
<path d="M2250 2895 l0 -15 -15 0 -15 0 0 -15 0 -15 -15 0 -15 0 0 -30 0 -30 -15 0 -15 0 0 -15 0 -15 30 0 30 0 0 30 0 30 15 0 15 0 0 15 0 15 15 0 15 0 0 30 0 30 -15 0 -15 0 0 -15z" stroke="#da9c69" stroke-width="10" />
<path d="M2310 2865 l0 -45 15 0 15 0 0 -30 0 -30 30 0 30 0 0 15 0 15 -15 0 -15 0 0 30 0 30 -15 0 -15 0 0 30 0 30 -15 0 -15 0 0 -45z" stroke="#da9c69" stroke-width="10" />
<path d="M2610 2745 l0 -165 15 0 15 0 0 -15 0 -15 30 0 30 0 0 -30 0 -30 60 0 60 0 0 -30 0 -30 45 0 45 0 0 15 0 15 -15 0 -15 0 0 60 0 60 -15 0 -15 0 0 -15 0 -15 -15 0 -15 0 0 30 0 30 15 0 15 0 0 15 0 15 15 0 15 0 0 15 0 15 15 0 15 0 0 45 0 45 15 0 15 0 0 30 0 30 15 0 15 0 0 15 0 15 15 0 15 0 0 15 0 15 45 0 45 0 0 15 0 15 -60 0 -60 0 0 -15 0 -15 -15 0 -15 0 0 -15 0 -15 -30 0 -30 0 0 -15 0 -15 -15 0 -15 0 0 -75 0 -75 -15 0 -15 0 0 -15 0 -15 -15 0 -15 0 0 -30 0 -30 -15 0 -15 0 0 15 0 15 -30 0 -30 0 0 15 0 15 -15 0 -15 0 0 15 0 15 -15 0 -15 0 0 30 0 30 75 0 75 0 0 15 0 15 -15 0 -15 0 0 15 0 15 -45 0 -45 0 0 45 0 45 -15 0 -15 0 0 15 0 15 -15 0 -15 0 0 -165z" stroke="#da9c69" stroke-width="10" />
<path d="M1560 2850 l0 -30 15 0 15 0 0 30 0 30 -15 0 -15 0 0 -30z" stroke="#da9c69" stroke-width="10" />
<path d="M1800 2850 l0 -30 -15 0 -15 0 0 15 0 15 -15 0 -15 0 0 -15 0 -15 15 0 15 0 0 -15 0 -15 -30 0 -30 0 0 15 0 15 -15 0 -15 0 0 -15 0 -15 -15 0 -15 0 0 -15 0 -15 30 0 30 0 0 -15 0 -15 -15 0 -15 0 0 -30 0 -30 15 0 15 0 0 15 0 15 15 0 15 0 0 15 0 15 15 0 15 0 0 15 0 15 15 0 15 0 0 15 0 15 15 0 15 0 0 45 0 45 -15 0 -15 0 0 -30z" stroke="#da9c69" stroke-width="10" />
<path d="M1620 2835 l0 -15 15 0 15 0 0 15 0 15 -15 0 -15 0 0 -15z" stroke="#da9c69" stroke-width="10" />
<path d="M3030 2820 l0 -30 30 0 30 0 0 15 0 15 -15 0 -15 0 0 15 0 15 -15 0 -15 0 0 -30z" stroke="#da9c69" stroke-width="10" />
<path d="M2970 2745 l0 -75 30 0 30 0 0 45 0 45 -15 0 -15 0 0 30 0 30 -15 0 -15 0 0 -75z" stroke="#da9c69" stroke-width="10" />
<path d="M1800 2745 l0 -15 15 0 15 0 0 -45 0 -45 45 0 45 0 0 15 0 15 -15 0 -15 0 0 30 0 30 -15 0 -15 0 0 15 0 15 -30 0 -30 0 0 -15z" stroke="#da9c69" stroke-width="10" />
<path d="M3420 2685 l0 -15 15 0 15 0 0 15 0 15 -15 0 -15 0 0 -15z" stroke="#da9c69" stroke-width="10" />
<path d="M3480 2685 l0 -15 15 0 15 0 0 15 0 15 -15 0 -15 0 0 -15z" stroke="#da9c69" stroke-width="10" />
<path d="M1740 2655 l0 -15 -15 0 -15 0 0 -15 0 -15 15 0 15 0 0 15 0 15 15 0 15 0 0 15 0 15 -15 0 -15 0 0 -15z" stroke="#da9c69" stroke-width="10" />
<path d="M3180 2655 l0 -15 -15 0 -15 0 0 -15 0 -15 15 0 15 0 0 -15 0 -15 -15 0 -15 0 0 -15 0 -15 15 0 15 0 0 15 0 15 45 0 45 0 0 -15 0 -15 15 0 15 0 0 45 0 45 -15 0 -15 0 0 15 0 15 -15 0 -15 0 0 -30 0 -30 -15 0 -15 0 0 30 0 30 -15 0 -15 0 0 -15z" stroke="#da9c69" stroke-width="10" />
<path d="M2370 2535 l0 -15 -15 0 -15 0 0 -15 0 -15 -15 0 -15 0 0 -45 0 -45 15 0 15 0 0 15 0 15 15 0 15 0 0 15 0 15 15 0 15 0 0 45 0 45 -15 0 -15 0 0 -15z" stroke="#da9c69" stroke-width="10" />
<path d="M2460 2460 l0 -90 15 0 15 0 0 15 0 15 15 0 15 0 0 -30 0 -30 30 0 30 0 0 -15 0 -15 30 0 30 0 0 15 0 15 -15 0 -15 0 0 30 0 30 -30 0 -30 0 0 45 0 45 -15 0 -15 0 0 15 0 15 -15 0 -15 0 0 15 0 15 -15 0 -15 0 0 -90z" stroke="#da9c69" stroke-width="10" />
<path d="M1590 2505 l0 -15 15 0 15 0 0 15 0 15 -15 0 -15 0 0 -15z" stroke="#da9c69" stroke-width="10" />
<path d="M1650 2490 l0 -30 30 0 30 0 0 15 0 15 -15 0 -15 0 0 15 0 15 -15 0 -15 0 0 -30z" stroke="#da9c69" stroke-width="10" />
<path d="M1530 2415 l0 -45 15 0 15 0 0 45 0 45 -15 0 -15 0 0 -45z" stroke="#da9c69" stroke-width="10" />
<path d="M1650 2415 l0 -15 15 0 15 0 0 -15 0 -15 15 0 15 0 0 15 0 15 -15 0 -15 0 0 15 0 15 -15 0 -15 0 0 -15z" stroke="#da9c69" stroke-width="10" />
<path d="M2400 2415 l0 -15 -15 0 -15 0 0 -15 0 -15 -15 0 -15 0 0 -75 0 -75 -30 0 -30 0 0 -15 0 -15 -15 0 -15 0 0 -15 0 -15 30 0 30 0 0 -15 0 -15 -15 0 -15 0 0 -15 0 -15 15 0 15 0 0 15 0 15 15 0 15 0 0 15 0 15 30 0 30 0 0 75 0 75 15 0 15 0 0 60 0 60 -15 0 -15 0 0 -15z" stroke="#da9c69" stroke-width="10" />
<path d="M2700 2370 l0 -30 15 0 15 0 0 30 0 30 -15 0 -15 0 0 -30z" stroke="#da9c69" stroke-width="10" />
<path d="M3420 2385 l0 -15 -15 0 -15 0 0 -15 0 -15 -60 0 -60 0 0 15 0 15 -15 0 -15 0 0 -30 0 -30 75 0 75 0 0 -15 0 -15 -15 0 -15 0 0 -45 0 -45 -15 0 -15 0 0 -45 0 -45 15 0 15 0 0 15 0 15 30 0 30 0 0 75 0 75 15 0 15 0 0 60 0 60 -15 0 -15 0 0 -15z" stroke="#da9c69" stroke-width="10" />
<path d="M3480 2355 l0 -45 15 0 15 0 0 15 0 15 15 0 15 0 0 15 0 15 -15 0 -15 0 0 15 0 15 -15 0 -15 0 0 -45z" stroke="#da9c69" stroke-width="10" />
<path d="M2760 2355 l0 -15 15 0 15 0 0 15 0 15 -15 0 -15 0 0 -15z" stroke="#da9c69" stroke-width="10" />
<path d="M3180 2340 l0 -30 -15 0 -15 0 0 -15 0 -15 -45 0 -45 0 0 -15 0 -15 45 0 45 0 0 15 0 15 15 0 15 0 0 15 0 15 15 0 15 0 0 30 0 30 -15 0 -15 0 0 -30z" stroke="#da9c69" stroke-width="10" />
<path d="M2460 2325 l0 -15 15 0 15 0 0 15 0 15 -15 0 -15 0 0 -15z" stroke="#da9c69" stroke-width="10" />
<path d="M2460 2235 l0 -15 15 0 15 0 0 -15 0 -15 15 0 15 0 0 15 0 15 -15 0 -15 0 0 15 0 15 -15 0 -15 0 0 -15z" stroke="#da9c69" stroke-width="10" />
<path d="M3450 2160 l0 -90 -15 0 -15 0 0 15 0 15 -15 0 -15 0 0 -15 0 -15 -15 0 -15 0 0 -45 0 -45 15 0 15 0 0 15 0 15 15 0 15 0 0 15 0 15 60 0 60 0 0 60 0 60 -15 0 -15 0 0 30 0 30 -15 0 -15 0 0 15 0 15 -15 0 -15 0 0 -90z" stroke="#da9c69" stroke-width="10" />
<path d="M3120 2205 l0 -15 15 0 15 0 0 15 0 15 -15 0 -15 0 0 -15z" stroke="#da9c69" stroke-width="10" />
<path d="M2430 2175 l0 -15 15 0 15 0 0 -15 0 -15 15 0 15 0 0 15 0 15 -15 0 -15 0 0 15 0 15 -15 0 -15 0 0 -15z" stroke="#da9c69" stroke-width="10" />
<path d="M3570 2130 l0 -30 15 0 15 0 0 -15 0 -15 15 0 15 0 0 -15 0 -15 75 0 75 0 0 -105 0 -105 15 0 15 0 0 -15 0 -15 30 0 30 0 0 -15 0 -15 15 0 15 0 0 45 0 45 -30 0 -30 0 0 75 0 75 -15 0 -15 0 0 30 0 30 -15 0 -15 0 0 15 0 15 -30 0 -30 0 0 15 0 15 -15 0 -15 0 0 -30 0 -30 -15 0 -15 0 0 30 0 30 -30 0 -30 0 0 15 0 15 -15 0 -15 0 0 -30z" stroke="#da9c69" stroke-width="10" />
<path d="M2310 2055 l0 -15 15 0 15 0 0 15 0 15 -15 0 -15 0 0 -15z" stroke="#da9c69" stroke-width="10" />
<path d="M2370 2055 l0 -15 15 0 15 0 0 15 0 15 -15 0 -15 0 0 -15z" stroke="#da9c69" stroke-width="10" />
<path d="M2610 2025 l0 -15 -15 0 -15 0 0 -30 0 -30 15 0 15 0 0 15 0 15 15 0 15 0 0 30 0 30 -15 0 -15 0 0 -15z" stroke="#da9c69" stroke-width="10" />
<path d="M2670 2010 l0 -30 15 0 15 0 0 -90 0 -90 30 0 30 0 0 -15 0 -15 30 0 30 0 0 15 0 15 -15 0 -15 0 0 15 0 15 -15 0 -15 0 0 30 0 30 -15 0 -15 0 0 60 0 60 -15 0 -15 0 0 15 0 15 -15 0 -15 0 0 -30z" stroke="#da9c69" stroke-width="10" />
<path d="M3720 1965 l0 -15 -15 0 -15 0 0 -15 0 -15 -15 0 -15 0 0 -45 0 -45 -15 0 -15 0 0 -30 0 -30 -30 0 -30 0 0 -15 0 -15 45 0 45 0 0 30 0 30 30 0 30 0 0 30 0 30 15 0 15 0 0 60 0 60 -15 0 -15 0 0 -15z" stroke="#da9c69" stroke-width="10" />
<path d="M2640 1845 l0 -15 -15 0 -15 0 0 -15 0 -15 -15 0 -15 0 0 -30 0 -30 15 0 15 0 0 15 0 15 15 0 15 0 0 15 0 15 15 0 15 0 0 30 0 30 -15 0 -15 0 0 -15z" stroke="#da9c69" stroke-width="10" />
<path d="M2670 1725 l0 -15 15 0 15 0 0 15 0 15 -15 0 -15 0 0 -15z" stroke="#da9c69" stroke-width="10" />
</g>
<g transform="translate(0.000000,600.000000) scale(0.100000,-0.100000)" fill="#f3aa5c" stroke="none">
<path d="M2310 4380 l0 -30 15 0 15 0 0 15 0 15 30 0 30 0 0 15 0 15 -45 0 -45 0 0 -30z" stroke="#f3aa5c" stroke-width="10" />
<path d="M2460 4395 l0 -15 15 0 15 0 0 15 0 15 -15 0 -15 0 0 -15z" stroke="#f3aa5c" stroke-width="10" />
<path d="M2490 4260 l0 -30 15 0 15 0 0 -30 0 -30 90 0 90 0 0 30 0 30 -15 0 -15 0 0 -15 0 -15 -60 0 -60 0 0 15 0 15 -15 0 -15 0 0 30 0 30 -15 0 -15 0 0 -30z" stroke="#f3aa5c" stroke-width="10" />
<path d="M3420 4275 l0 -15 -30 0 -30 0 0 -15 0 -15 -15 0 -15 0 0 -30 0 -30 15 0 15 0 0 30 0 30 15 0 15 0 0 -30 0 -30 15 0 15 0 0 15 0 15 90 0 90 0 0 15 0 15 15 0 15 0 0 15 0 15 -60 0 -60 0 0 15 0 15 -15 0 -15 0 0 -15 0 -15 -15 0 -15 0 0 15 0 15 -15 0 -15 0 0 -15z" stroke="#f3aa5c" stroke-width="10" />
<path d="M3840 4245 l0 -15 15 0 15 0 0 15 0 15 -15 0 -15 0 0 -15z" stroke="#f3aa5c" stroke-width="10" />
<path d="M2340 4215 l0 -15 15 0 15 0 0 -30 0 -30 15 0 15 0 0 -30 0 -30 15 0 15 0 0 -15 0 -15 15 0 15 0 0 30 0 30 -15 0 -15 0 0 15 0 15 -15 0 -15 0 0 30 0 30 -15 0 -15 0 0 15 0 15 -15 0 -15 0 0 -15z" stroke="#f3aa5c" stroke-width="10" />
<path d="M3630 4215 l0 -15 -15 0 -15 0 0 -30 0 -30 120 0 120 0 0 30 0 30 -15 0 -15 0 0 15 0 15 -90 0 -90 0 0 -15z" stroke="#f3aa5c" stroke-width="10" />
<path d="M2490 4080 l0 -30 15 0 15 0 0 30 0 30 -15 0 -15 0 0 -30z" stroke="#f3aa5c" stroke-width="10" />
<path d="M2790 3765 l0 -15 75 0 75 0 0 -15 0 -15 15 0 15 0 0 30 0 30 -90 0 -90 0 0 -15z" stroke="#f3aa5c" stroke-width="10" />
<path d="M3000 3735 l0 -15 15 0 15 0 0 -15 0 -15 15 0 15 0 0 -15 0 -15 15 0 15 0 0 30 0 30 -30 0 -30 0 0 15 0 15 -15 0 -15 0 0 -15z" stroke="#f3aa5c" stroke-width="10" />
<path d="M3150 3735 l0 -15 -15 0 -15 0 0 -30 0 -30 15 0 15 0 0 15 0 15 15 0 15 0 0 15 0 15 30 0 30 0 0 15 0 15 -45 0 -45 0 0 -15z" stroke="#f3aa5c" stroke-width="10" />
<path d="M2130 3690 l0 -30 45 0 45 0 0 -15 0 -15 15 0 15 0 0 30 0 30 -45 0 -45 0 0 15 0 15 -15 0 -15 0 0 -30z" stroke="#f3aa5c" stroke-width="10" />
<path d="M2280 3660 l0 -30 15 0 15 0 0 15 0 15 15 0 15 0 0 15 0 15 -30 0 -30 0 0 -30z" stroke="#f3aa5c" stroke-width="10" />
<path d="M2310 3585 l0 -15 15 0 15 0 0 15 0 15 -15 0 -15 0 0 -15z" stroke="#f3aa5c" stroke-width="10" />
<path d="M2370 3585 l0 -15 15 0 15 0 0 15 0 15 -15 0 -15 0 0 -15z" stroke="#f3aa5c" stroke-width="10" />
<path d="M3090 3585 l0 -15 15 0 15 0 0 15 0 15 -15 0 -15 0 0 -15z" stroke="#f3aa5c" stroke-width="10" />
<path d="M3150 3585 l0 -15 15 0 15 0 0 15 0 15 -15 0 -15 0 0 -15z" stroke="#f3aa5c" stroke-width="10" />
<path d="M2580 3390 l0 -30 15 0 15 0 0 -30 0 -30 90 0 90 0 0 30 0 30 -15 0 -15 0 0 -15 0 -15 -60 0 -60 0 0 15 0 15 -15 0 -15 0 0 30 0 30 -15 0 -15 0 0 -30z" stroke="#f3aa5c" stroke-width="10" />
<path d="M3360 3375 l0 -15 15 0 15 0 0 15 0 15 -15 0 -15 0 0 -15z" stroke="#f3aa5c" stroke-width="10" />
<path d="M3420 3375 l0 -15 15 0 15 0 0 15 0 15 -15 0 -15 0 0 -15z" stroke="#f3aa5c" stroke-width="10" />
<path d="M2340 3255 l0 -15 15 0 15 0 0 -30 0 -30 15 0 15 0 0 15 0 15 15 0 15 0 0 15 0 15 -30 0 -30 0 0 15 0 15 -15 0 -15 0 0 -15z" stroke="#f3aa5c" stroke-width="10" />
<path d="M2460 3225 l0 -15 -15 0 -15 0 0 -15 0 -15 -15 0 -15 0 0 -30 0 -30 15 0 15 0 0 15 0 15 15 0 15 0 0 15 0 15 15 0 15 0 0 30 0 30 -15 0 -15 0 0 -15z" stroke="#f3aa5c" stroke-width="10" />
<path d="M2520 3210 l0 -30 15 0 15 0 0 30 0 30 -15 0 -15 0 0 -30z" stroke="#f3aa5c" stroke-width="10" />
<path d="M3120 3210 l0 -30 30 0 30 0 0 -15 0 -15 75 0 75 0 0 30 0 30 45 0 45 0 0 15 0 15 -45 0 -45 0 0 -15 0 -15 -15 0 -15 0 0 -15 0 -15 -45 0 -45 0 0 15 0 15 -30 0 -30 0 0 15 0 15 -15 0 -15 0 0 -30z" stroke="#f3aa5c" stroke-width="10" />
<path d="M3900 3225 l0 -15 -30 0 -30 0 0 -30 0 -30 -15 0 -15 0 0 -30 0 -30 15 0 15 0 0 30 0 30 15 0 15 0 0 15 0 15 30 0 30 0 0 15 0 15 15 0 15 0 0 15 0 15 -30 0 -30 0 0 -15z" stroke="#f3aa5c" stroke-width="10" />
<path d="M2310 3195 l0 -15 -15 0 -15 0 0 -15 0 -15 -30 0 -30 0 0 -15 0 -15 -15 0 -15 0 0 -15 0 -15 -15 0 -15 0 0 -15 0 -15 -15 0 -15 0 0 -30 0 -30 15 0 15 0 0 15 0 15 15 0 15 0 0 15 0 15 15 0 15 0 0 15 0 15 15 0 15 0 0 15 0 15 30 0 30 0 0 15 0 15 15 0 15 0 0 30 0 30 -15 0 -15 0 0 -15z" stroke="#f3aa5c" stroke-width="10" />
<path d="M2610 3195 l0 -15 15 0 15 0 0 15 0 15 -15 0 -15 0 0 -15z" stroke="#f3aa5c" stroke-width="10" />
<path d="M3720 3150 l0 -30 15 0 15 0 0 -15 0 -15 15 0 15 0 0 30 0 30 -15 0 -15 0 0 15 0 15 -15 0 -15 0 0 -30z" stroke="#f3aa5c" stroke-width="10" />
<path d="M2880 3090 l0 -30 15 0 15 0 0 30 0 30 -15 0 -15 0 0 -30z" stroke="#f3aa5c" stroke-width="10" />
<path d="M3990 3090 l0 -30 15 0 15 0 0 -15 0 -15 15 0 15 0 0 15 0 15 15 0 15 0 0 30 0 30 -45 0 -45 0 0 -30z" stroke="#f3aa5c" stroke-width="10" />
<path d="M3120 3075 l0 -15 15 0 15 0 0 15 0 15 -15 0 -15 0 0 -15z" stroke="#f3aa5c" stroke-width="10" />
<path d="M3180 3075 l0 -15 15 0 15 0 0 15 0 15 -15 0 -15 0 0 -15z" stroke="#f3aa5c" stroke-width="10" />
<path d="M2070 3045 l0 -15 15 0 15 0 0 15 0 15 -15 0 -15 0 0 -15z" stroke="#f3aa5c" stroke-width="10" />
<path d="M4080 3045 l0 -15 -15 0 -15 0 0 -30 0 -30 15 0 15 0 0 -15 0 -15 75 0 75 0 0 15 0 15 15 0 15 0 0 30 0 30 -15 0 -15 0 0 15 0 15 -15 0 -15 0 0 -15 0 -15 -15 0 -15 0 0 -30 0 -30 -15 0 -15 0 0 30 0 30 -15 0 -15 0 0 15 0 15 -15 0 -15 0 0 -15z" stroke="#f3aa5c" stroke-width="10" />
<path d="M2490 3015 l0 -15 -30 0 -30 0 0 -15 0 -15 15 0 15 0 0 -15 0 -15 -45 0 -45 0 0 30 0 30 -30 0 -30 0 0 -15 0 -15 -60 0 -60 0 0 -15 0 -15 60 0 60 0 0 -15 0 -15 90 0 90 0 0 -15 0 -15 15 0 15 0 0 15 0 15 15 0 15 0 0 15 0 15 15 0 15 0 0 -15 0 -15 30 0 30 0 0 -15 0 -15 15 0 15 0 0 -15 0 -15 15 0 15 0 0 45 0 45 15 0 15 0 0 15 0 15 -30 0 -30 0 0 -15 0 -15 -30 0 -30 0 0 15 0 15 -15 0 -15 0 0 15 0 15 -15 0 -15 0 0 15 0 15 -30 0 -30 0 0 -15z" stroke="#f3aa5c" stroke-width="10" />
<path d="M2850 3015 l0 -15 -45 0 -45 0 0 -15 0 -15 30 0 30 0 0 -15 0 -15 15 0 15 0 0 15 0 15 15 0 15 0 0 30 0 30 -15 0 -15 0 0 -15z" stroke="#f3aa5c" stroke-width="10" />
<path d="M1830 2925 l0 -15 -15 0 -15 0 0 -15 0 -15 -15 0 -15 0 0 -15 0 -15 15 0 15 0 0 15 0 15 30 0 30 0 0 15 0 15 15 0 15 0 0 -15 0 -15 15 0 15 0 0 -15 0 -15 15 0 15 0 0 15 0 15 15 0 15 0 0 30 0 30 -75 0 -75 0 0 -15z" stroke="#f3aa5c" stroke-width="10" />
<path d="M1530 2880 l0 -30 15 0 15 0 0 15 0 15 15 0 15 0 0 -15 0 -15 15 0 15 0 0 15 0 15 15 0 15 0 0 15 0 15 -60 0 -60 0 0 -30z" stroke="#f3aa5c" stroke-width="10" />
<path d="M3060 2835 l0 -15 15 0 15 0 0 15 0 15 -15 0 -15 0 0 -15z" stroke="#f3aa5c" stroke-width="10" />
<path d="M4410 2820 l0 -30 15 0 15 0 0 -15 0 -15 15 0 15 0 0 30 0 30 15 0 15 0 0 -30 0 -30 15 0 15 0 0 30 0 30 -15 0 -15 0 0 15 0 15 -15 0 -15 0 0 -15 0 -15 -15 0 -15 0 0 15 0 15 -15 0 -15 0 0 -30z" stroke="#f3aa5c" stroke-width="10" />
<path d="M1560 2790 l0 -30 15 0 15 0 0 30 0 30 -15 0 -15 0 0 -30z" stroke="#f3aa5c" stroke-width="10" />
<path d="M1620 2790 l0 -30 15 0 15 0 0 30 0 30 -15 0 -15 0 0 -30z" stroke="#f3aa5c" stroke-width="10" />
<path d="M1860 2745 l0 -15 15 0 15 0 0 -15 0 -15 30 0 30 0 0 30 0 30 -45 0 -45 0 0 -15z" stroke="#f3aa5c" stroke-width="10" />
<path d="M3030 2745 l0 -15 30 0 30 0 0 15 0 15 -30 0 -30 0 0 -15z" stroke="#f3aa5c" stroke-width="10" />
<path d="M1650 2715 l0 -15 15 0 15 0 0 15 0 15 -15 0 -15 0 0 -15z" stroke="#f3aa5c" stroke-width="10" />
<path d="M2160 2715 l0 -15 30 0 30 0 0 -15 0 -15 15 0 15 0 0 30 0 30 -45 0 -45 0 0 -15z" stroke="#f3aa5c" stroke-width="10" />
<path d="M2280 2700 l0 -30 15 0 15 0 0 15 0 15 45 0 45 0 0 15 0 15 -60 0 -60 0 0 -30z" stroke="#f3aa5c" stroke-width="10" />
<path d="M1710 2685 l0 -15 -15 0 -15 0 0 -30 0 -30 15 0 15 0 0 15 0 15 15 0 15 0 0 15 0 15 15 0 15 0 0 15 0 15 -30 0 -30 0 0 -15z" stroke="#f3aa5c" stroke-width="10" />
<path d="M1800 2685 l0 -15 15 0 15 0 0 15 0 15 -15 0 -15 0 0 -15z" stroke="#f3aa5c" stroke-width="10" />
<path d="M2670 2670 l0 -30 15 0 15 0 0 -15 0 -15 15 0 15 0 0 15 0 15 15 0 15 0 0 15 0 15 15 0 15 0 0 15 0 15 -60 0 -60 0 0 -30z" stroke="#f3aa5c" stroke-width="10" />
<path d="M2880 2610 l0 -60 15 0 15 0 0 15 0 15 15 0 15 0 0 -15 0 -15 15 0 15 0 0 30 0 30 15 0 15 0 0 -30 0 -30 15 0 15 0 0 45 0 45 -60 0 -60 0 0 15 0 15 -15 0 -15 0 0 -60z" stroke="#f3aa5c" stroke-width="10" />
<path d="M1740 2625 l0 -15 -15 0 -15 0 0 -30 0 -30 15 0 15 0 0 -15 0 -15 15 0 15 0 0 30 0 30 15 0 15 0 0 -30 0 -30 15 0 15 0 0 15 0 15 30 0 30 0 0 15 0 15 15 0 15 0 0 15 0 15 -30 0 -30 0 0 15 0 15 -15 0 -15 0 0 -15 0 -15 -30 0 -30 0 0 15 0 15 -15 0 -15 0 0 -15z" stroke="#f3aa5c" stroke-width="10" />
<path d="M3420 2625 l0 -15 15 0 15 0 0 15 0 15 -15 0 -15 0 0 -15z" stroke="#f3aa5c" stroke-width="10" />
<path d="M3480 2625 l0 -15 15 0 15 0 0 15 0 15 -15 0 -15 0 0 -15z" stroke="#f3aa5c" stroke-width="10" />
<path d="M2610 2565 l0 -15 -60 0 -60 0 0 -15 0 -15 15 0 15 0 0 -15 0 -15 15 0 15 0 0 -15 0 -15 15 0 15 0 0 -15 0 -15 15 0 15 0 0 -15 0 -15 15 0 15 0 0 -15 0 -15 30 0 30 0 0 15 0 15 15 0 15 0 0 -15 0 -15 30 0 30 0 0 -15 0 -15 -15 0 -15 0 0 -30 0 -30 15 0 15 0 0 30 0 30 45 0 45 0 0 15 0 15 15 0 15 0 0 15 0 15 -30 0 -30 0 0 15 0 15 -15 0 -15 0 0 15 0 15 -75 0 -75 0 0 15 0 15 -15 0 -15 0 0 45 0 45 -15 0 -15 0 0 -15z m210 -150 l0 -15 -30 0 -30 0 0 15 0 15 30 0 30 0 0 -15z" stroke="#f3aa5c" stroke-width="10" />
<path d="M2250 2535 l0 -15 15 0 15 0 0 -30 0 -30 15 0 15 0 0 15 0 15 15 0 15 0 0 15 0 15 15 0 15 0 0 15 0 15 -30 0 -30 0 0 -15 0 -15 -15 0 -15 0 0 15 0 15 -15 0 -15 0 0 -15z" stroke="#f3aa5c" stroke-width="10" />
<path d="M3120 2505 l0 -15 -15 0 -15 0 0 -15 0 -15 30 0 30 0 0 -15 0 -15 15 0 15 0 0 30 0 30 15 0 15 0 0 -30 0 -30 15 0 15 0 0 15 0 15 15 0 15 0 0 30 0 30 -75 0 -75 0 0 -15z" stroke="#f3aa5c" stroke-width="10" />
<path d="M2370 2445 l0 -15 -15 0 -15 0 0 -15 0 -15 -15 0 -15 0 0 -30 0 -30 15 0 15 0 0 15 0 15 15 0 15 0 0 15 0 15 15 0 15 0 0 30 0 30 -15 0 -15 0 0 -15z" stroke="#f3aa5c" stroke-width="10" />
<path d="M1680 2415 l0 -15 15 0 15 0 0 15 0 15 -15 0 -15 0 0 -15z" stroke="#f3aa5c" stroke-width="10" />
<path d="M1530 2340 l0 -30 30 0 30 0 0 15 0 15 -15 0 -15 0 0 15 0 15 -15 0 -15 0 0 -30z" stroke="#f3aa5c" stroke-width="10" />
<path d="M1650 2310 l0 -30 15 0 15 0 0 15 0 15 15 0 15 0 0 15 0 15 -30 0 -30 0 0 -30z" stroke="#f3aa5c" stroke-width="10" />
<path d="M2700 2310 l0 -30 15 0 15 0 0 30 0 30 -15 0 -15 0 0 -30z" stroke="#f3aa5c" stroke-width="10" />
<path d="M2400 2280 l0 -30 15 0 15 0 0 30 0 30 -15 0 -15 0 0 -30z" stroke="#f3aa5c" stroke-width="10" />
<path d="M2580 2250 l0 -30 15 0 15 0 0 15 0 15 15 0 15 0 0 15 0 15 -30 0 -30 0 0 -30z" stroke="#f3aa5c" stroke-width="10" />
<path d="M3330 2265 l0 -15 -15 0 -15 0 0 -15 0 -15 30 0 30 0 0 30 0 30 -15 0 -15 0 0 -15z" stroke="#f3aa5c" stroke-width="10" />
<path d="M3480 2235 l0 -15 15 0 15 0 0 15 0 15 -15 0 -15 0 0 -15z" stroke="#f3aa5c" stroke-width="10" />
<path d="M2460 2190 l0 -30 15 0 15 0 0 -15 0 -15 15 0 15 0 0 30 0 30 -15 0 -15 0 0 15 0 15 -15 0 -15 0 0 -30z" stroke="#f3aa5c" stroke-width="10" />
<path d="M3060 2205 l0 -15 30 0 30 0 0 -30 0 -30 15 0 15 0 0 30 0 30 -15 0 -15 0 0 15 0 15 -30 0 -30 0 0 -15z" stroke="#f3aa5c" stroke-width="10" />
<path d="M3180 2160 l0 -30 15 0 15 0 0 15 0 15 30 0 30 0 0 15 0 15 -45 0 -45 0 0 -30z" stroke="#f3aa5c" stroke-width="10" />
<path d="M2430 2145 l0 -15 -15 0 -15 0 0 -15 0 -15 -30 0 -30 0 0 15 0 15 -15 0 -15 0 0 -15 0 -15 -15 0 -15 0 0 15 0 15 -15 0 -15 0 0 -15 0 -15 15 0 15 0 0 -30 0 -30 15 0 15 0 0 -30 0 -30 15 0 15 0 0 30 0 30 -15 0 -15 0 0 15 0 15 45 0 45 0 0 -15 0 -15 -15 0 -15 0 0 -30 0 -30 15 0 15 0 0 30 0 30 30 0 30 0 0 15 0 15 15 0 15 0 0 30 0 30 -15 0 -15 0 0 15 0 15 -15 0 -15 0 0 -15z" stroke="#f3aa5c" stroke-width="10" />
<path d="M3330 2070 l0 -30 15 0 15 0 0 15 0 15 15 0 15 0 0 15 0 15 -30 0 -30 0 0 -30z" stroke="#f3aa5c" stroke-width="10" />
<path d="M3390 1995 l0 -15 -15 0 -15 0 0 -30 0 -30 30 0 30 0 0 -15 0 -15 45 0 45 0 0 -15 0 -15 15 0 15 0 0 30 0 30 15 0 15 0 0 15 0 15 -15 0 -15 0 0 15 0 15 -15 0 -15 0 0 15 0 15 -60 0 -60 0 0 -15z" stroke="#f3aa5c" stroke-width="10" />
<path d="M3690 1995 l0 -15 30 0 30 0 0 15 0 15 -30 0 -30 0 0 -15z" stroke="#f3aa5c" stroke-width="10" />
<path d="M3600 1935 l0 -15 -15 0 -15 0 0 -30 0 -30 15 0 15 0 0 15 0 15 30 0 30 0 0 30 0 30 -30 0 -30 0 0 -15z" stroke="#f3aa5c" stroke-width="10" />
<path d="M2640 1770 l0 -30 15 0 15 0 0 30 0 30 -15 0 -15 0 0 -30z" stroke="#f3aa5c" stroke-width="10" />
<path d="M2700 1755 l0 -45 -15 0 -15 0 0 -30 0 -30 15 0 15 0 0 15 0 15 15 0 15 0 0 60 0 60 -15 0 -15 0 0 -45z" stroke="#f3aa5c" stroke-width="10" />
<path d="M3690 1770 l0 -30 30 0 30 0 0 -15 0 -15 -15 0 -15 0 0 -15 0 -15 -30 0 -30 0 0 15 0 15 -45 0 -45 0 0 -15 0 -15 30 0 30 0 0 -15 0 -15 60 0 60 0 0 15 0 15 30 0 30 0 0 30 0 30 15 0 15 0 0 -30 0 -30 15 0 15 0 0 15 0 15 15 0 15 0 0 30 0 30 -90 0 -90 0 0 15 0 15 -15 0 -15 0 0 -30z" stroke="#f3aa5c" stroke-width="10" />
<path d="M2580 1710 l0 -30 15 0 15 0 0 -15 0 -15 15 0 15 0 0 30 0 30 -15 0 -15 0 0 15 0 15 -15 0 -15 0 0 -30z" stroke="#f3aa5c" stroke-width="10" />
<path d="M2760 1710 l0 -30 15 0 15 0 0 15 0 15 15 0 15 0 0 15 0 15 -30 0 -30 0 0 -30z" stroke="#f3aa5c" stroke-width="10" />
</g>
<g transform="translate(0.000000,600.000000) scale(0.100000,-0.100000)" fill="#257439" stroke="none">
<path d="M2400 4395 l0 -15 30 0 30 0 0 15 0 15 -30 0 -30 0 0 -15z" stroke="#257439" stroke-width="10" />
<path d="M3840 4275 l0 -15 15 0 15 0 0 15 0 15 -15 0 -15 0 0 -15z" stroke="#257439" stroke-width="10" />
<path d="M2340 4245 l0 -15 15 0 15 0 0 15 0 15 -15 0 -15 0 0 -15z" stroke="#257439" stroke-width="10" />
<path d="M2970 3735 l0 -15 15 0 15 0 0 -15 0 -15 15 0 15 0 0 15 0 15 -15 0 -15 0 0 15 0 15 -15 0 -15 0 0 -15z" stroke="#257439" stroke-width="10" />
<path d="M2640 3195 l0 -15 15 0 15 0 0 15 0 15 -15 0 -15 0 0 -15z" stroke="#257439" stroke-width="10" />
<path d="M2490 3045 l0 -15 15 0 15 0 0 15 0 15 -15 0 -15 0 0 -15z" stroke="#257439" stroke-width="10" />
<path d="M2070 3015 l0 -15 15 0 15 0 0 15 0 15 -15 0 -15 0 0 -15z" stroke="#257439" stroke-width="10" />
<path d="M2400 2970 l0 -30 30 0 30 0 0 15 0 15 -15 0 -15 0 0 15 0 15 -15 0 -15 0 0 -30z" stroke="#257439" stroke-width="10" />
<path d="M2730 2955 l0 -15 -15 0 -15 0 0 -45 0 -45 30 0 30 0 0 15 0 15 15 0 15 0 0 15 0 15 15 0 15 0 0 30 0 30 -45 0 -45 0 0 -15z" stroke="#257439" stroke-width="10" />
<path d="M1650 2895 l0 -15 -15 0 -15 0 0 -15 0 -15 15 0 15 0 0 -15 0 -15 45 0 45 0 0 15 0 15 15 0 15 0 0 15 0 15 15 0 15 0 0 15 0 15 -75 0 -75 0 0 -15z" stroke="#257439" stroke-width="10" />
<path d="M4350 2835 l0 -15 15 0 15 0 0 -15 0 -15 15 0 15 0 0 30 0 30 -30 0 -30 0 0 -15z" stroke="#257439" stroke-width="10" />
<path d="M2460 2775 l0 -15 15 0 15 0 0 15 0 15 -15 0 -15 0 0 -15z" stroke="#257439" stroke-width="10" />
<path d="M3030 2610 l0 -30 15 0 15 0 0 30 0 30 -15 0 -15 0 0 -30z" stroke="#257439" stroke-width="10" />
<path d="M3210 2535 l0 -15 30 0 30 0 0 -15 0 -15 15 0 15 0 0 30 0 30 -45 0 -45 0 0 -15z" stroke="#257439" stroke-width="10" />
<path d="M3090 2505 l0 -15 15 0 15 0 0 15 0 15 -15 0 -15 0 0 -15z" stroke="#257439" stroke-width="10" />
<path d="M1590 2310 l0 -30 15 0 15 0 0 30 0 30 -15 0 -15 0 0 -30z" stroke="#257439" stroke-width="10" />
<path d="M2460 2280 l0 -30 15 0 15 0 0 -15 0 -15 15 0 15 0 0 -15 0 -15 15 0 15 0 0 15 0 15 15 0 15 0 0 45 0 45 -15 0 -15 0 0 -15 0 -15 -30 0 -30 0 0 15 0 15 -15 0 -15 0 0 -30z" stroke="#257439" stroke-width="10" />
<path d="M3480 2265 l0 -15 15 0 15 0 0 -30 0 -30 15 0 15 0 0 15 0 15 15 0 15 0 0 15 0 15 -30 0 -30 0 0 15 0 15 -15 0 -15 0 0 -15z" stroke="#257439" stroke-width="10" />
<path d="M3270 2190 l0 -30 15 0 15 0 0 15 0 15 15 0 15 0 0 15 0 15 -30 0 -30 0 0 -30z" stroke="#257439" stroke-width="10" />
<path d="M3630 1995 l0 -15 -45 0 -45 0 0 -15 0 -15 15 0 15 0 0 -15 0 -15 15 0 15 0 0 15 0 15 30 0 30 0 0 -15 0 -15 15 0 15 0 0 45 0 45 -30 0 -30 0 0 -15z" stroke="#257439" stroke-width="10" />
<path d="M2520 1890 l0 -30 15 0 15 0 0 -15 0 -15 30 0 30 0 0 15 0 15 -15 0 -15 0 0 15 0 15 -15 0 -15 0 0 15 0 15 -15 0 -15 0 0 -30z" stroke="#257439" stroke-width="10" />
</g>
<g transform="translate(0.000000,600.000000) scale(0.100000,-0.100000)" fill="#007200" stroke="none">
<path d="M2430 4335 l0 -15 30 0 30 0 0 15 0 15 -30 0 -30 0 0 -15z" stroke="#007200" stroke-width="10" />
<path d="M3840 4320 l0 -30 15 0 15 0 0 30 0 30 -15 0 -15 0 0 -30z" stroke="#007200" stroke-width="10" />
<path d="M3780 4305 l0 -15 -15 0 -15 0 0 -15 0 -15 15 0 15 0 0 -15 0 -15 30 0 30 0 0 15 0 15 -15 0 -15 0 0 30 0 30 -15 0 -15 0 0 -15z" stroke="#007200" stroke-width="10" />
<path d="M2340 4275 l0 -15 15 0 15 0 0 15 0 15 -15 0 -15 0 0 -15z" stroke="#007200" stroke-width="10" />
<path d="M3030 3855 l0 -15 -15 0 -15 0 0 -15 0 -15 30 0 30 0 0 30 0 30 -15 0 -15 0 0 -15z" stroke="#007200" stroke-width="10" />
<path d="M3210 3345 l0 -15 -15 0 -15 0 0 -15 0 -15 30 0 30 0 0 30 0 30 -15 0 -15 0 0 -15z" stroke="#007200" stroke-width="10" />
<path d="M3270 3330 l0 -30 30 0 30 0 0 15 0 15 -15 0 -15 0 0 15 0 15 -15 0 -15 0 0 -30z" stroke="#007200" stroke-width="10" />
<path d="M3720 3270 l0 -30 15 0 15 0 0 30 0 30 -15 0 -15 0 0 -30z" stroke="#007200" stroke-width="10" />
<path d="M2640 3255 l0 -15 15 0 15 0 0 15 0 15 -15 0 -15 0 0 -15z" stroke="#007200" stroke-width="10" />
<path d="M2460 3135 l0 -45 -15 0 -15 0 0 -30 0 -30 30 0 30 0 0 15 0 15 15 0 15 0 0 30 0 30 -15 0 -15 0 0 30 0 30 -15 0 -15 0 0 -45z" stroke="#007200" stroke-width="10" />
<path d="M2610 3150 l0 -30 30 0 30 0 0 15 0 15 -15 0 -15 0 0 15 0 15 -15 0 -15 0 0 -30z" stroke="#007200" stroke-width="10" />
<path d="M2760 3165 l0 -15 15 0 15 0 0 15 0 15 -15 0 -15 0 0 -15z" stroke="#007200" stroke-width="10" />
<path d="M2550 3075 l0 -15 15 0 15 0 0 15 0 15 -15 0 -15 0 0 -15z" stroke="#007200" stroke-width="10" />
<path d="M1710 2955 l0 -15 15 0 15 0 0 15 0 15 -15 0 -15 0 0 -15z" stroke="#007200" stroke-width="10" />
<path d="M1950 2955 l0 -15 15 0 15 0 0 15 0 15 -15 0 -15 0 0 -15z" stroke="#007200" stroke-width="10" />
<path d="M4380 2925 l0 -15 -15 0 -15 0 0 -15 0 -15 45 0 45 0 0 30 0 30 -30 0 -30 0 0 -15z" stroke="#007200" stroke-width="10" />
<path d="M1710 2805 l0 -15 30 0 30 0 0 15 0 15 -30 0 -30 0 0 -15z" stroke="#007200" stroke-width="10" />
<path d="M2490 2775 l0 -15 15 0 15 0 0 15 0 15 -15 0 -15 0 0 -15z" stroke="#007200" stroke-width="10" />
<path d="M2490 2715 l0 -15 -15 0 -15 0 0 -15 0 -15 -15 0 -15 0 0 15 0 15 -15 0 -15 0 0 -30 0 -30 30 0 30 0 0 15 0 15 15 0 15 0 0 15 0 15 30 0 30 0 0 15 0 15 -30 0 -30 0 0 -15z" stroke="#007200" stroke-width="10" />
<path d="M3030 2685 l0 -45 15 0 15 0 0 45 0 45 -15 0 -15 0 0 -45z" stroke="#007200" stroke-width="10" />
<path d="M2340 2655 l0 -15 15 0 15 0 0 15 0 15 -15 0 -15 0 0 -15z" stroke="#007200" stroke-width="10" />
<path d="M3120 2625 l0 -15 -15 0 -15 0 0 -45 0 -45 15 0 15 0 0 15 0 15 15 0 15 0 0 15 0 15 15 0 15 0 0 15 0 15 -15 0 -15 0 0 15 0 15 -15 0 -15 0 0 -15z" stroke="#007200" stroke-width="10" />
<path d="M1560 2460 l0 -30 15 0 15 0 0 15 0 15 15 0 15 0 0 15 0 15 -30 0 -30 0 0 -30z" stroke="#007200" stroke-width="10" />
<path d="M1650 2385 l0 -15 15 0 15 0 0 15 0 15 -15 0 -15 0 0 -15z" stroke="#007200" stroke-width="10" />
<path d="M2490 2385 l0 -15 -15 0 -15 0 0 -15 0 -15 30 0 30 0 0 30 0 30 -15 0 -15 0 0 -15z" stroke="#007200" stroke-width="10" />
<path d="M2550 2325 l0 -15 15 0 15 0 0 15 0 15 -15 0 -15 0 0 -15z" stroke="#007200" stroke-width="10" />
<path d="M3510 2325 l0 -15 -15 0 -15 0 0 -15 0 -15 45 0 45 0 0 15 0 15 -15 0 -15 0 0 15 0 15 -15 0 -15 0 0 -15z" stroke="#007200" stroke-width="10" />
<path d="M3180 2295 l0 -15 -15 0 -15 0 0 -15 0 -15 15 0 15 0 0 15 0 15 15 0 15 0 0 15 0 15 -15 0 -15 0 0 -15z" stroke="#007200" stroke-width="10" />
<path d="M3240 2295 l0 -15 30 0 30 0 0 15 0 15 -30 0 -30 0 0 -15z" stroke="#007200" stroke-width="10" />
<path d="M3540 2055 l0 -45 30 0 30 0 0 15 0 15 15 0 15 0 0 15 0 15 -15 0 -15 0 0 15 0 15 -30 0 -30 0 0 -45z" stroke="#007200" stroke-width="10" />
<path d="M2520 1950 l0 -30 15 0 15 0 0 15 0 15 15 0 15 0 0 15 0 15 -30 0 -30 0 0 -30z" stroke="#007200" stroke-width="10" />
<path d="M3690 1965 l0 -15 15 0 15 0 0 15 0 15 -15 0 -15 0 0 -15z" stroke="#007200" stroke-width="10" />
<path d="M3840 1875 l0 -15 15 0 15 0 0 15 0 15 -15 0 -15 0 0 -15z" stroke="#007200" stroke-width="10" />
<path d="M2610 1845 l0 -15 15 0 15 0 0 15 0 15 -15 0 -15 0 0 -15z" stroke="#007200" stroke-width="10" />
</g>
<g transform="translate(0.000000,600.000000) scale(0.100000,-0.100000)" fill="#00FF00" stroke="none">
<path d="M1770 2565 l0 -15 15 0 15 0 0 15 0 15 -15 0 -15 0 0 -15z" stroke="#00FF00" stroke-width="10" />
<path d="M1830 2505 l0 -15 15 0 15 0 0 15 0 15 -15 0 -15 0 0 -15z" stroke="#00FF00" stroke-width="10" />
<path d="M1950 2505 l0 -15 15 0 15 0 0 15 0 15 -15 0 -15 0 0 -15z" stroke="#00FF00" stroke-width="10" />
<path d="M1980 2295 l0 -45 45 0 45 0 0 45 0 45 -45 0 -45 0 0 -45z" stroke="#00FF00" stroke-width="10" />
<path d="M1740 2235 l0 -15 15 0 15 0 0 15 0 15 -15 0 -15 0 0 -15z" stroke="#00FF00" stroke-width="10" />
<path d="M1830 2235 l0 -15 15 0 15 0 0 15 0 15 -15 0 -15 0 0 -15z" stroke="#00FF00" stroke-width="10" />
</g>
<g transform="translate(0.000000,600.000000) scale(0.100000,-0.100000)" fill="#FFFF00" stroke="none">
<path d="M3900 3915 l0 -15 15 0 15 0 0 15 0 15 -15 0 -15 0 0 -15z" stroke="#FFFF00" stroke-width="10" />
<path d="M4050 3855 l0 -15 15 0 15 0 0 15 0 15 -15 0 -15 0 0 -15z" stroke="#FFFF00" stroke-width="10" />
<path d="M3870 3825 l0 -15 15 0 15 0 0 15 0 15 -15 0 -15 0 0 -15z" stroke="#FFFF00" stroke-width="10" />
<path d="M3960 3645 l0 -45 45 0 45 0 0 45 0 45 -45 0 -45 0 0 -45z" stroke="#FFFF00" stroke-width="10" />
<path d="M3810 3585 l0 -15 15 0 15 0 0 15 0 15 -15 0 -15 0 0 -15z" stroke="#FFFF00" stroke-width="10" />
<path d="M3690 3435 l0 -15 15 0 15 0 0 15 0 15 -15 0 -15 0 0 -15z" stroke="#FFFF00" stroke-width="10" />
</g>
<g transform="translate(0.000000,600.000000) scale(0.100000,-0.100000)" fill="#FF0000" stroke="none">
<path d="M2760 4365 l0 -15 15 0 15 0 0 15 0 15 -15 0 -15 0 0 -15z" stroke="#FF0000" stroke-width="10" />
<path d="M2850 4365 l0 -15 15 0 15 0 0 15 0 15 -15 0 -15 0 0 -15z" stroke="#FF0000" stroke-width="10" />
<path d="M2940 4185 l0 -45 45 0 45 0 0 45 0 45 -45 0 -45 0 0 -45z" stroke="#FF0000" stroke-width="10" />
<path d="M2790 4065 l0 -15 15 0 15 0 0 15 0 15 -15 0 -15 0 0 -15z" stroke="#FF0000" stroke-width="10" />
<path d="M2670 4005 l0 -15 15 0 15 0 0 15 0 15 -15 0 -15 0 0 -15z" stroke="#FF0000" stroke-width="10" />
<path d="M2760 4005 l0 -15 15 0 15 0 0 15 0 15 -15 0 -15 0 0 -15z" stroke="#FF0000" stroke-width="10" />
</g>
<g transform="translate(0.000000,600.000000) scale(0.100000,-0.100000)" fill="#FF00FF" stroke="none">
<path d="M3840 2835 l0 -15 15 0 15 0 0 15 0 15 -15 0 -15 0 0 -15z" stroke="#FF00FF" stroke-width="10" />
<path d="M4170 2775 l0 -15 15 0 15 0 0 15 0 15 -15 0 -15 0 0 -15z" stroke="#FF00FF" stroke-width="10" />
<path d="M3900 2745 l0 -15 15 0 15 0 0 15 0 15 -15 0 -15 0 0 -15z" stroke="#FF00FF" stroke-width="10" />
<path d="M4080 2565 l0 -45 45 0 45 0 0 45 0 45 -45 0 -45 0 0 -45z" stroke="#FF00FF" stroke-width="10" />
<path d="M3810 2415 l0 -15 15 0 15 0 0 15 0 15 -15 0 -15 0 0 -15z" stroke="#FF00FF" stroke-width="10" />
<path d="M3930 2415 l0 -15 15 0 15 0 0 15 0 15 -15 0 -15 0 0 -15z" stroke="#FF00FF" stroke-width="10" />
</g>
<g transform="translate(0.000000,600.000000) scale(0.100000,-0.100000)" fill="#0000FF" stroke="none">
<path d="M3000 2085 l0 -15 15 0 15 0 0 15 0 15 -15 0 -15 0 0 -15z" stroke="#0000FF" stroke-width="10" />
<path d="M3150 1995 l0 -15 15 0 15 0 0 15 0 15 -15 0 -15 0 0 -15z" stroke="#0000FF" stroke-width="10" />
<path d="M2940 1935 l0 -15 15 0 15 0 0 15 0 15 -15 0 -15 0 0 -15z" stroke="#0000FF" stroke-width="10" />
<path d="M2910 1875 l0 -15 15 0 15 0 0 15 0 15 -15 0 -15 0 0 -15z" stroke="#0000FF" stroke-width="10" />
<path d="M3090 1815 l0 -45 45 0 45 0 0 45 0 45 -45 0 -45 0 0 -45z" stroke="#0000FF" stroke-width="10" />
<path d="M2880 1635 l0 -15 15 0 15 0 0 15 0 15 -15 0 -15 0 0 -15z" stroke="#0000FF" stroke-width="10" />
</g>
<g transform="translate(0.000000,600.000000) scale(0.100000,-0.100000)" fill="#00FFFF" stroke="none">
<path d="M1710 3645 l0 -15 15 0 15 0 0 15 0 15 -15 0 -15 0 0 -15z" stroke="#00FFFF" stroke-width="10" />
<path d="M1680 3585 l0 -15 15 0 15 0 0 15 0 15 -15 0 -15 0 0 -15z" stroke="#00FFFF" stroke-width="10" />
<path d="M1620 3555 l0 -15 15 0 15 0 0 15 0 15 -15 0 -15 0 0 -15z" stroke="#00FFFF" stroke-width="10" />
<path d="M1860 3495 l0 -45 45 0 45 0 0 45 0 45 -45 0 -45 0 0 -45z" stroke="#00FFFF" stroke-width="10" />
<path d="M1710 3465 l0 -15 15 0 15 0 0 15 0 15 -15 0 -15 0 0 -15z" stroke="#00FFFF" stroke-width="10" />
<path d="M2130 3285 l0 -15 15 0 15 0 0 15 0 15 -15 0 -15 0 0 -15z" stroke="#00FFFF" stroke-width="10" />
</g>
<g transform="translate(0.000000,600.000000) scale(0.100000,-0.100000)" fill="#FFC700" stroke="none">
<path d="M2940 4530 l0 -30 30 0 30 0 0 15 0 15 -15 0 -15 0 0 15 0 15 -15 0 -15 0 0 -30z" stroke="#FFC700" stroke-width="10" />
<path d="M2670 4155 l0 -45 30 0 30 0 0 15 0 15 -15 0 -15 0 0 30 0 30 -15 0 -15 0 0 -45z" stroke="#FFC700" stroke-width="10" />
<path d="M3270 4185 l0 -15 15 0 15 0 0 -15 0 -15 15 0 15 0 0 30 0 30 -30 0 -30 0 0 -15z" stroke="#FFC700" stroke-width="10" />
<path d="M3960 3975 l0 -15 45 0 45 0 0 15 0 15 -45 0 -45 0 0 -15z" stroke="#FFC700" stroke-width="10" />
<path d="M2850 3840 l0 -30 15 0 15 0 0 15 0 15 15 0 15 0 0 15 0 15 -30 0 -30 0 0 -30z" stroke="#FFC700" stroke-width="10" />
<path d="M1890 3825 l0 -15 15 0 15 0 0 -15 0 -15 15 0 15 0 0 30 0 30 -30 0 -30 0 0 -15z" stroke="#FFC700" stroke-width="10" />
<path d="M3660 3645 l0 -15 15 0 15 0 0 -15 0 -15 15 0 15 0 0 30 0 30 -30 0 -30 0 0 -15z" stroke="#FFC700" stroke-width="10" />
<path d="M4290 3630 l0 -30 15 0 15 0 0 15 0 15 15 0 15 0 0 15 0 15 -30 0 -30 0 0 -30z" stroke="#FFC700" stroke-width="10" />
<path d="M1530 3510 l0 -30 30 0 30 0 0 15 0 15 -15 0 -15 0 0 15 0 15 -15 0 -15 0 0 -30z" stroke="#FFC700" stroke-width="10" />
<path d="M2160 3495 l0 -15 45 0 45 0 0 15 0 15 -45 0 -45 0 0 -15z" stroke="#FFC700" stroke-width="10" />
<path d="M3900 3345 l0 -15 60 0 60 0 0 15 0 15 -60 0 -60 0 0 -15z" stroke="#FFC700" stroke-width="10" />
<path d="M1890 3210 l0 -30 15 0 15 0 0 -15 0 -15 15 0 15 0 0 30 0 30 -15 0 -15 0 0 15 0 15 -15 0 -15 0 0 -30z" stroke="#FFC700" stroke-width="10" />
<path d="M4140 2925 l0 -15 -15 0 -15 0 0 -15 0 -15 30 0 30 0 0 30 0 30 -15 0 -15 0 0 -15z" stroke="#FFC700" stroke-width="10" />
<path d="M2010 2625 l0 -15 -15 0 -15 0 0 -15 0 -15 30 0 30 0 0 30 0 30 -15 0 -15 0 0 -15z" stroke="#FFC700" stroke-width="10" />
<path d="M3750 2580 l0 -30 30 0 30 0 0 15 0 15 -15 0 -15 0 0 15 0 15 -15 0 -15 0 0 -30z" stroke="#FFC700" stroke-width="10" />
<path d="M4440 2595 l0 -15 -15 0 -15 0 0 -15 0 -15 30 0 30 0 0 30 0 30 -15 0 -15 0 0 -15z" stroke="#FFC700" stroke-width="10" />
<path d="M2310 2280 l0 -30 30 0 30 0 0 30 0 30 -30 0 -30 0 0 -30z" stroke="#FFC700" stroke-width="10" />
<path d="M4080 2235 l0 -45 15 0 15 0 0 30 0 30 15 0 15 0 0 15 0 15 -30 0 -30 0 0 -45z" stroke="#FFC700" stroke-width="10" />
<path d="M1680 2220 l0 -30 30 0 30 0 0 15 0 15 -15 0 -15 0 0 15 0 15 -15 0 -15 0 0 -30z" stroke="#FFC700" stroke-width="10" />
<path d="M3030 2160 l0 -30 30 0 30 0 0 15 0 15 -15 0 -15 0 0 15 0 15 -15 0 -15 0 0 -30z" stroke="#FFC700" stroke-width="10" />
<path d="M2130 1995 l0 -45 15 0 15 0 0 45 0 45 -15 0 -15 0 0 -45z" stroke="#FFC700" stroke-width="10" />
<path d="M2820 1845 l0 -15 -15 0 -15 0 0 -15 0 -15 30 0 30 0 0 30 0 30 -15 0 -15 0 0 -15z" stroke="#FFC700" stroke-width="10" />
<path d="M3390 1800 l0 -30 30 0 30 0 0 30 0 30 -30 0 -30 0 0 -30z" stroke="#FFC700" stroke-width="10" />
<path d="M3090 1500 l0 -30 30 0 30 0 0 15 0 15 -15 0 -15 0 0 15 0 15 -15 0 -15 0 0 -30z" stroke="#FFC700" stroke-width="10" />
</g>
<g transform="translate(0.000000,600.000000) scale(0.100000,-0.100000)" fill="#919191" stroke="none">
</g>
<g transform="translate(0.000000,600.000000) scale(0.100000,-0.100000)" fill="#A5C46C" stroke="none">
<path d="M2400 4560 l0 -30 15 0 15 0 0 30 0 30 -15 0 -15 0 0 -30z" stroke="#A5C46C" stroke-width="10" />
<path d="M2730 4485 l0 -15 -15 0 -15 0 0 -15 0 -15 15 0 15 0 0 15 0 15 15 0 15 0 0 15 0 15 -15 0 -15 0 0 -15z" stroke="#A5C46C" stroke-width="10" />
<path d="M2670 4395 l0 -15 30 0 30 0 0 15 0 15 -30 0 -30 0 0 -15z" stroke="#A5C46C" stroke-width="10" />
<path d="M2220 4125 l0 -15 30 0 30 0 0 15 0 15 -30 0 -30 0 0 -15z" stroke="#A5C46C" stroke-width="10" />
<path d="M2970 4125 l0 -15 15 0 15 0 0 15 0 15 -15 0 -15 0 0 -15z" stroke="#A5C46C" stroke-width="10" />
<path d="M3030 4125 l0 -15 15 0 15 0 0 15 0 15 -15 0 -15 0 0 -15z" stroke="#A5C46C" stroke-width="10" />
<path d="M3090 4110 l0 -30 15 0 15 0 0 30 0 30 -15 0 -15 0 0 -30z" stroke="#A5C46C" stroke-width="10" />
<path d="M2640 4065 l0 -15 15 0 15 0 0 15 0 15 -15 0 -15 0 0 -15z" stroke="#A5C46C" stroke-width="10" />
<path d="M2730 4065 l0 -15 15 0 15 0 0 15 0 15 -15 0 -15 0 0 -15z" stroke="#A5C46C" stroke-width="10" />
<path d="M2610 4005 l0 -15 15 0 15 0 0 15 0 15 -15 0 -15 0 0 -15z" stroke="#A5C46C" stroke-width="10" />
<path d="M3000 3945 l0 -15 15 0 15 0 0 15 0 15 -15 0 -15 0 0 -15z" stroke="#A5C46C" stroke-width="10" />
<path d="M3540 3855 l0 -15 15 0 15 0 0 15 0 15 -15 0 -15 0 0 -15z" stroke="#A5C46C" stroke-width="10" />
<path d="M3930 3840 l0 -30 15 0 15 0 0 15 0 15 15 0 15 0 0 15 0 15 -30 0 -30 0 0 -30z" stroke="#A5C46C" stroke-width="10" />
<path d="M3510 3795 l0 -15 15 0 15 0 0 15 0 15 -15 0 -15 0 0 -15z" stroke="#A5C46C" stroke-width="10" />
<path d="M2070 3750 l0 -30 15 0 15 0 0 30 0 30 -15 0 -15 0 0 -30z" stroke="#A5C46C" stroke-width="10" />
<path d="M3720 3765 l0 -15 15 0 15 0 0 15 0 15 -15 0 -15 0 0 -15z" stroke="#A5C46C" stroke-width="10" />
<path d="M3930 3765 l0 -15 15 0 15 0 0 15 0 15 -15 0 -15 0 0 -15z" stroke="#A5C46C" stroke-width="10" />
<path d="M2130 3690 l0 -30 15 0 15 0 0 30 0 30 -15 0 -15 0 0 -30z" stroke="#A5C46C" stroke-width="10" />
<path d="M4140 3675 l0 -15 15 0 15 0 0 15 0 15 -15 0 -15 0 0 -15z" stroke="#A5C46C" stroke-width="10" />
<path d="M1590 3645 l0 -15 15 0 15 0 0 15 0 15 -15 0 -15 0 0 -15z" stroke="#A5C46C" stroke-width="10" />
<path d="M2040 3645 l0 -15 30 0 30 0 0 -15 0 -15 15 0 15 0 0 15 0 15 -15 0 -15 0 0 15 0 15 -30 0 -30 0 0 -15z" stroke="#A5C46C" stroke-width="10" />
<path d="M4080 3645 l0 -15 15 0 15 0 0 15 0 15 -15 0 -15 0 0 -15z" stroke="#A5C46C" stroke-width="10" />
<path d="M4230 3645 l0 -15 15 0 15 0 0 15 0 15 -15 0 -15 0 0 -15z" stroke="#A5C46C" stroke-width="10" />
<path d="M1980 3615 l0 -15 15 0 15 0 0 15 0 15 -15 0 -15 0 0 -15z" stroke="#A5C46C" stroke-width="10" />
<path d="M4050 3585 l0 -15 30 0 30 0 0 15 0 15 -30 0 -30 0 0 -15z" stroke="#A5C46C" stroke-width="10" />
<path d="M2130 3495 l0 -15 15 0 15 0 0 15 0 15 -15 0 -15 0 0 -15z" stroke="#A5C46C" stroke-width="10" />
<path d="M3660 3495 l0 -15 15 0 15 0 0 15 0 15 -15 0 -15 0 0 -15z" stroke="#A5C46C" stroke-width="10" />
<path d="M3750 3495 l0 -15 15 0 15 0 0 15 0 15 -15 0 -15 0 0 -15z" stroke="#A5C46C" stroke-width="10" />
<path d="M3480 3375 l0 -15 15 0 15 0 0 15 0 15 -15 0 -15 0 0 -15z" stroke="#A5C46C" stroke-width="10" />
<path d="M3660 3375 l0 -15 15 0 15 0 0 15 0 15 -15 0 -15 0 0 -15z" stroke="#A5C46C" stroke-width="10" />
<path d="M2100 3345 l0 -15 -15 0 -15 0 0 -15 0 -15 15 0 15 0 0 15 0 15 30 0 30 0 0 15 0 15 -30 0 -30 0 0 -15z" stroke="#A5C46C" stroke-width="10" />
<path d="M3420 3345 l0 -15 15 0 15 0 0 15 0 15 -15 0 -15 0 0 -15z" stroke="#A5C46C" stroke-width="10" />
<path d="M3420 3285 l0 -15 15 0 15 0 0 15 0 15 -15 0 -15 0 0 -15z" stroke="#A5C46C" stroke-width="10" />
<path d="M3390 3225 l0 -15 15 0 15 0 0 15 0 15 -15 0 -15 0 0 -15z" stroke="#A5C46C" stroke-width="10" />
<path d="M4530 3135 l0 -15 15 0 15 0 0 15 0 15 -15 0 -15 0 0 -15z" stroke="#A5C46C" stroke-width="10" />
<path d="M4530 3075 l0 -15 15 0 15 0 0 15 0 15 -15 0 -15 0 0 -15z" stroke="#A5C46C" stroke-width="10" />
<path d="M1380 2895 l0 -15 15 0 15 0 0 15 0 15 -15 0 -15 0 0 -15z" stroke="#A5C46C" stroke-width="10" />
<path d="M1380 2835 l0 -15 15 0 15 0 0 15 0 15 -15 0 -15 0 0 -15z" stroke="#A5C46C" stroke-width="10" />
<path d="M4080 2775 l0 -15 15 0 15 0 0 15 0 15 -15 0 -15 0 0 -15z" stroke="#A5C46C" stroke-width="10" />
<path d="M3840 2715 l0 -15 15 0 15 0 0 15 0 15 -15 0 -15 0 0 -15z" stroke="#A5C46C" stroke-width="10" />
<path d="M4080 2715 l0 -15 -15 0 -15 0 0 -15 0 -15 -15 0 -15 0 0 -15 0 -15 15 0 15 0 0 15 0 15 15 0 15 0 0 15 0 15 15 0 15 0 0 15 0 15 -15 0 -15 0 0 -15z" stroke="#A5C46C" stroke-width="10" />
<path d="M1710 2625 l0 -15 15 0 15 0 0 15 0 15 -15 0 -15 0 0 -15z" stroke="#A5C46C" stroke-width="10" />
<path d="M1830 2595 l0 -15 15 0 15 0 0 15 0 15 -15 0 -15 0 0 -15z" stroke="#A5C46C" stroke-width="10" />
<path d="M2520 2595 l0 -15 15 0 15 0 0 15 0 15 -15 0 -15 0 0 -15z" stroke="#A5C46C" stroke-width="10" />
<path d="M1710 2565 l0 -15 15 0 15 0 0 15 0 15 -15 0 -15 0 0 -15z" stroke="#A5C46C" stroke-width="10" />
<path d="M2040 2565 l0 -15 15 0 15 0 0 15 0 15 -15 0 -15 0 0 -15z" stroke="#A5C46C" stroke-width="10" />
<path d="M1920 2520 l0 -30 -15 0 -15 0 0 -15 0 -15 15 0 15 0 0 15 0 15 15 0 15 0 0 30 0 30 -15 0 -15 0 0 -30z" stroke="#A5C46C" stroke-width="10" />
<path d="M2520 2535 l0 -15 15 0 15 0 0 15 0 15 -15 0 -15 0 0 -15z" stroke="#A5C46C" stroke-width="10" />
<path d="M4050 2505 l0 -15 15 0 15 0 0 15 0 15 -15 0 -15 0 0 -15z" stroke="#A5C46C" stroke-width="10" />
<path d="M3750 2475 l0 -15 15 0 15 0 0 15 0 15 -15 0 -15 0 0 -15z" stroke="#A5C46C" stroke-width="10" />
<path d="M3810 2475 l0 -15 15 0 15 0 0 15 0 15 -15 0 -15 0 0 -15z" stroke="#A5C46C" stroke-width="10" />
<path d="M3990 2475 l0 -15 -15 0 -15 0 0 -15 0 -15 15 0 15 0 0 -15 0 -15 15 0 15 0 0 15 0 15 -15 0 -15 0 0 15 0 15 15 0 15 0 0 15 0 15 -15 0 -15 0 0 -15z" stroke="#A5C46C" stroke-width="10" />
<path d="M1950 2445 l0 -15 15 0 15 0 0 15 0 15 -15 0 -15 0 0 -15z" stroke="#A5C46C" stroke-width="10" />
<path d="M2700 2445 l0 -15 15 0 15 0 0 15 0 15 -15 0 -15 0 0 -15z" stroke="#A5C46C" stroke-width="10" />
<path d="M3570 2415 l0 -15 30 0 30 0 0 15 0 15 -30 0 -30 0 0 -15z" stroke="#A5C46C" stroke-width="10" />
<path d="M2130 2385 l0 -15 15 0 15 0 0 15 0 15 -15 0 -15 0 0 -15z" stroke="#A5C46C" stroke-width="10" />
<path d="M2670 2385 l0 -15 15 0 15 0 0 15 0 15 -15 0 -15 0 0 -15z" stroke="#A5C46C" stroke-width="10" />
<path d="M3870 2385 l0 -15 15 0 15 0 0 15 0 15 -15 0 -15 0 0 -15z" stroke="#A5C46C" stroke-width="10" />
<path d="M2160 2325 l0 -15 -15 0 -15 0 0 -15 0 -15 15 0 15 0 0 15 0 15 15 0 15 0 0 15 0 15 -15 0 -15 0 0 -15z" stroke="#A5C46C" stroke-width="10" />
<path d="M4110 2325 l0 -15 15 0 15 0 0 15 0 15 -15 0 -15 0 0 -15z" stroke="#A5C46C" stroke-width="10" />
<path d="M2070 2265 l0 -15 15 0 15 0 0 15 0 15 -15 0 -15 0 0 -15z" stroke="#A5C46C" stroke-width="10" />
<path d="M2130 2055 l0 -15 15 0 15 0 0 15 0 15 -15 0 -15 0 0 -15z" stroke="#A5C46C" stroke-width="10" />
<path d="M2850 1935 l0 -15 -15 0 -15 0 0 -15 0 -15 15 0 15 0 0 15 0 15 30 0 30 0 0 15 0 15 -30 0 -30 0 0 -15z" stroke="#A5C46C" stroke-width="10" />
<path d="M2940 1935 l0 -15 15 0 15 0 0 15 0 15 -15 0 -15 0 0 -15z" stroke="#A5C46C" stroke-width="10" />
<path d="M3360 1875 l0 -15 15 0 15 0 0 15 0 15 -15 0 -15 0 0 -15z" stroke="#A5C46C" stroke-width="10" />
<path d="M2820 1755 l0 -15 15 0 15 0 0 15 0 15 -15 0 -15 0 0 -15z" stroke="#A5C46C" stroke-width="10" />
<path d="M3270 1725 l0 -15 -15 0 -15 0 0 -15 0 -15 15 0 15 0 0 15 0 15 30 0 30 0 0 15 0 15 -30 0 -30 0 0 -15z" stroke="#A5C46C" stroke-width="10" />
<path d="M2940 1695 l0 -15 15 0 15 0 0 15 0 15 -15 0 -15 0 0 -15z" stroke="#A5C46C" stroke-width="10" />
<path d="M2580 1665 l0 -15 15 0 15 0 0 15 0 15 -15 0 -15 0 0 -15z" stroke="#A5C46C" stroke-width="10" />
<path d="M2640 1665 l0 -15 15 0 15 0 0 15 0 15 -15 0 -15 0 0 -15z" stroke="#A5C46C" stroke-width="10" />
<path d="M2910 1575 l0 -15 30 0 30 0 0 15 0 15 -30 0 -30 0 0 -15z" stroke="#A5C46C" stroke-width="10" />
<path d="M3750 1440 l0 -30 15 0 15 0 0 30 0 30 -15 0 -15 0 0 -30z" stroke="#A5C46C" stroke-width="10" />
</g>
<g transform="translate(0.000000,600.000000) scale(0.100000,-0.100000)" fill="#FFFFFF" stroke="none">
<path d="M3240 4635 l0 -15 15 0 15 0 0 15 0 15 -15 0 -15 0 0 -15z" stroke="#FFFFFF" stroke-width="10" />
<path d="M2070 4455 l0 -15 15 0 15 0 0 15 0 15 -15 0 -15 0 0 -15z" stroke="#FFFFFF" stroke-width="10" />
<path d="M4020 4365 l0 -15 15 0 15 0 0 15 0 15 -15 0 -15 0 0 -15z" stroke="#FFFFFF" stroke-width="10" />
<path d="M4560 3345 l0 -15 15 0 15 0 0 15 0 15 -15 0 -15 0 0 -15z" stroke="#FFFFFF" stroke-width="10" />
<path d="M1440 3015 l0 -15 15 0 15 0 0 15 0 15 -15 0 -15 0 0 -15z" stroke="#FFFFFF" stroke-width="10" />
<path d="M4530 2145 l0 -15 15 0 15 0 0 15 0 15 -15 0 -15 0 0 -15z" stroke="#FFFFFF" stroke-width="10" />
<path d="M1830 1785 l0 -15 15 0 15 0 0 15 0 15 -15 0 -15 0 0 -15z" stroke="#FFFFFF" stroke-width="10" />
<path d="M3420 1395 l0 -15 15 0 15 0 0 15 0 15 -15 0 -15 0 0 -15z" stroke="#FFFFFF" stroke-width="10" />
<path d="M2640 1365 l0 -15 15 0 15 0 0 15 0 15 -15 0 -15 0 0 -15z" stroke="#FFFFFF" stroke-width="10" />
</g>
</g></svg>